<svg width="501" height="348" xmlns="http://www.w3.org/2000/svg" preserveAspectRatio="xMinYMin meet"><title>Code &amp; Creativity</title><g fill="none"><path d="M263.379 7.696s-66.616-13.307-137.637-3.943c-71.025 9.362-129.969 35.702-124.611 124.706 5.357 89.005 36.163 138.24 45.998 152.455 9.835 14.215 49.34 66.594 94.772 66.106 45.429-.493 190.405-38.807 236.477-59.109 57.419-25.31 101.536-57.752 115.501-86.944 13.959-29.194 10.154-96.463-46.964-130.735-57.114-34.269-136.241-56.647-183.536-62.536" fill="#2E8591"/><path d="M118.792 161.501c5.004-.795 10.263-2.77 15.779-5.937 5.498-3.322 9.688-7.071 12.573-11.249.968 8.052 3.942 11.688 8.934 10.897 2.46-.39 4.536-2.072 6.235-5.058.424-.747.91-1.842 1.464-3.287.551-1.444 1.165-3.196 1.845-5.254.339-1.498.638-2.859.893-4.089.253-1.226.464-2.321.635-3.283 2.544.617 4.029.889 4.454.821 1.728-.273 3.267-1.184 4.629-2.691-.277 2.447-.431 4.786-.431 6.992 0 3.309.552 6.021 1.654 8.138 1.443 2.993 3.478 4.286 6.109 3.869 2.039-.325 4.073-2.556 6.108-6.695.257-.466.701-1.426 1.337-2.884.638-1.46 1.421-3.448 2.356-5.974.763 8.277 3.135 12.101 7.125 11.471 2.159-.343 5.047-6.133 8.667-17.34l-.013.57c0 3.817.848 7.29 2.544 10.412 2.206 3.641 5.092 5.179 8.656 4.615 2.545-.404 4.792-1.993 6.743-4.763 3.14-4.821 6.32-13.852 9.545-27.09 1.273-5.291 1.911-8.234 1.911-8.83 0-1.017-.555-1.44-1.657-1.266-.339.055-1.145 2.599-2.417 7.64-5.092 20.15-9.673 30.549-13.741 31.195-1.53.239-2.974-.423-4.331-1.989-1.443-1.636-2.163-3.18-2.163-4.622 2.12-3.646 3.901-7.192 5.347-10.647 3.646-8.381 5.47-15.713 5.47-21.989 0-1.786-.762-3.189-2.292-4.221-1.527-1.029-3.178-1.403-4.962-1.123-3.055.481-5.388 5.479-6.998 14.981-.165.92-.314 1.821-.452 2.71-1.328 5.283-2.705 10.181-4.131 14.688-2.799 9.013-4.962 13.637-6.488 13.88-1.782-.057-2.757-3.084-2.927-9.08 0-1.443.192-3.976.574-7.601.38-3.621.908-8.287 1.588-13.995.933-7.615 1.657-13.434 2.164-17.459.508-4.027.806-6.343.891-6.951 1.102-5.774 2.037-10.778 2.8-15.014.764-4.236 1.398-7.707 1.909-10.42.339-2.6-.511-3.738-2.547-3.414-1.102.174-1.824.332-2.162.468-1.016.502-1.398 1.877-1.147 4.127-1.102 8.406-2.058 15.684-2.862 21.833-.807 6.154-1.464 11.264-1.972 15.331-.173.28-.341.436-.51.462-.083.014-.935-.443-2.545-1.38-1.526-1.03-2.842-1.459-3.946-1.285-3.224.514-6.319 5.798-9.289 15.855-.995 3.431-1.8 6.698-2.419 9.803-1.445 3.536-3.648 5.539-6.616 6.007-.934.149-1.994-.147-3.183-.895 0-10.264-.34-16.361-1.015-18.293-.679-1.841-2.249-3.501-4.711-4.98-2.376-1.487-4.666-2.061-6.873-1.711-2.291.362-3.732 2.036-4.324 5.012-.342 1.498-.597 2.683-.764 3.556-.173.877-.345 1.611-.342 2.092.008 1.518-.889 3.493-.803 4.07.055.406.093.704.112.908-1.348 3.019-2.021 8.545-2.021 16.575 0 .837.016 1.64.043 2.417-.454.706-1.182 1.747-2.335 3.29-4.462 5.97-17.815 12.878-27.233 14.37-10.522 1.667-15.781-4.627-15.781-18.882 0-12.64 2.417-25.918 7.256-39.837 5.171-15.072 10.942-23.114 17.307-24.119 3.053-.485 6.021-.232 8.908.752 3.565 1.135 5.343 3.098 5.343 5.899 0 2.544-.721 6.733-2.162 12.556-1.444 5.746-2.163 9.762-2.163 12.054 0 1.271.295 2.498.889 3.676.68 1.59 1.57 2.296 2.674 2.122 1.611-.256 3.054-3.875 4.327-10.867 1.016-5.588 1.529-9.87 1.529-12.839 0-4.919-.639-8.427-1.91-10.515-.935-1.635-2.801-3.036-5.601-4.205-4.413-1.932-8.951-2.529-13.616-1.79-3.308.524-5.771 1.468-7.381 2.826-6.535 5.277-12.007 15.264-16.418 29.962-3.649 12.032-5.472 22.714-5.472 32.046 0 8.06 1.865 14.425 5.598 19.094 4.244 5.096 10.309 7.02 18.201 5.771m99.515-58.522c.338-1.156.849-1.791 1.527-1.898 1.187-.189 1.782 1.162 1.782 4.045 0 3.309-.808 7.89-2.417 13.746-1.784 6.73-3.649 10.845-5.601 12.341 0-8.91 1.571-18.321 4.709-28.234m-27.359 2.296c2.543-.404 3.818 1.303 3.818 5.122 0 .85-.045 1.809-.129 2.884-.085 1.074-.212 2.304-.383 3.686-.168 1.728-.296 3.123-.381 4.199-.084 1.073-.17 1.873-.254 2.394-.424 2.105-.975 4.313-1.654 6.625-.679 2.314-1.485 4.733-2.419 7.255-2.461 6.668-4.624 10.15-6.489 10.445-1.867.298-2.8-3.672-2.8-11.901 0-3.899.974-9.529 2.926-16.881 2.377-8.774 4.963-13.384 7.765-13.828m-37.925 17.332c1.357-8.188 2.928-12.423 4.71-12.708 2.712-.427 4.071.84 4.071 3.81 0 .594-.063 1.535-.191 2.831-.127 1.293-.189 2.236-.189 2.828 0 .935.082 2.045.255 3.331.168 1.29.421 2.796.764 4.525.336 1.729.591 3.26.762 4.587.17 1.33.255 2.464.255 3.399 0 2.29-1.017 5.805-3.056 10.536-1.527 3.638-2.756 5.528-3.689 5.676-3.735.591-5.601-3.694-5.601-12.859 0-3.562.638-8.881 1.909-15.956" fill="#1B5E5F"/><path d="M313.116 129.326c1.526 1.452 2.884 2.085 4.071 1.898.51-.08 1.167-.377 1.973-.887.806-.508 1.211-.977 1.211-1.4-2.462-.71-4.245-1.617-5.347-2.714-3.227-3.137-5.644-5.428-7.255-6.872 1.273-1.133 3.86-4.684 7.766-10.646 3.393-5.202 5.895-7.933 7.506-8.189l8.78-1.39c.766-.969 1.147-1.706 1.147-2.219-.51-1.02-4.072-1.091-10.69-.217l-27.107 4.423c-1.442-3.162-2.563-5.701-3.374-7.61-.806-1.909-1.336-3.268-1.589-4.075 3.393-4.357 5.979-7.649 7.766-9.886 1.779-2.229 2.798-3.535 3.053-3.917 4.325-6.114 6.491-11.125 6.491-15.026 0-3.989-1.445-7.325-4.329-10.007-2.97-2.752-6.403-3.823-10.307-3.203-3.819.606-6.872 3.507-9.164 8.703-1.867 4.116-2.8 8.38-2.8 12.79 0 5.516 1.273 11.932 3.817 19.249l-11.836 15.616c-3.816 5.952-5.726 11.727-5.726 17.325 0 4.923 1.654 8.692 4.962 11.307 3.393 2.687 7.467 3.652 12.218 2.9 5.854-.928 12.812-5.295 20.871-13.104l7.892 7.151zm-12.982-24.798c.933-.235 1.866-.425 2.802-.574.933-.146 1.866-.293 2.8-.443l7.381-1.168c0 1.19-1.061 3.563-3.184 7.12-2.206 3.579-3.689 5.422-4.453 5.542-1.701-1.936-3.226-3.731-4.58-5.382-1.359-1.652-2.505-3.208-3.436-4.672l2.67-.423zm-12.853-45.819c1.95-5.311 4.495-8.217 7.638-8.718 1.184-.184 2.31-.049 3.37.423 1.061.468 1.992 1.126 2.801 1.976.805.846 1.442 1.826 1.908 2.941.468 1.116.701 2.264.701 3.45 0 3.906-2.928 9.545-8.78 16.92-3.312 4.257-5.475 6.846-6.49 7.771-2.122-5.006-3.183-9.338-3.183-12.987 0-4.069.678-7.993 2.035-11.776zm8.401 67.266c-4.669 3.625-9.121 5.772-13.363 6.443-2.884.457-5.557-.177-8.018-1.909-2.463-1.816-3.691-4.042-3.691-6.671 0-12.133 5.344-22.567 16.035-31.301 2.037 5.192 3.436 8.28 4.199 9.261-3.479 1.487-5.938 2.385-7.379 2.697-.088.352-.15.679-.19.984-.045.303-.065.669-.065 1.092.849-.134 2.503-.269 4.962-.403 2.122-.082 3.773-.216 4.962-.405 5.517 7.952 8.444 12.492 8.782 13.625-.001 1.19-2.078 3.383-6.234 6.587z" fill="#1B5E5F"/><path d="M251.158 181.377c2.119-.338 3.182-2.074 3.182-5.211 0-3.141-1.445-4.483-4.328-4.023-.849.135-1.718.736-2.609 1.811-.889 1.076-1.337 2.037-1.337 2.883 0 1.361.509 2.51 1.526 3.451 1.022.941 2.206 1.302 3.566 1.089" fill="#1B5E5F"/><path d="M278.518 195.623c-.595.098-.893.396-.893.907 0-.257.298.931.893 3.548v9.291c0 3.307-1.019 8.732-3.055 16.264-2.207 8.156-3.946 12.334-5.219 12.537-2.545.398-3.818-4.658-3.818-15.18 0-.678.043-1.574.127-2.691.086-1.115.209-2.408.384-3.879.168-1.469.319-2.785.444-3.951.128-1.166.19-2.084.19-2.768 0-2.629-1.315-3.777-3.942-3.447-.684.105-1.106.303-1.274.584-.172.281-.254.549-.254.801 0 .254.082.711.254 1.361v.047c-.177.467-.347 1.021-.507 1.688-.596 2.559-1.146 4.809-1.654 6.752-.51 1.949-.978 3.635-1.4 5.059-2.716 9-4.116 13.553-4.201 13.646-1.697 4.514-3.137 6.861-4.327 7.049-2.544.404-3.818-2.234-3.818-7.922 0-5.428.807-12.133 2.42-20.109.421-1.929.782-3.537 1.081-4.818.296-1.273.529-2.262.698-2.971 0-1.188-1.1-1.607-3.305-1.258-1.105.172-1.953.607-2.55 1.295 0 1.525-.084 3.471-.252 5.826-.099 1.363-.229 2.883-.384 4.521-4.003 17.2-7.609 26.083-10.814 26.59-2.038.322-3.226-2.076-3.564-7.201-.084-.918-.147-2.562-.192-4.932-.041-2.367-.062-5.461-.062-9.279 0-6.615 1.018-17.217 3.054-31.793l6.109-.84c2.039-.238 3.987-.504 5.855-.799l5.346-.848c1.609-.254 4.027-.934 7.253-2.037 3.898-1.299 6.021-2.186 6.363-2.664v-.889c-4.329.514-7.956.984-10.883 1.404-2.926.422-5.239.723-6.934.906-3.395.455-6.091.816-8.084 1.09-1.992.275-3.329.463-4.009.572.34-1.582.639-3.029.891-4.342.256-1.311.467-2.533.637-3.664v-2.674c-2.29-1.162-3.989-1.656-5.09-1.482-.681.107-1.146.479-1.4 1.111l.637 2.191c-.171 2.234-.299 4.141-.383 5.723-.084 1.584-.169 2.848-.254 3.793-4.666.91-8.528 1.67-11.58 2.281-3.055.611-5.387 1.043-6.999 1.299-1.02.162-1.528.541-1.528 1.135 0 .508.466.9 1.399 1.176 1.19.322 2.082.775 2.671 1.359l2.928-1.354c7.128-1.043 11.411-1.596 12.854-1.654-1.103 10.611-1.929 19.035-2.482 25.275l-.191 2.201c-4.645 19.518-8.336 29.498-11.072 29.932-1.442.229-2.504-1.088-3.181-3.951-.508-2.036-.679-4.045-.508-6.027.764-9.113 2.204-16.934 4.326-23.465l-4.454-.822-2.291-4.219c-1.017-1.791-3.394-2.391-7.126-1.799-1.698.27-3.777 5.01-6.236 14.225-1.307 5.383-2.205 9.686-2.714 12.959-3.918 13.049-7.51 19.839-10.774 20.357-1.526.24-2.97-.42-4.328-1.988-1.441-1.637-2.162-3.176-2.162-4.619 2.119-3.648 3.902-7.193 5.343-10.648 3.649-8.381 5.475-15.713 5.475-21.992 0-1.779-.764-3.186-2.291-4.219-1.528-1.028-3.184-1.403-4.963-1.121-3.055.482-5.387 5.477-7 14.98-.324 1.812-.593 3.56-.816 5.253-.856 3.254-2.022 7.111-3.51 11.595-3.055 9.391-5.304 14.201-6.745 14.432-2.465.389-3.691-1.41-3.691-5.4 0-1.439.082-3.213.255-5.32.166-2.104.423-4.541.763-7.311.338-2.854.592-5.332.763-7.441.169-2.102.254-3.877.254-5.318 0-2.461-1.826-4.334-5.472-5.625-3.562-1.299-5.344-2.376-5.344-3.229 0-.334.02-.848.063-1.533.042-.686.106-1.545.189-2.576.087-.861.148-1.613.192-2.258.04-.643.02-1.213-.062-1.709-.087-2.615-.976-3.789-2.674-3.521-2.12.34-3.181 2.627-3.181 6.867 0 .936.339 2.365 1.018 4.291.677 1.932 1.018 3.32 1.018 4.168 0 1.624-.301 3.734-.899 6.325-.329 1.238-.873 3.279-1.555 5.835-.571 2.137-1.254 4.633-2.067 7.236l-.642 1.959c-.22.645-.475 1.228-.708 1.854-.582 1.322-1.199 2.617-1.876 3.855-.687 1.23-1.396 2.441-2.209 3.543-.795 1.119-1.635 2.16-2.496 3.119-.88.941-1.785 1.793-2.689 2.543l-1.344 1.057-1.319.896c-.87.539-1.686 1.012-2.438 1.379-.76.346-1.394.715-1.968.91-1.129.42-1.77.693-1.77.693l.008.028c-4.349 1.579-9.118 2.603-9.118 2.603-10.521 1.666-15.781-4.629-15.781-18.883 0-12.641 2.419-25.918 7.256-39.838 5.171-15.07 10.942-23.109 17.306-24.119 3.054-.484 6.022-.232 8.908.753 3.563 1.134 5.346 3.097 5.346 5.899 0 2.541-.723 6.729-2.164 12.557-1.445 5.746-2.164 9.76-2.164 12.051 0 1.273.294 2.498.892 3.678.679 1.59 1.568 2.297 2.671 2.123 1.61-.256 3.054-3.881 4.329-10.867 1.017-5.59 1.527-9.873 1.527-12.842 0-4.92-.639-8.428-1.909-10.516-.937-1.631-2.801-3.031-5.601-4.203-4.413-1.932-8.952-2.525-13.618-1.787-3.306.525-5.77 1.467-7.381 2.822-6.534 5.279-12.005 15.266-16.416 29.963-3.651 12.033-5.472 22.713-5.472 32.045 0 8.062 1.866 14.428 5.6 19.094 4.241 5.098 10.307 7.021 18.197 5.771 4.133-.654 8.489-1.904 12.985-4.096l.136-.055c.889-.393 1.86-.924 2.899-1.527l1.579-1.016c.524-.379 1.055-.791 1.595-1.223 1.054-.885 2.102-1.887 3.114-2.992.986-1.121 1.962-2.318 2.8-3.63.873-1.286 1.62-2.671 2.326-4.062.696-1.395 1.308-2.809 1.851-4.184.258-.75.547-1.512.762-2.234l.566-2.105c.683-2.76 1.227-5.316 1.669-7.514.483-2.488.84-4.513 1.059-5.802.68-2.949 1.022-5.043 1.022-6.269 4.154 1.463 6.236 3.211 6.236 5.248l-.254 10.221c-.171 5.037-.171 8.979 0 11.836.082 3.889.509 6.41 1.273 7.562 1.783 2.689 3.985 3.824 6.617 3.406 2.156-.342 5.044-6.123 8.659-17.314l-.006.544c0 3.817.849 7.292 2.546 10.416 2.205 3.638 5.089 5.173 8.655 4.608 2.547-.402 4.794-1.99 6.743-4.758 1.348-2.071 2.703-4.923 4.066-8.544.571 8.227 2.905 12.023 7.007 11.372 3.476-.553 6.318-4.949 8.526-13.186 2.035 5.871 4.623 8.557 7.761 8.059 2.545-.402 5.599-6.4 9.163-17.994.213-.69.418-1.36.616-2.019.184 2.837.609 5.657 1.292 8.462 1.443 5.539 3.606 8.082 6.492 7.624 3.11-.493 6.407-5.93 9.893-16.306-.06 1.192-.093 2.264-.093 3.176 0 2.797.464 5.395 1.397 7.795 1.274 2.854 3.222 4.07 5.855 3.654 2.375-.375 4.409-2.562 6.108-6.568.591-1.451 1.994-5.828 4.199-13.139.671-2.29 1.262-4.363 1.781-6.245v.745c0 4.754.382 8.977 1.146 12.674 1.271 6.078 3.438 8.875 6.49 8.391 3.31-.527 6.277-6.127 8.906-16.809 2.207-8.918 3.312-15.754 3.312-20.508.002-7.039-1.143-10.375-3.435-10.014zm-103.967 49.811c0-8.91 1.566-18.319 4.707-28.236.335-1.152.846-1.787 1.526-1.895 1.187-.188 1.782 1.162 1.782 4.045 0 3.311-.806 7.892-2.417 13.746-1.782 6.73-3.651 10.842-5.598 12.34zm33.085-13.383c-.172 1.553-.511 3.322-1.021 5.312-.507 1.99-1.103 4.145-1.779 6.453-1.783 5.883-3.48 9.42-5.093 10.609-1.189.188-2.162-.465-2.925-1.957-.596-1.178-.89-2.488-.89-3.932 0-7.637.676-14.148 2.035-19.537.591-2.045 1.101-3.865 1.527-5.461.423-1.594.804-2.884 1.144-3.873 1.103-4.246 2.377-6.484 3.818-6.711 1.781-.285 2.843 1.502 3.184 5.352l1.527 1.793-1.527 11.952z" fill="#1B5E5F"/><path d="M295.951 164.863c-.853.136-1.716.74-2.609 1.814-.891 1.077-1.335 2.038-1.335 2.885 0 1.358.508 2.508 1.525 3.446 1.018.945 2.207 1.309 3.565 1.094 2.117-.338 3.18-2.074 3.18-5.214 0-3.137-1.443-4.481-4.326-4.025" fill="#1B5E5F"/><path d="M384.417 248.914c-.265-.432-.639-.791-1.027-.99-.773-.394-1.478-.488-2.188-.301-.362-.299-.711-.627-1.104-.99l-.436-.432-.37-.377c-.232-.225-.467-.441-.706-.66l-.55-.498-1.063-.969c-.435-.402-.864-.811-1.291-1.221l-1.165-1.09-.687-.625-.35-.344-.46-.447-1.568-1.428 1.086-.666 5.656-3.527c.479-.303.957-.604 1.441-.902l.913-.549.832-.498c.502-.311 1.007-.631 1.506-.951l.475-.303c.437-.279.622-.758.516-1.314-.089-.473-.478-.789-.965-.789l-.34.051c-.318.098-.628.236-.933.418-.4.246-.796.502-1.192.756l-9.211 5.76-.075.047 4.391-18.875c.197-.844.394-1.691.604-2.535.049-.205.083-.258.134-.279.343-.064.564-.279.729-.438l.229-.213c.282-.156.607-.459.716-1.037l.094-.424.034-.15c.178-.807-.192-1.441-.46-1.904-.5-.861-1.364-1.129-1.969-1.254-.749-.152-1.447.141-1.886.398-.812.475-1.298 1.279-1.328 2.195-.014.277.012.566.076.887.17.793.697 1.309 1.118 1.688-.122.455-.229.92-.343 1.42l-4.286 18.484-.046-.132-.179-.517-.375-1.232-.303-1.001c-.142-.464-.29-.925-.438-1.388l-.235-.723-.147-.451-.564-2.084c-.088-.309-.182-.619-.281-.922l-.179-.541-.226-.684-.191-.672-.132-.479c-.081-.299-.165-.598-.256-.893l-.684-2.168c-.057-.186-.12-.369-.227-.66l-.083-.236c-.085-.242-.17-.484-.281-.725-.156-.326-.471-.531-.819-.531-.412 0-.764.291-.852.701-.068.305-.027.594.013.885.022.186.102.326.149.398l.147.561.197.727c.093.32.196.635.299.953l.151.475c.064.193.128.385.181.586l.119.482c.066.27.132.541.214.803.191.598.395 1.193.595 1.785l.295.863c.089.268.171.535.244.801l.359 1.367.236.811.57 1.895.168.584.197.557.21.605.162.521-.825-.758-.136-.127-.608-.557-.379-.334c-.174-.148-.347-.299-.512-.457l-.671-.66c-.256-.26-.512-.518-.777-.77-.31-.289-.625-.574-.944-.857l-.668-.604-.422-.4-.531-.518c-.246-.24-.49-.48-.812-.775.114-.564.083-1.062-.096-1.613-.297-.914-.967-1.305-1.503-1.617l-.143-.082c-.343-.211-.827-.186-1.123-.123l-.178.031c-.878.023-1.586.459-2.156 1.336-.472.73-.539 1.549-.198 2.367.248.6.617 1.262 1.471 1.604.464.186.931.273 1.423.273l.433-.045c.329.227.639.51 1.059.898.145.133.283.275.42.42l.441.436.787.703.771.686c.406.375.807.752 1.207 1.137l.439.438.401.395c.264.258.536.508.809.76l.414.375.433.391.804.775-.136.021c-1.103.174-4.643.115-7.357 1.227-1.19.525-9.188 2.357-10.036 2.705-.848.35-1.483.596-1.909.748l-.252-5.561c-.255-5.133-.384-8.932-.384-11.391-.084-7.113-.042-12.803.129-17.074.169-4.268.463-7.242.89-8.922 1.782-6.646 2.672-10.941 2.672-12.893 0-1.191-.678-1.637-2.036-1.336-2.034.408-3.18 1.693-3.435 3.852-.682 5.795-1.274 10.639-1.782 14.539-.508 3.896-.89 6.928-1.147 9.09-3.308 13.25-6.063 20.049-8.27 20.398-2.207.349-3.31-2.912-3.31-9.783 0-1.781.084-3.961.255-6.531.17-2.572.423-5.58.765-9.029l1.398-13.203c.168-1.213-.467-1.705-1.91-1.479-1.611.256-2.715 2.338-3.309 6.252l-.198 3.037c-.74 3.176-1.478 6.2-2.219 9.053-.847 3.273-1.738 6.342-2.675 9.205-.375 1.21-.738 2.335-1.091 3.387-1.956 5.109-3.798 7.824-5.523 8.096-2.037.324-3.226-2.076-3.563-7.197-.084-.92-.147-2.564-.191-4.934-.045-2.367-.063-5.463-.063-9.279 0-6.619 1.019-17.217 3.058-31.793l6.107-.84c2.036-.238 3.985-.504 5.854-.799l5.345-.848c1.609-.254 4.027-.934 7.255-2.041 3.898-1.295 6.021-2.18 6.361-2.661v-.892c-4.326.518-7.956.987-10.881 1.408-2.925.422-5.237.721-6.934.906-3.396.453-6.09.816-8.084 1.09-1.993.273-3.329.463-4.008.568.337-1.578.636-3.025.891-4.338.255-1.313.466-2.533.635-3.667v-2.672c-2.29-1.164-3.985-1.657-5.086-1.482-.683.105-1.147.476-1.403 1.112l.638 2.189c-.173 2.234-.301 4.143-.382 5.722-.088 1.585-.173 2.851-.256 3.798-4.663.91-8.524 1.668-11.579 2.279-3.056.609-5.39 1.045-7.001 1.297-1.016.16-1.526.543-1.526 1.135 0 .508.466.904 1.399 1.18 1.188.32 2.079.771 2.672 1.355l2.93-1.355c7.124-1.041 11.409-1.592 12.851-1.65-1.104 10.609-1.93 19.033-2.482 25.273l-.137 1.573c-.374 1.556-.731 2.99-1.069 4.278-.511 1.949-.978 3.637-1.399 5.061-2.717 8.998-4.119 13.549-4.2 13.645-1.698 4.514-3.142 6.861-4.327 7.049-2.545.404-3.818-2.238-3.818-7.924 0-5.426.804-12.131 2.419-20.107.423-1.932.782-3.537 1.08-4.818.298-1.273.529-2.262.701-2.973 0-1.186-1.104-1.605-3.308-1.256-1.105.174-1.953.607-2.548 1.295 0 1.525-.084 3.471-.252 5.826-.173 2.361-.428 5.143-.765 8.332-.339 3.193-.591 5.947-.764 8.266-.168 2.316-.255 4.242-.255 5.768 0 2.797.468 5.396 1.4 7.797 1.273 2.852 3.224 4.068 5.854 3.652 2.372-.375 4.408-2.564 6.108-6.568.593-1.449 1.991-5.826 4.2-13.135l.325-1.119c.149 3.105.581 6.191 1.328 9.256.976 3.746 2.28 6.116 3.915 7.12l.015.015.043.024.058.032c1.219.729 2.122.809 3.953.23 2.263-.715 4.599-4.58 8.04-15.061.341-.985.684-2.002 1.028-3.082l.147-.482c-.184 2.963-.276 5.469-.276 7.506 0 2.969.552 5.469 1.654 7.5 1.356 2.584 3.393 3.662 6.11 3.23 2.037-.322 3.773-1.951 5.216-4.898.764-1.73 1.422-3.235 1.976-4.512.55-1.275.995-2.361 1.336-3.264 1.271 4.889 1.908 11.869 1.908 20.947-5.517 2.062-11.284 5.689-17.309 10.887-7.634 6.725-11.453 13.184-11.453 19.375 0 2.037.361 3.889 1.083 5.555.72 1.672 1.718 3.061 2.987 4.178 1.275 1.111 2.784 1.91 4.521 2.398 1.738.488 3.625.572 5.664.248 12.47-1.977 18.705-12.678 18.705-32.105 0-.51-.02-1.205-.064-2.09-.043-.883-.083-1.789-.125-2.717l-.128-2.715c-.043-.885-.062-1.58-.062-2.088 3.817-1.881 13.384-4.322 14.741-4.535.595-.096 1.507-.176 2.738-.244.333-.019.699-.033 1.087-.044l-.826.521-.729.439-.7.424c-.278.172-.554.354-.828.533l-.786.504c-.235.148-.474.289-.715.43l-.661.398c-.369.227-.734.461-1.103.695l-.75.479-.658.396-1.19.729-1.175.729c-.595.352-.809 1.057-.49 1.6.322.553 1.043.814 1.795.297.239-.164.479-.332.729-.484l.755-.455.866-.525 1.08-.689c.457-.293.914-.586 1.378-.877.369-.23.737-.453 1.11-.678l.989-.602c.353-.221.709-.447 1.063-.676l.913-.578c.622-.389 1.243-.777 1.887-1.166l-.253 1.09-4.693 20.193-.082.424-.354.178c-.276.131-.596.277-.863.531-.42.389-.979 1.014-.933 1.934.012.264.022.564.1.873.216.832.773 1.482 1.659 1.936.267.135.561.203.87.203.381 0 .725-.1 1.03-.188l.203-.06c.442-.123.807-.428 1.039-.666.219-.229.347-.492.46-.725l.1-.193c.091-.18.22-.424.217-.73-.008-.719-.119-1.756-1.045-2.504l.038-.238 4.732-20.357c.082.232.161.471.227.705l.148.582c.063.258.126.518.201.775.069.234.147.465.226.693l.177.529c.168.535.335 1.074.497 1.613l.617 2.082.213.744c.167.553.343 1.102.517 1.65l.246.744.131.4.136.516c.058.232.117.465.188.691.133.438.271.872.409 1.305l.479 1.547.32 1.043c.103.314.45.641.898.641h.006c.323-.023.804-.27.869-.754.03-.219.061-.549.013-.887-.03-.203-.094-.402-.161-.6l-.435-1.41-.205-.678-.177-.533c-.072-.205-.142-.406-.202-.613l-.179-.621-.721-2.391-.201-.676-.261-.797c-.125-.365-.247-.732-.357-1.1-.108-.363-.206-.73-.304-1.096l-.256-.938c-.099-.344-.21-.686-.32-1.025l-.468-1.51-.266-.824 1.326 1.262c.327.326.655.646.993.961.265.248.539.488.812.725.238.209.479.416.707.629.367.338.728.678 1.088 1.02l1.654 1.545.861.814c.064.062.164.168.195.104-.264.842-.002 1.533.222 1.979.289.582.755 1.029 1.381 1.328.568.275 1.167.312 1.947.096.663-.188 1.232-.609 1.597-1.189.599-.944.609-2.028.03-2.977zm-40.997 6.553c0 6.023-1.146 11.678-3.438 16.959-2.885 6.652-7.085 10.414-12.6 11.287-1.274.201-2.479.096-3.626-.316-1.146-.414-2.144-1.061-2.99-1.943-.848-.883-1.506-1.926-1.974-3.123-.465-1.201-.698-2.48-.698-3.836 0-4.752 2.204-9.641 6.616-14.664 5.006-5.8 11.241-10.309 18.71-13.527v9.163z" fill="#1B5E5F"/><path d="M116.208 158.918c5.003-.795 10.262-2.77 15.778-5.937 5.499-3.322 9.689-7.071 12.573-11.249.969 8.051 3.943 11.688 8.934 10.897 2.46-.39 4.536-2.072 6.236-5.058.424-.747.91-1.842 1.464-3.287.551-1.444 1.164-3.196 1.845-5.254.338-1.498.637-2.859.892-4.089.253-1.226.465-2.321.636-3.283 2.543.617 4.028.889 4.453.821 1.729-.273 3.268-1.184 4.63-2.691-.278 2.447-.432 4.786-.432 6.992 0 3.309.553 6.021 1.655 8.138 1.443 2.993 3.477 4.286 6.109 3.869 2.039-.325 4.073-2.556 6.107-6.695.258-.466.702-1.426 1.338-2.884.637-1.46 1.42-3.448 2.356-5.974.763 8.277 3.135 12.101 7.124 11.471 2.16-.343 5.047-6.133 8.668-17.34l-.013.57c0 3.817.847 7.29 2.544 10.412 2.205 3.641 5.091 5.179 8.655 4.615 2.545-.404 4.792-1.993 6.743-4.763 3.14-4.821 6.321-13.852 9.545-27.09 1.274-5.291 1.911-8.234 1.911-8.83 0-1.017-.554-1.44-1.656-1.266-.34.055-1.145 2.599-2.417 7.64-5.092 20.15-9.673 30.549-13.742 31.195-1.529.239-2.974-.423-4.33-1.989-1.444-1.636-2.163-3.18-2.163-4.622 2.119-3.646 3.9-7.192 5.347-10.647 3.645-8.381 5.47-15.713 5.47-21.989 0-1.786-.763-3.189-2.292-4.221-1.527-1.029-3.178-1.403-4.963-1.123-3.054.481-5.388 5.479-6.998 14.981-.164.92-.313 1.821-.452 2.71-1.328 5.284-2.704 10.181-4.13 14.688-2.8 9.013-4.963 13.637-6.489 13.88-1.781-.057-2.757-3.084-2.927-9.08 0-1.443.193-3.976.574-7.601.381-3.621.908-8.287 1.589-13.995.932-7.615 1.656-13.434 2.164-17.459.508-4.027.806-6.343.891-6.951 1.102-5.774 2.037-10.778 2.799-15.014.764-4.236 1.399-7.707 1.91-10.42.339-2.6-.511-3.738-2.547-3.414-1.102.174-1.824.332-2.162.468-1.016.502-1.399 1.877-1.147 4.127-1.102 8.406-2.058 15.684-2.863 21.833-.807 6.154-1.463 11.264-1.971 15.331-.173.28-.342.436-.51.462-.083.014-.935-.443-2.545-1.38-1.526-1.03-2.843-1.459-3.947-1.285-3.224.514-6.319 5.798-9.288 15.855-.995 3.431-1.801 6.698-2.42 9.803-1.445 3.536-3.648 5.538-6.616 6.007-.934.149-1.994-.147-3.182-.895 0-10.264-.34-16.361-1.016-18.293-.679-1.841-2.249-3.501-4.711-4.98-2.375-1.487-4.666-2.061-6.873-1.711-2.29.362-3.732 2.036-4.323 5.012-.213.929-.387 1.724-.532 2.413h-.001s-2.781 11.662-2.935 16.065v.017c-.232 2.472-.35 5.369-.35 8.706 0 .837.015 1.639.042 2.417-.453.706-1.181 1.747-2.334 3.29-4.462 5.97-17.815 12.878-27.234 14.37-10.521 1.667-15.78-4.627-15.78-18.882 0-12.64 2.417-25.918 7.256-39.837 5.171-15.072 10.942-23.114 17.307-24.119 3.053-.485 6.021-.232 8.907.752 3.566 1.135 5.343 3.098 5.343 5.899 0 2.544-.72 6.733-2.162 12.556-1.443 5.746-2.162 9.762-2.162 12.054 0 1.271.295 2.498.889 3.676.679 1.59 1.57 2.296 2.673 2.122 1.612-.256 3.054-3.875 4.328-10.867 1.016-5.588 1.528-9.87 1.528-12.839 0-4.919-.639-8.427-1.909-10.515-.936-1.635-2.802-3.036-5.602-4.205-4.412-1.932-8.95-2.529-13.616-1.79-3.308.524-5.771 1.468-7.381 2.826-6.535 5.277-12.006 15.264-16.418 29.962-3.648 12.032-5.471 22.714-5.471 32.046 0 8.06 1.865 14.425 5.598 19.094 4.243 5.096 10.309 7.019 18.201 5.771m99.516-58.522c.338-1.156.849-1.791 1.526-1.898 1.187-.189 1.783 1.162 1.783 4.045 0 3.309-.809 7.89-2.417 13.746-1.784 6.73-3.649 10.845-5.601 12.341 0-8.91 1.57-18.322 4.709-28.234m-27.361 2.296c2.544-.404 3.819 1.303 3.819 5.122 0 .85-.045 1.809-.13 2.884-.085 1.074-.212 2.304-.382 3.686-.169 1.728-.297 3.123-.382 4.199-.083 1.073-.17 1.873-.253 2.394-.425 2.105-.975 4.313-1.655 6.625-.679 2.314-1.484 4.733-2.419 7.256-2.461 6.667-4.624 10.149-6.488 10.444-1.867.298-2.8-3.672-2.8-11.901 0-3.899.974-9.529 2.925-16.881 2.378-8.775 4.964-13.384 7.765-13.828m-33.214 4.624c2.712-.427 4.07.84 4.07 3.81 0 .594-.062 1.535-.19 2.831-.127 1.293-.19 2.236-.19 2.828 0 .935.082 2.045.255 3.331.169 1.29.422 2.796.764 4.525.337 1.729.592 3.26.763 4.587.17 1.33.255 2.464.255 3.399 0 2.29-1.018 5.805-3.057 10.536-1.526 3.638-2.756 5.528-3.689 5.676-3.734.591-5.601-3.694-5.601-12.859 0-3.562.639-8.882 1.91-15.956 1.356-8.188 2.928-12.423 4.71-12.708" fill="#fff"/><path d="M310.532 126.742c1.526 1.452 2.884 2.085 4.071 1.898.51-.08 1.167-.377 1.973-.887.806-.508 1.211-.977 1.211-1.4-2.461-.71-4.245-1.617-5.347-2.714-3.227-3.137-5.644-5.428-7.255-6.872 1.273-1.133 3.86-4.684 7.766-10.646 3.393-5.202 5.895-7.933 7.506-8.189l8.78-1.39c.766-.969 1.147-1.706 1.147-2.219-.51-1.02-4.072-1.091-10.69-.217l-27.107 4.423c-1.442-3.162-2.563-5.701-3.374-7.61-.806-1.909-1.336-3.268-1.589-4.075 3.393-4.357 5.979-7.649 7.766-9.886 1.779-2.229 2.798-3.535 3.053-3.917 4.325-6.114 6.491-11.125 6.491-15.026 0-3.989-1.445-7.325-4.329-10.007-2.97-2.752-6.403-3.823-10.307-3.203-3.819.606-6.872 3.507-9.164 8.703-1.867 4.116-2.8 8.38-2.8 12.79 0 5.516 1.273 11.932 3.817 19.249l-11.836 15.616c-3.816 5.952-5.726 11.727-5.726 17.325 0 4.923 1.655 8.692 4.962 11.307 3.393 2.687 7.467 3.652 12.218 2.9 5.854-.928 12.812-5.295 20.871-13.104l7.892 7.151zm-12.982-24.798c.933-.235 1.866-.425 2.802-.574.934-.146 1.866-.293 2.8-.443l7.381-1.168c0 1.19-1.061 3.563-3.184 7.12-2.206 3.579-3.688 5.422-4.453 5.542-1.701-1.936-3.226-3.731-4.58-5.382-1.359-1.652-2.505-3.208-3.436-4.672l2.67-.423zm-12.853-45.818c1.95-5.311 4.495-8.217 7.638-8.718 1.184-.184 2.31-.049 3.37.423 1.061.468 1.992 1.126 2.801 1.976.805.846 1.442 1.826 1.908 2.941.468 1.116.701 2.264.701 3.45 0 3.906-2.928 9.545-8.78 16.92-3.312 4.257-5.475 6.846-6.49 7.771-2.122-5.006-3.183-9.338-3.183-12.987 0-4.07.678-7.994 2.035-11.776zm8.401 67.265c-4.669 3.625-9.121 5.772-13.363 6.443-2.884.457-5.557-.177-8.018-1.909-2.463-1.816-3.691-4.042-3.691-6.671 0-12.133 5.345-22.567 16.035-31.301 2.037 5.192 3.436 8.28 4.199 9.261-3.479 1.487-5.938 2.385-7.379 2.697-.088.352-.15.679-.19.984-.045.303-.065.669-.065 1.092.849-.134 2.503-.269 4.962-.403 2.122-.082 3.773-.216 4.962-.405 5.517 7.952 8.445 12.492 8.782 13.625-.001 1.19-2.078 3.384-6.234 6.587z" fill="#fff"/><path d="M248.574 178.793c2.119-.337 3.182-2.073 3.182-5.211 0-3.14-1.446-4.482-4.327-4.023-.849.134-1.719.736-2.609 1.811-.89 1.076-1.338 2.037-1.338 2.883 0 1.36.509 2.51 1.527 3.451 1.022.942 2.205 1.303 3.565 1.089" fill="#fff"/><path d="M275.934 193.04c-.595.098-.893.396-.893.905 0-.256.298.932.893 3.55v9.29c0 3.308-1.019 8.733-3.055 16.265-2.207 8.156-3.946 12.334-5.219 12.536-2.545.399-3.818-4.658-3.818-15.18 0-.677.043-1.574.127-2.691.085-1.115.209-2.408.384-3.878.168-1.47.319-2.786.444-3.951.128-1.166.19-2.085.19-2.769 0-2.629-1.315-3.776-3.942-3.446-.684.105-1.106.303-1.274.584-.172.281-.254.548-.254.801 0 .254.082.711.254 1.36v.047c-.177.467-.347 1.021-.507 1.688-.596 2.559-1.146 4.81-1.654 6.754-.51 1.948-.978 3.634-1.4 5.058-2.716 9-4.116 13.552-4.201 13.646-1.698 4.513-3.137 6.861-4.327 7.049-2.544.403-3.818-2.235-3.818-7.922 0-5.428.807-12.133 2.42-20.109.421-1.931.782-3.537 1.081-4.819.296-1.273.529-2.262.699-2.971 0-1.188-1.101-1.607-3.306-1.257-1.105.172-1.953.607-2.55 1.295 0 1.525-.084 3.471-.252 5.826-.099 1.363-.229 2.882-.384 4.521-4.003 17.201-7.609 26.083-10.814 26.591-2.038.321-3.226-2.077-3.564-7.201-.084-.919-.147-2.562-.192-4.932-.041-2.367-.062-5.462-.062-9.28 0-6.615 1.018-17.216 3.054-31.792l6.109-.84c2.039-.237 3.987-.505 5.855-.8l5.346-.847c1.608-.255 4.027-.935 7.253-2.038 3.898-1.298 6.021-2.185 6.363-2.664v-.889c-4.329.515-7.956.984-10.883 1.404-2.926.423-5.239.724-6.934.907-3.395.454-6.091.815-8.084 1.09-1.992.275-3.329.462-4.009.571.34-1.581.639-3.028.891-4.341.256-1.312.467-2.533.637-3.665v-2.673c-2.29-1.163-3.989-1.656-5.09-1.483-.681.108-1.146.48-1.4 1.112l.637 2.19c-.171 2.234-.299 4.142-.383 5.724-.084 1.584-.169 2.848-.254 3.793-4.666.911-8.528 1.67-11.58 2.28-3.055.612-5.387 1.044-6.999 1.299-1.02.162-1.528.542-1.528 1.135 0 .509.466.9 1.399 1.176 1.19.323 2.082.776 2.671 1.36l2.928-1.354c7.128-1.044 11.411-1.596 12.855-1.655-1.103 10.611-1.929 19.035-2.482 25.275l-.191 2.201c-4.645 19.518-8.336 29.499-11.072 29.933-1.442.228-2.504-1.089-3.181-3.951-.508-2.038-.679-4.046-.508-6.027.764-9.114 2.204-16.935 4.326-23.465l-4.454-.822-2.291-4.219c-1.017-1.792-3.394-2.392-7.126-1.799-1.698.27-3.777 5.01-6.236 14.224-1.307 5.383-2.205 9.686-2.714 12.959-3.918 13.05-7.51 19.839-10.774 20.357-1.526.24-2.97-.42-4.328-1.988-1.441-1.637-2.162-3.176-2.162-4.619 2.119-3.647 3.902-7.193 5.343-10.647 3.649-8.381 5.475-15.713 5.475-21.991 0-1.781-.764-3.187-2.291-4.221-1.528-1.029-3.184-1.404-4.963-1.12-3.055.482-5.387 5.476-7 14.98-.324 1.812-.593 3.558-.816 5.251-.856 3.255-2.022 7.111-3.51 11.596-3.055 9.392-5.304 14.202-6.745 14.433-2.465.389-3.691-1.41-3.691-5.4 0-1.439.082-3.214.255-5.321.166-2.104.423-4.54.763-7.311.338-2.854.592-5.332.763-7.44.169-2.102.254-3.878.254-5.319 0-2.461-1.826-4.333-5.472-5.624-3.562-1.3-5.344-2.378-5.344-3.229 0-.335.02-.848.063-1.534.042-.685.106-1.544.189-2.575.087-.862.148-1.614.192-2.258.04-.643.02-1.214-.062-1.709-.087-2.614-.976-3.789-2.674-3.521-2.12.339-3.181 2.626-3.181 6.867 0 .936.339 2.365 1.018 4.291.677 1.932 1.018 3.319 1.018 4.167 0 1.623-.301 3.735-.899 6.327-.33 1.238-.873 3.279-1.555 5.833-.571 2.137-1.254 4.633-2.067 7.237l-.642 1.959c-.22.644-.475 1.227-.708 1.853-.582 1.322-1.199 2.618-1.876 3.855-.687 1.23-1.396 2.442-2.209 3.543-.795 1.119-1.635 2.16-2.496 3.12-.88.941-1.785 1.793-2.689 2.542l-1.344 1.057-1.319.897c-.87.539-1.686 1.012-2.438 1.378-.76.346-1.394.715-1.968.911-1.129.42-1.77.692-1.77.692l.008.028c-4.349 1.579-9.118 2.603-9.118 2.603-10.521 1.666-15.781-4.629-15.781-18.883 0-12.64 2.419-25.918 7.256-39.837 5.171-15.071 10.942-23.11 17.306-24.12 3.054-.483 6.022-.232 8.908.752 3.563 1.135 5.346 3.099 5.346 5.9 0 2.542-.723 6.729-2.164 12.559-1.445 5.744-2.164 9.758-2.164 12.049 0 1.273.294 2.499.892 3.679.679 1.59 1.568 2.296 2.671 2.122 1.61-.256 3.054-3.88 4.329-10.867 1.017-5.59 1.527-9.873 1.527-12.841 0-4.921-.639-8.428-1.909-10.516-.937-1.631-2.801-3.032-5.601-4.204-4.413-1.931-8.952-2.524-13.618-1.787-3.306.525-5.77 1.467-7.381 2.824-6.534 5.277-12.005 15.265-16.416 29.962-3.651 12.032-5.472 22.713-5.472 32.045 0 8.062 1.866 14.427 5.6 19.093 4.241 5.099 10.307 7.021 18.197 5.772 4.133-.655 8.489-1.905 12.986-4.097l.135-.055c.889-.393 1.86-.923 2.899-1.526l1.579-1.016c.524-.38 1.055-.792 1.595-1.223 1.054-.886 2.102-1.888 3.114-2.993.986-1.12 1.962-2.317 2.8-3.631.873-1.285 1.62-2.67 2.326-4.06.696-1.396 1.308-2.81 1.851-4.184.258-.751.547-1.513.762-2.234l.566-2.106c.683-2.759 1.227-5.315 1.669-7.514.483-2.489.84-4.513 1.059-5.803.68-2.948 1.022-5.041 1.022-6.266 4.154 1.461 6.236 3.21 6.236 5.247l-.254 10.221c-.171 5.036-.171 8.978 0 11.836.082 3.889.509 6.409 1.273 7.562 1.783 2.688 3.985 3.823 6.617 3.406 2.157-.343 5.048-6.132 8.666-17.337l-.013.565c0 3.817.849 7.292 2.546 10.415 2.205 3.64 5.089 5.175 8.655 4.61 2.547-.403 4.794-1.991 6.743-4.758 1.348-2.071 2.703-4.924 4.066-8.545.571 8.227 2.905 12.023 7.007 11.373 3.476-.553 6.318-4.949 8.526-13.187 2.035 5.871 4.623 8.558 7.761 8.059 2.545-.402 5.599-6.4 9.163-17.993.213-.69.418-1.361.616-2.019.184 2.837.609 5.657 1.292 8.461 1.443 5.541 3.606 8.082 6.492 7.623 3.11-.492 6.407-5.928 9.893-16.305-.06 1.193-.093 2.265-.093 3.176 0 2.797.464 5.396 1.397 7.795 1.274 2.854 3.222 4.07 5.855 3.654 2.375-.375 4.409-2.562 6.108-6.568.591-1.451 1.994-5.828 4.199-13.138.671-2.29 1.262-4.364 1.781-6.245v.745c0 4.753.382 8.977 1.146 12.673 1.271 6.079 3.438 8.876 6.49 8.391 3.31-.526 6.276-6.127 8.906-16.809 2.207-8.918 3.312-15.753 3.312-20.507.001-7.039-1.144-10.375-3.436-10.014zm-103.967 49.81c0-8.909 1.566-18.319 4.707-28.235.335-1.152.846-1.787 1.526-1.895 1.187-.189 1.782 1.162 1.782 4.044 0 3.311-.806 7.892-2.417 13.747-1.782 6.73-3.651 10.842-5.598 12.339zm33.085-13.383c-.172 1.554-.511 3.322-1.021 5.313-.507 1.99-1.103 4.144-1.779 6.453-1.783 5.882-3.48 9.419-5.093 10.608-1.189.188-2.162-.465-2.925-1.957-.596-1.177-.89-2.487-.89-3.932 0-7.636.676-14.148 2.035-19.536.591-2.045 1.101-3.866 1.527-5.462.423-1.592.804-2.885 1.144-3.873 1.103-4.246 2.377-6.484 3.818-6.711 1.781-.284 2.843 1.503 3.184 5.352l1.527 1.793-1.527 11.952z" fill="#fff"/><path d="M293.367 162.279c-.854.136-1.716.74-2.609 1.814-.891 1.077-1.335 2.038-1.335 2.885 0 1.358.507 2.509 1.525 3.446 1.018.946 2.207 1.308 3.565 1.093 2.117-.337 3.18-2.073 3.18-5.213 0-3.137-1.443-4.481-4.326-4.025" fill="#fff"/><path d="M381.833 246.33c-.265-.431-.639-.791-1.027-.99-.773-.395-1.478-.487-2.188-.3-.362-.299-.711-.627-1.104-.99l-.436-.432-.37-.377c-.232-.225-.467-.442-.706-.661l-.55-.498-1.063-.969c-.435-.402-.864-.811-1.291-1.22l-1.165-1.091-.687-.624-.35-.345-.46-.447-1.568-1.428 1.086-.666 5.656-3.526c.479-.304.957-.604 1.441-.903.301-.186.605-.367.913-.548l.832-.499c.502-.311 1.007-.631 1.506-.95l.475-.304c.437-.278.622-.758.516-1.313-.089-.474-.478-.789-.965-.789l-.34.051c-.318.097-.628.235-.933.418-.4.245-.796.501-1.192.756l-9.211 5.759-.075.048 4.391-18.876c.197-.844.394-1.691.604-2.534.049-.206.083-.258.134-.28.343-.064.564-.278.729-.437l.229-.214c.282-.156.607-.459.716-1.037l.094-.424.034-.15c.178-.806-.192-1.44-.46-1.903-.5-.862-1.364-1.129-1.969-1.254-.749-.153-1.447.14-1.886.397-.812.475-1.298 1.279-1.328 2.196-.014.277.012.566.076.886.17.793.697 1.31 1.118 1.688-.122.456-.229.921-.343 1.421l-4.286 18.483-.046-.133-.179-.515-.375-1.233-.303-1.002c-.142-.463-.29-.924-.438-1.387l-.235-.722-.147-.452-.564-2.083c-.088-.31-.182-.62-.281-.922l-.179-.541-.226-.684-.191-.673-.132-.478c-.081-.3-.165-.598-.256-.894l-.684-2.166c-.057-.188-.12-.371-.227-.661l-.083-.236c-.085-.243-.17-.484-.281-.725-.156-.327-.471-.531-.819-.531-.412 0-.764.29-.852.701-.068.304-.027.593.013.884.022.186.102.326.149.398l.147.561.197.727c.093.32.196.636.299.953l.151.475c.064.194.128.386.181.587l.119.482c.066.27.132.541.214.802.191.599.395 1.194.595 1.785l.295.864c.089.269.171.534.244.801l.359 1.367.236.811.57 1.895.168.584.197.557.21.604.162.522-.825-.759-.136-.127-.608-.556-.376-.334c-.174-.147-.347-.298-.512-.456l-.671-.661c-.256-.259-.512-.517-.777-.769-.31-.29-.625-.574-.944-.857l-.668-.603-.422-.402-.531-.518c-.246-.239-.49-.48-.812-.774.114-.565.083-1.063-.096-1.614-.297-.914-.967-1.305-1.503-1.617l-.143-.082c-.343-.21-.827-.185-1.123-.122l-.178.03c-.878.023-1.586.46-2.156 1.337-.472.729-.539 1.549-.198 2.366.248.601.617 1.262 1.471 1.604.464.186.931.274 1.423.274l.433-.046c.329.228.639.511 1.059.899.145.133.283.275.42.419l.441.437.787.702.771.687c.406.374.807.751 1.207 1.137l.439.437.401.395c.264.258.536.508.809.761l.414.374.433.392.803.774-.135.021c-1.103.174-4.643.115-7.357 1.227-1.19.525-9.188 2.357-10.036 2.706-.848.349-1.483.596-1.909.748l-.252-5.562c-.255-5.132-.384-8.931-.384-11.39-.084-7.114-.042-12.804.129-17.075.169-4.267.463-7.242.89-8.922 1.782-6.646 2.672-10.941 2.672-12.893 0-1.19-.678-1.636-2.036-1.334-2.034.406-3.18 1.692-3.435 3.851-.682 5.795-1.274 10.638-1.782 14.538-.508 3.896-.89 6.929-1.147 9.091-3.308 13.249-6.063 20.049-8.27 20.398-2.206.349-3.31-2.913-3.31-9.784 0-1.781.084-3.96.255-6.53.17-2.572.423-5.58.765-9.029l1.398-13.203c.168-1.214-.467-1.706-1.91-1.479-1.611.255-2.715 2.338-3.309 6.252l-.198 3.037c-.74 3.176-1.478 6.2-2.219 9.052-.847 3.274-1.738 6.343-2.675 9.205-.375 1.211-.738 2.337-1.092 3.39-1.955 5.107-3.797 7.821-5.522 8.094-2.037.323-3.226-2.077-3.563-7.197-.084-.921-.147-2.564-.191-4.935-.045-2.366-.063-5.462-.063-9.279 0-6.618 1.019-17.216 3.058-31.792l6.107-.84c2.036-.238 3.985-.505 5.854-.8l5.345-.848c1.609-.253 4.027-.934 7.255-2.04 3.898-1.296 6.021-2.18 6.361-2.661v-.892c-4.326.518-7.956.987-10.881 1.407-2.925.423-5.237.722-6.934.907-3.396.453-6.09.816-8.084 1.09-1.993.273-3.329.463-4.008.568.337-1.579.636-3.026.891-4.338.255-1.314.466-2.533.635-3.667v-2.673c-2.29-1.163-3.985-1.656-5.086-1.482-.683.106-1.147.477-1.403 1.112l.638 2.19c-.173 2.234-.301 4.143-.382 5.722-.088 1.584-.173 2.85-.256 3.797-4.663.91-8.524 1.668-11.579 2.279-3.056.61-5.39 1.045-7.001 1.298-1.016.16-1.526.543-1.526 1.134 0 .508.466.904 1.399 1.18 1.188.32 2.079.772 2.672 1.356l2.93-1.354c7.124-1.043 11.409-1.593 12.851-1.652-1.104 10.609-1.93 19.034-2.482 25.273l-.137 1.575c-.374 1.555-.731 2.989-1.069 4.277-.511 1.949-.978 3.636-1.399 5.06-2.717 8.998-4.119 13.549-4.2 13.645-1.698 4.514-3.142 6.862-4.327 7.049-2.545.405-3.818-2.238-3.818-7.923 0-5.427.804-12.131 2.419-20.107.423-1.933.782-3.537 1.08-4.819.298-1.273.529-2.262.701-2.973 0-1.186-1.104-1.605-3.308-1.255-1.105.174-1.953.607-2.548 1.294 0 1.526-.084 3.473-.252 5.827-.173 2.361-.428 5.142-.765 8.331-.339 3.193-.591 5.948-.764 8.266-.168 2.317-.255 4.242-.255 5.769 0 2.797.468 5.396 1.4 7.796 1.273 2.853 3.224 4.069 5.854 3.652 2.372-.374 4.408-2.563 6.108-6.568.593-1.449 1.991-5.826 4.2-13.135l.325-1.118c.149 3.105.581 6.19 1.328 9.255.976 3.749 2.281 6.119 3.917 7.123l.013.012.036.021.073.042c1.215.724 2.119.801 3.944.225 2.262-.714 4.597-4.576 8.037-15.049.341-.988.686-2.009 1.031-3.093l.147-.481c-.184 2.961-.276 5.468-.276 7.504 0 2.97.552 5.47 1.654 7.5 1.356 2.585 3.393 3.662 6.11 3.231 2.037-.323 3.773-1.952 5.216-4.898.764-1.73 1.422-3.237 1.976-4.513.55-1.274.995-2.361 1.336-3.264 1.271 4.889 1.908 11.87 1.908 20.947-5.517 2.063-11.284 5.689-17.309 10.887-7.634 6.726-11.453 13.184-11.453 19.376 0 2.038.361 3.889 1.083 5.555.72 1.671 1.718 3.061 2.987 4.177 1.275 1.112 2.784 1.91 4.521 2.398 1.738.488 3.625.572 5.664.249 12.47-1.977 18.705-12.679 18.705-32.106 0-.509-.02-1.204-.064-2.089-.043-.883-.083-1.789-.125-2.717l-.128-2.715c-.043-.885-.062-1.581-.062-2.089 3.817-1.88 13.384-4.321 14.741-4.535.595-.096 1.507-.175 2.738-.243.333-.019.699-.033 1.087-.044l-.826.521-.729.439-.7.423-.828.533-.786.504c-.235.148-.474.29-.715.43l-.661.398-1.103.695-.75.479-.658.396-1.19.729c-.39.244-.783.491-1.175.729-.595.353-.809 1.058-.49 1.601.322.553 1.043.813 1.795.297.239-.165.479-.332.729-.484l.755-.456.866-.525 1.08-.689c.457-.292.914-.585 1.378-.876.369-.23.737-.454 1.11-.679l.989-.601 1.063-.676.913-.579c.622-.389 1.243-.777 1.887-1.165l-.253 1.089-4.693 20.193-.082.424-.354.178c-.276.131-.596.278-.863.531-.42.389-.979 1.015-.933 1.935.012.264.022.564.1.872.216.832.773 1.482 1.659 1.936.267.136.561.204.87.204.381 0 .725-.1 1.03-.19l.203-.059c.442-.122.807-.427 1.039-.665.219-.229.347-.493.46-.725l.1-.193c.091-.18.22-.424.217-.731-.008-.719-.119-1.756-1.045-2.503l.038-.238 4.732-20.357c.082.232.161.47.227.705l.148.582c.063.258.126.517.201.775.069.234.147.464.226.693l.177.528c.168.536.335 1.075.497 1.613l.617 2.083.213.743c.167.553.343 1.103.517 1.651l.246.743.131.4.136.516c.058.232.117.465.188.691.133.438.271.871.409 1.306l.479 1.546.32 1.043c.103.315.45.641.898.641h.006c.323-.022.804-.269.869-.754.03-.218.061-.548.013-.887-.03-.203-.094-.401-.161-.599l-.435-1.411-.205-.677-.177-.534c-.072-.204-.142-.406-.202-.612l-.179-.622-.721-2.39-.201-.676-.261-.797c-.125-.366-.247-.732-.357-1.101-.108-.363-.206-.73-.304-1.096l-.256-.937c-.099-.345-.21-.686-.32-1.025l-.468-1.51-.266-.825 1.326 1.262c.327.326.655.647.993.962.265.247.539.487.812.724.238.209.479.416.707.629.367.338.728.678 1.088 1.02l1.654 1.545.861.814c.064.062.164.168.195.104-.264.841-.002 1.532.222 1.978.289.582.755 1.029 1.381 1.328.568.275 1.167.312 1.947.097.663-.188 1.232-.61 1.597-1.189.597-.946.607-2.03.028-2.98zm-40.997 6.553c0 6.024-1.146 11.678-3.438 16.96-2.885 6.651-7.085 10.414-12.6 11.287-1.274.201-2.479.096-3.626-.317-1.146-.414-2.144-1.061-2.99-1.943-.848-.883-1.506-1.926-1.974-3.123-.465-1.2-.698-2.479-.698-3.835 0-4.752 2.204-9.642 6.616-14.665 5.006-5.801 11.241-10.309 18.71-13.527v9.163z" fill="#fff"/><path d="M395.622 155.998s-4.872-37.481-30.574-43.319v-.003c26.586-7.452 30.574-41.991 30.574-41.991s6.203 36.311 30.575 41.991v.003c-24.372 3.179-30.575 43.319-30.575 43.319" fill="#6BBCB9"/><path d="M456.773 193.814s-4.874-37.479-30.576-43.317v-.003c26.588-7.452 30.576-41.992 30.576-41.992s6.205 36.312 30.577 41.992v.003c-24.371 3.179-30.577 43.317-30.577 43.317" fill="#6BBCB9"/><path d="M443.037 104.254s-4.873-37.48-30.575-43.319v-.003c26.588-7.452 30.575-41.991 30.575-41.991s6.204 36.311 30.576 41.991v.003c-24.372 3.18-30.576 43.319-30.576 43.319" fill="#6BBCB9"/></g></svg>