<?xml version="1.0" encoding="UTF-8" standalone="no"?>
<svg width="62px" height="14px" viewBox="0 0 62 14" version="1.1" xmlns="http://www.w3.org/2000/svg" xmlns:xlink="http://www.w3.org/1999/xlink" xmlns:sketch="http://www.bohemiancoding.com/sketch/ns">
    <title>Slice 1</title>
    <description>Created with Sketch (http://www.bohemiancoding.com/sketch)</description>
    <defs></defs>
    <g id="Page-1" stroke="none" stroke-width="1" fill="none" fill-rule="evenodd" sketch:type="MSPage">
        <g id="dryan" sketch:type="MSLayerGroup" transform="translate(1.000000, 0.000000)" fill="#FFFFFF">
            <g id="Page-1" sketch:type="MSShapeGroup">
                <g id="dryan-knockout">
                    <path d="M3.81004711,13.7904463 L0.175475333,13.7904463 C0.000174444444,13.7904463 -0.140066278,13.6562064 -0.140066278,13.4609484 C-0.140066278,13.277894 -0.0115122778,13.1314505 0.175475333,13.1314505 L3.84510728,13.1314505 C5.29426128,13.1314505 10.0273853,12.6677127 10.0273853,6.846583 C10.0273853,5.08926083 9.53654283,3.71025103 8.55485783,2.72175734 C6.74341533,0.89121336 3.90354089,0.964435168 3.88016744,0.964435168 L0.502703667,0.964435168 L0.502703667,6.73675038 C0.502703667,6.91980475 0.374149667,7.06624825 0.187162056,7.06624825 C0.0118611667,7.06624825 -0.128379556,6.93200838 -0.128379556,6.73675038 L-0.128379556,0.610529985 C-0.128379556,0.42747561 0.000174444444,0.281032052 0.187162056,0.281032052 L3.856794,0.281032052 C3.985348,0.281032052 6.98883656,0.195606677 8.97558,2.19700141 C10.0858189,3.33193865 10.6584685,4.86959552 10.6584685,6.78556488 C10.6350951,13.4365411 4.95534622,13.7904463 3.81004711,13.7904463 L3.81004711,13.7904463 L3.81004711,13.7904463 Z M21.982906,13.3023013 C22.0647131,13.4609484 22.0062794,13.6562064 21.8777254,13.7660391 C21.8309786,13.7904463 21.7725449,13.8148536 21.725798,13.8148536 C21.6206175,13.8148536 21.5154369,13.7660391 21.4453166,13.6562064 L17.7756846,6.9930265 C17.7289377,6.88319388 17.7289377,6.748954 17.7756846,6.66352857 C17.8224316,6.55369594 17.9509855,6.50488144 18.0561661,6.50488144 C18.0795395,6.50488144 19.6806209,6.59030682 20.6389325,5.61401676 C21.129775,5.10146445 21.3868829,4.39365414 21.3868829,3.53940028 C21.3868829,2.83158997 21.1765219,2.27022316 20.7674865,1.84309623 C19.8909821,0.952231543 18.3600209,0.976638793 18.3600209,0.976638793 L14.9942438,0.976638793 L14.9942438,6.748954 C14.9942438,6.93200838 14.8656899,7.07845188 14.6787023,7.07845188 C14.5034013,7.07845188 14.3631607,6.944212 14.3631607,6.748954 L14.3631607,0.610529985 C14.3631607,0.42747561 14.4917146,0.281032052 14.6787023,0.281032052 L18.3717077,0.281032052 C18.4184546,0.281032052 20.1597767,0.232217552 21.2115821,1.33054392 C21.7491714,1.86750348 22.0413396,2.59972104 22.0413396,3.49058578 C22.0413396,4.56450489 21.725798,5.43096233 21.0830281,6.05334726 C20.3117042,6.83437938 19.2248387,7.05404463 18.570382,7.10285913 L21.982906,13.3023013 L21.982906,13.3023013 Z M30,13.4609484 C30,13.6440028 29.871446,13.7904463 29.6844584,13.7904463 C29.5091575,13.7904463 29.3689168,13.6562064 29.3689168,13.4609484 L29.3689168,7.87168756 L25.2318158,0.805787985 C25.1500087,0.64714086 25.1850689,0.45188286 25.3369963,0.342050235 C25.4889238,0.232217552 25.6759114,0.293235677 25.7810919,0.45188286 L29.9649398,7.60320781 C29.9883133,7.65202231 30.0116867,7.71304044 30.0116867,7.76185494 L30.0116867,13.4609484 L30,13.4609484 L30,13.4609484 Z M45.7653933,13.7660391 C45.7186464,13.7904463 45.6835863,13.7904463 45.6368393,13.7904463 C45.5082854,13.7904463 45.4031048,13.7050209 45.3563579,13.6073919 L40.3427525,1.45258017 L35.2473399,13.5951883 C35.1655329,13.7538355 34.990232,13.8392608 34.8383046,13.7538355 C34.6863771,13.66841 34.6045701,13.4853556 34.6863771,13.3267085 L40.0622711,0.50069736 C40.1090179,0.390864735 40.2141985,0.317642985 40.3427525,0.317642985 L40.3427525,0.317642985 C40.4713064,0.317642985 40.576487,0.40306836 40.6232339,0.50069736 L45.9173208,13.3267085 C45.9991278,13.4853556 45.9173208,13.6806136 45.7653933,13.7660391 L45.7653933,13.7660391 L45.7653933,13.7660391 Z M60.1400661,13.4609484 C60.1400661,13.5951883 60.0582594,13.7294282 59.929705,13.7904463 C59.9063317,13.7904463 59.8478983,13.8148536 59.8245244,13.8148536 C59.7193439,13.8148536 59.6492239,13.7660391 59.5674167,13.6806136 L50.5686378,1.61122735 L50.5686378,13.4853556 C50.5686378,13.66841 50.4400839,13.8148536 50.2530961,13.8148536 C50.0661083,13.8148536 49.9375544,13.6806136 49.9375544,13.4853556 L49.9375544,0.610529985 C49.9375544,0.47629011 50.0193617,0.342050235 50.1479156,0.281032052 C50.2764694,0.220013927 50.4050233,0.281032052 50.5102039,0.390864735 L59.5089833,12.460251 L59.5089833,7.0906555 C59.5089833,6.90760113 59.6375372,6.76115763 59.8245244,6.76115763 C60.0115122,6.76115763 60.1400661,6.8953975 60.1400661,7.0906555 L60.1400661,13.4609484 L60.1400661,13.4609484 Z" id="Shape"></path>
                </g>
            </g>
        </g>
    </g>
</svg>