<?xml version="1.0" encoding="UTF-8" standalone="no"?>
<svg width="48px" height="50px" viewBox="0 0 48 50" version="1.1" xmlns="http://www.w3.org/2000/svg" xmlns:xlink="http://www.w3.org/1999/xlink" xmlns:sketch="http://www.bohemiancoding.com/sketch/ns">
    <title>lpglogo_greyscale</title>
    <description>Created with Sketch (http://www.bohemiancoding.com/sketch)</description>
    <defs></defs>
    <g id="Page-1" stroke="none" stroke-width="1" fill="none" fill-rule="evenodd" sketch:type="MSPage">
        <path d="M0.0818181818,24.6236559 C0.518181818,24.5430108 0.9,24.4354839 1.30909091,24.3548387 C1.60909091,24.3010753 1.71818182,24.1935484 1.71818182,23.8709677 C1.66363636,20.3763441 2.31818182,17.016129 3.81818182,13.844086 C5.56363636,10.1075269 8.18181818,7.09677419 11.5363636,4.65053763 C12.9,3.65591398 14.1545455,2.47311828 15.4636364,1.39784946 C15.9818182,0.940860215 16.5,0.483870968 17.0727273,0 C17.2909091,0.456989247 17.5363636,0.860215054 17.7272727,1.29032258 C17.8363636,1.53225806 17.9454545,1.55913978 18.1909091,1.47849462 C20.4818182,0.779569892 22.8545455,0.430107527 25.2545455,0.483870968 C31.5272727,0.61827957 36.9,2.90322581 41.4,7.20430108 C42.7909091,8.5483871 44.3181818,9.75806452 45.7909091,11.0215054 C46.0636364,11.2365591 46.3090909,11.4784946 46.6090909,11.7204301 C46.2,11.9892473 45.7909091,12.2580645 45.4090909,12.5268817 C48.2454545,17.9569892 48.9545455,23.6290323 47.2909091,29.4892473 C45.6272727,35.3763441 42.0545455,39.8387097 36.7090909,43.0913978 C38.8636364,43.4677419 40.9363636,43.844086 43.0090909,44.2204301 L43.0090909,44.3010753 C38.1545455,46.1827957 33.3,48.0645161 28.4181818,49.9731183 C28.2545455,49.3817204 28.0909091,48.8172043 27.9272727,48.2526882 C27.7636364,47.6344086 27.5727273,47.016129 27.4090909,46.3978495 C27.3545455,46.155914 27.2454545,46.1290323 27.0272727,46.1290323 C22.2818182,46.5591398 17.7818182,45.6451613 13.6090909,43.3333333 C8.18181818,40.3225806 4.52727273,35.8333333 2.64545455,29.9462366 C2.56363636,29.6774194 2.45454545,29.4086022 2.34545455,29.1666667 C1.66363636,27.7688172 0.954545455,26.3709677 0.245454545,24.9731183 C0.218181818,24.9193548 0.163636364,24.811828 0.0818181818,24.6236559 Z M43.2,14.0053763 C43.1454545,13.8709677 43.0909091,13.7634409 43.0636364,13.6827957 L41.5090909,9.48924731 C41.4545455,9.30107527 41.3454545,9.13978495 41.2090909,9.00537634 C37.3909091,4.89247312 32.6727273,2.52688172 27.0545455,1.96236559 C25.0363636,1.74731183 22.9909091,1.82795699 21,2.20430108 C20.1545455,2.3655914 19.3363636,2.58064516 18.4363636,2.7688172 C18.7363636,3.38709677 19.0363636,3.9516129 19.3363636,4.54301075 C18.9272727,4.56989247 18.5454545,4.59677419 18.1909091,4.62365591 C16.8545455,4.7311828 15.5454545,4.81182796 14.2090909,4.91935484 C13.8818182,4.94623656 13.5272727,5 13.2545455,5.16129032 C6.57272727,9.56989247 3.10909091,15.6989247 3.05454545,23.655914 C3.05454545,23.7634409 3.08181818,23.8709677 3.08181818,24.0053763 C3.95454545,23.8172043 4.8,23.655914 5.7,23.4677419 C5.67272727,23.6290323 5.64545455,23.7365591 5.64545455,23.8172043 C5.18181818,25.8870968 4.69090909,27.9569892 4.22727273,30.0268817 C4.2,30.188172 4.2,30.4032258 4.25454545,30.5645161 C6.51818182,36.6129032 10.6636364,40.9139785 16.6909091,43.4408602 C18.8727273,44.3548387 21.1909091,44.8387097 23.5636364,44.9731183 C24.6818182,45.0268817 25.8272727,44.9731183 27.0272727,44.9731183 C26.6727273,43.7096774 26.3454545,42.5268817 26.0181818,41.2903226 C26.1818182,41.2903226 26.2636364,41.2903226 26.3727273,41.3172043 C28.9636364,41.7741935 31.5272727,42.2311828 34.1181818,42.7150538 C34.4454545,42.7688172 34.7454545,42.7419355 35.0454545,42.5806452 C42.1363636,38.6827957 46.1181818,32.7688172 46.7727273,24.7580645 C47.0454545,21.4247312 46.4727273,18.1989247 45.1636364,15.1344086 C44.9181818,14.516129 44.5909091,13.9247312 44.3181818,13.3064516 C43.9090909,13.5215054 43.5545455,13.7365591 43.2,14.0053763 Z" id="Shape" fill="#FFFFFF" sketch:type="MSShapeGroup"></path>
        <path d="M28.1181818,22.2043011 L26.8909091,22.2043011 L26.8909091,21.827957 L26.8909091,18.0913978 C26.8909091,17.8225806 26.8636364,17.5268817 26.8090909,17.2580645 C26.6454545,16.3172043 25.9636364,15.7258065 24.8454545,15.6451613 C24.1636364,15.5913978 23.5090909,15.7258065 22.8818182,16.0483871 C21.9272727,16.5322581 21.4636364,17.3655914 21.4363636,18.3870968 C21.4090909,19.5430108 21.4090909,20.6989247 21.4090909,21.827957 C21.4090909,22.0967742 21.3545455,22.2311828 21.0272727,22.2043011 C20.1818182,22.1774194 20.1818182,22.2043011 20.1818182,21.344086 L20.1818182,15.3225806 C20.1818182,15 20.2636364,14.9193548 20.5909091,14.9193548 C21.4090909,14.9462366 21.4090909,14.9193548 21.4090909,15.7258065 C21.4090909,15.8333333 21.4090909,15.9408602 21.4363636,16.1021505 C21.5727273,15.9946237 21.6545455,15.9408602 21.7363636,15.8602151 C23.0454545,14.7043011 24.5727273,14.4623656 26.2090909,14.9462366 C26.9181818,15.1612903 27.4363636,15.5645161 27.7909091,16.2096774 C27.8181818,16.2634409 27.8727273,16.344086 27.9545455,16.4516129 C28.0363636,16.344086 28.0636364,16.2903226 28.1181818,16.2096774 C29.3181818,14.8387097 31.3909091,14.3010753 33.0818182,14.9731183 C34.0909091,15.3494624 34.7181818,16.1021505 34.7727273,17.1774194 C34.8545455,18.8172043 34.8545455,20.4569892 34.8818182,22.1505376 C34.4727273,22.1505376 34.0909091,22.1505376 33.7363636,22.1236559 C33.6818182,22.1236559 33.6,21.9354839 33.6,21.827957 L33.6,19.1397849 C33.6,18.4677419 33.5727273,17.7956989 33.5181818,17.1236559 C33.4636364,16.3709677 32.9727273,15.9139785 32.2636364,15.7258065 C31.0909091,15.3763441 29.9727273,15.5913978 29.0181818,16.3709677 C28.4727273,16.827957 28.2,17.4462366 28.1727273,18.1182796 C28.1181818,19.327957 28.1181818,20.5107527 28.0909091,21.7204301 C28.1181818,21.9354839 28.1181818,22.0430108 28.1181818,22.2043011 L28.1181818,22.2043011 Z" id="Shape" fill="#FFFFFF" sketch:type="MSShapeGroup"></path>
        <path d="M37.5545455,16.1827957 C37.5818182,16.155914 37.6363636,16.1290323 37.6636364,16.0752688 C39,14.3010753 41.5909091,14.4086022 43.0090909,15.9139785 C44.8363636,17.8494624 44.1272727,21.2365591 41.6181818,22.1505376 C40.2,22.6612903 38.9181818,22.3655914 37.8272727,21.3172043 L37.6090909,21.1021505 C37.6090909,21.1021505 37.5818182,21.0752688 37.5272727,21.0752688 L37.5272727,23.7096774 L39.0545455,23.7096774 L39.0545455,24.4892473 C38.6727273,24.4892473 38.2636364,24.516129 37.8545455,24.4892473 C37.5818182,24.4623656 37.4727273,24.5698925 37.4727273,24.8387097 L37.4727273,30.5376344 L37.4727273,30.9408602 L36.5181818,30.9408602 L36.5181818,30.5645161 L36.5181818,24.811828 C36.5181818,24.5430108 36.4363636,24.4086022 36.1636364,24.4354839 C35.9454545,24.4623656 35.7,24.4354839 35.4818182,24.4354839 C35.1272727,24.4623656 35.1818182,24.2473118 35.1818182,24.0322581 C35.1818182,23.844086 35.1545455,23.6290323 35.4818182,23.655914 C35.7272727,23.6827957 35.9727273,23.655914 36.2454545,23.655914 C36.5181818,23.6827957 36.5727273,23.5752688 36.5727273,23.3333333 L36.5727273,20.5913978 L36.5727273,15.3225806 C36.5727273,14.8655914 36.5727273,14.8655914 37.0363636,14.8655914 L37.4181818,14.8655914 L37.4181818,16.0752688 C37.5,16.1827957 37.5272727,16.1827957 37.5545455,16.1827957 L37.5545455,16.1827957 Z M43.1454545,18.6021505 C43.1181818,18.3602151 43.0909091,18.1451613 43.0363636,17.9032258 C42.5727273,15.8064516 40.0090909,14.9193548 38.4545455,16.2903226 C37.3363636,17.2580645 37.0636364,18.8978495 37.8272727,20.1612903 C38.3454545,20.9946237 39.1090909,21.4784946 40.1181818,21.5053763 C41.7818182,21.6129032 43.1181818,20.2956989 43.1454545,18.6021505 L43.1454545,18.6021505 Z" id="Shape" fill="#FFFFFF" sketch:type="MSShapeGroup"></path>
        <path d="M9.76363636,23.7365591 L10.6909091,23.7365591 L10.6909091,24.9462366 C11.6181818,23.9247312 12.7363636,23.4408602 14.0727273,23.5483871 C15.1090909,23.6290323 15.9818182,24.0322581 16.6909091,24.7849462 C18.0545455,26.2365591 18.0272727,28.4408602 16.7454545,29.8924731 C15.4090909,31.3709677 12.5454545,31.8010753 10.7181818,29.7849462 L10.7181818,33.6290323 L9.76363636,33.6290323 L9.76363636,23.7365591 L9.76363636,23.7365591 Z M16.7454545,27.3387097 C16.7454545,25.6989247 15.3818182,24.4086022 13.6909091,24.4086022 C11.9454545,24.4086022 10.6090909,25.6989247 10.6090909,27.3655914 C10.6090909,29.0322581 11.9181818,30.2956989 13.6909091,30.2956989 C15.3818182,30.3225806 16.7454545,28.9784946 16.7454545,27.3387097 L16.7454545,27.3387097 Z" id="Shape" fill="#FFFFFF" sketch:type="MSShapeGroup"></path>
        <path d="M18.0818182,22.2043011 L17.2090909,22.2043011 L17.2090909,20.9677419 L16.6636364,21.5053763 C15.6,22.4193548 14.3727273,22.6344086 13.0636364,22.1505376 C11.7545455,21.6666667 10.9636364,20.6989247 10.7454545,19.3548387 C10.4181818,17.5268817 11.2090909,15.9139785 12.7363636,15.1344086 C14.2090909,14.4086022 15.9,14.7580645 16.9636364,15.9946237 C17.0181818,16.0483871 17.0727273,16.1290323 17.1818182,16.2365591 L17.1818182,15 L18.0818182,15 L18.0818182,22.2043011 L18.0818182,22.2043011 Z M17.2636364,18.6290323 C17.2636364,16.9623656 16.0363636,15.6451613 14.4545455,15.6451613 C12.8454545,15.6451613 11.5363636,16.9354839 11.5363636,18.5752688 C11.5363636,20.188172 12.8181818,21.5322581 14.3727273,21.5322581 C16.0090909,21.5591398 17.2636364,20.2956989 17.2636364,18.6290323 L17.2636364,18.6290323 Z" id="Shape" fill="#FFFFFF" sketch:type="MSShapeGroup"></path>
        <path d="M23.3727273,31.155914 C21.1363636,31.155914 19.3636364,29.4892473 19.3636364,27.3924731 C19.3636364,25.2688172 21.1090909,23.5483871 23.2909091,23.5483871 C25.6090909,23.5483871 27.3272727,25.1612903 27.3272727,27.3655914 C27.3272727,29.516129 25.6363636,31.155914 23.3727273,31.155914 L23.3727273,31.155914 Z M26.3727273,27.3924731 C26.3727273,25.7526882 25.0090909,24.4354839 23.3454545,24.4354839 C21.7090909,24.4354839 20.3181818,25.8064516 20.3181818,27.4193548 C20.3454545,29.0322581 21.6818182,30.3225806 23.3454545,30.3225806 C25.0636364,30.3225806 26.3727273,29.0322581 26.3727273,27.3924731 L26.3727273,27.3924731 Z" id="Shape" fill="#FFFFFF" sketch:type="MSShapeGroup"></path>
        <path d="M33.4909091,24.4892473 C33.2727273,24.7043011 33.0818182,24.8655914 32.8909091,25.0806452 C32.7272727,24.9731183 32.5363636,24.811828 32.3454545,24.7043011 C31.9636364,24.4623656 31.5545455,24.3548387 31.0909091,24.4086022 C30.6545455,24.4892473 30.3,24.7043011 30.1636364,25.1344086 C30.0272727,25.5645161 30.1909091,25.9408602 30.5181818,26.1827957 C30.8181818,26.4247312 31.1727273,26.6129032 31.5,26.8010753 C31.8818182,27.016129 32.2636364,27.2043011 32.6181818,27.4731183 C33.3545455,28.0107527 33.6272727,28.7634409 33.3818182,29.5967742 C33.1636364,30.3763441 32.4272727,31.0215054 31.6090909,31.1290323 C30.6272727,31.2365591 29.7545455,31.0215054 29.0454545,30.2956989 C29.0181818,30.2688172 28.9909091,30.2419355 28.9636364,30.188172 C28.9636364,30.1612903 28.9363636,30.1612903 28.9363636,30.1075269 C29.1272727,29.9193548 29.3181818,29.7043011 29.4272727,29.5698925 C29.9181818,29.811828 30.3545455,30.0806452 30.8454545,30.2419355 C31.3363636,30.4032258 31.8,30.2150538 32.1818182,29.8924731 C32.7545455,29.3817204 32.7272727,28.6290323 32.1272727,28.172043 C31.8,27.9301075 31.4181818,27.7688172 31.0636364,27.5537634 C30.6545455,27.2849462 30.2181818,27.0698925 29.8363636,26.7473118 C29.2363636,26.2365591 29.1545455,25.5645161 29.3727273,24.8655914 C29.5636364,24.1666667 30.1090909,23.7634409 30.8181818,23.6021505 C31.8545455,23.3602151 32.7,23.8172043 33.4909091,24.4892473 L33.4909091,24.4892473 Z" id="Shape" fill="#FFFFFF" sketch:type="MSShapeGroup"></path>
        <path d="M9.27272727,22.2043011 L8.45454545,22.2043011 C8.45454545,22.0698925 8.42727273,21.9623656 8.42727273,21.8548387 L8.42727273,12.5537634 C8.42727273,12.4193548 8.45454545,12.2043011 8.50909091,12.1774194 C8.72727273,12.1505376 8.97272727,12.1505376 9.19090909,12.1774194 C9.24545455,12.1774194 9.27272727,12.3924731 9.27272727,12.5 L9.27272727,17.016129 L9.27272727,21.8010753 L9.27272727,22.2043011 L9.27272727,22.2043011 Z" id="Shape" fill="#FFFFFF" sketch:type="MSShapeGroup"></path>
        <path d="M15.0818182,36.5322581 C15.2181818,36.5860215 15.3545455,36.6397849 15.4636364,36.7473118 C15.9272727,37.2311828 16.7181818,37.3387097 17.2909091,36.9892473 C17.7,36.7473118 17.8909091,36.2365591 17.7545455,35.672043 C17.3181818,36.155914 16.7727273,36.344086 16.1727273,36.1827957 C15.8454545,36.0752688 15.4909091,35.8602151 15.2727273,35.6182796 C14.7818182,35.0537634 14.8636364,34.1397849 15.3818182,33.5752688 C15.7090909,33.2526882 16.0909091,33.0645161 16.5818182,33.0913978 C16.9363636,33.0913978 16.9363636,33.0913978 17.8090909,33.655914 C17.8090909,33.5483871 17.8090909,33.4408602 17.8363636,33.3333333 C17.8636364,33.2795699 17.9181818,33.2258065 17.9727273,33.172043 C18.0272727,33.2258065 18.1363636,33.2795699 18.1363636,33.3602151 C18.1636364,33.5752688 18.1363636,33.7634409 18.1363636,33.9784946 C18.1363636,34.7043011 18.1363636,35.4301075 18.1090909,36.1290323 C18.0818182,36.827957 17.7,37.2580645 17.0181818,37.4193548 C16.2545455,37.6075269 15.4363636,37.3387097 15.1090909,36.7741935 L15.0272727,36.6129032 C15.0272727,36.5860215 15.0545455,36.5591398 15.0818182,36.5322581 L15.0818182,36.5322581 Z M17.8090909,34.6774194 C17.8090909,33.9516129 17.2636364,33.3870968 16.5545455,33.3870968 C15.8181818,33.3870968 15.2454545,33.9784946 15.2454545,34.7043011 C15.2454545,35.4301075 15.7909091,35.9408602 16.5272727,35.9408602 C17.2909091,35.9408602 17.8090909,35.4301075 17.8090909,34.6774194 L17.8090909,34.6774194 Z" id="Shape" fill="#FFFFFF" sketch:type="MSShapeGroup"></path>
        <path d="M34.5818182,33.6827957 C35.5909091,32.9301075 36.3818182,32.9032258 37.0090909,33.5752688 C37.5818182,34.1666667 37.6363636,35.0806452 37.1454545,35.6989247 C36.8181818,36.1021505 36.4090909,36.3172043 35.8909091,36.3172043 C35.3727273,36.3172043 34.9909091,36.1021505 34.6363636,35.7526882 C34.6090909,35.7526882 34.5818182,35.7795699 34.5545455,35.7795699 L34.5545455,36.3172043 L34.5545455,37.1774194 C34.5545455,37.2580645 34.4454545,37.311828 34.4181818,37.3655914 C34.3636364,37.311828 34.2545455,37.2311828 34.2545455,37.1774194 L34.2545455,33.3333333 C34.2545455,33.2795699 34.3363636,33.1989247 34.3909091,33.1451613 C34.4454545,33.1989247 34.5272727,33.2526882 34.5545455,33.3333333 C34.5818182,33.4408602 34.5545455,33.5483871 34.5818182,33.6827957 L34.5818182,33.6827957 Z M35.8363636,35.9946237 C36.5454545,35.9946237 37.1181818,35.4301075 37.1454545,34.7043011 C37.1727273,33.9784946 36.5454545,33.3870968 35.8363636,33.3870968 C35.1,33.3870968 34.5272727,33.9784946 34.5272727,34.7311828 C34.5272727,35.4569892 35.1,35.9946237 35.8363636,35.9946237 L35.8363636,35.9946237 Z" id="Shape" fill="#FFFFFF" sketch:type="MSShapeGroup"></path>
        <path d="M25.2272727,33.0913978 C26.1545455,33.0913978 26.8636364,33.7903226 26.8636364,34.7043011 C26.8636364,35.6182796 26.1818182,36.3172043 25.2545455,36.3172043 C24.3272727,36.3172043 23.6454545,35.6451613 23.6454545,34.7311828 C23.6181818,33.7903226 24.3272727,33.0913978 25.2272727,33.0913978 Z M26.5090909,34.7043011 C26.5090909,33.9784946 25.9363636,33.4139785 25.2545455,33.4139785 C24.5454545,33.4139785 23.9727273,34.0053763 23.9727273,34.7311828 C23.9727273,35.483871 24.5181818,36.0215054 25.2545455,35.9946237 C25.9909091,35.9946237 26.5090909,35.4569892 26.5090909,34.7043011 Z" id="Shape" fill="#FFFFFF" sketch:type="MSShapeGroup"></path>
        <path d="M31.4727273,33.172043 C31.6090909,33.172043 31.6909091,33.172043 31.8545455,33.1451613 C31.8,33.9247312 31.8272727,34.6774194 31.7181818,35.4032258 C31.6090909,36.0483871 31.0363636,36.344086 30.2454545,36.2903226 C29.5909091,36.2365591 29.1545455,35.8602151 29.1,35.2150538 C29.0727273,34.5430108 29.1,33.8709677 29.1,33.172043 C29.1545455,33.172043 29.2363636,33.172043 29.3454545,33.1451613 C29.3727273,33.2258065 29.3727273,33.2526882 29.3727273,33.3064516 L29.3727273,34.9731183 C29.4,35.6989247 29.9454545,36.1021505 30.6545455,35.9677419 C31.1181818,35.8870968 31.3909091,35.5107527 31.4181818,34.9731183 C31.5,34.4086022 31.4727273,33.7903226 31.4727273,33.172043 L31.4727273,33.172043 Z" id="Shape" fill="#FFFFFF" sketch:type="MSShapeGroup"></path>
        <path d="M21.9272727,33.172043 C21.7909091,33.2795699 21.7363636,33.3602151 21.6545455,33.3870968 C21.0818182,33.4677419 20.8090909,33.7096774 20.7818182,34.3010753 C20.7545455,34.8387097 20.7545455,35.3763441 20.7272727,35.9139785 C20.7272727,36.0215054 20.6181818,36.1290323 20.5636364,36.2365591 C20.5090909,36.1290323 20.4272727,36.0483871 20.4272727,35.9408602 L20.4272727,33.4677419 C20.4272727,33.2795699 20.4272727,33.1182796 20.7272727,33.1989247 C20.7545455,33.3064516 20.7818182,33.4139785 20.8090909,33.6021505 C21.0818182,33.2526882 21.3545455,32.9569892 21.9272727,33.172043 L21.9272727,33.172043 Z" id="Shape" fill="#FFFFFF" sketch:type="MSShapeGroup"></path>
    </g>
</svg>