<?xml version="1.0" encoding="UTF-8" standalone="no"?>
<svg width="100%" height="100%" viewBox="0 0 122 99" version="1.1" xmlns="http://www.w3.org/2000/svg" xmlns:xlink="http://www.w3.org/1999/xlink" xmlns:sketch="http://www.bohemiancoding.com/sketch/ns">
    <title>Slice 1</title>
    <description>Created with Sketch (http://www.bohemiancoding.com/sketch)</description>
    <defs></defs>
    <g id="Page-1" stroke="none" stroke-width="1" fill="none" fill-rule="evenodd" sketch:type="MSPage">
        <g id="easy-designs" sketch:type="MSLayerGroup">
            <g id="Page-1">
                <g id="EasyDesigns-CMYK-300RV">
                    <path d="M30.161,14.675 C28.408,13.713 17.472,13.824 17.472,13.824 C17.472,13.824 6.529,13.713 4.775,14.675 C4.775,14.675 3.744,15.328 3.747,22.645 C3.744,30.013 4.775,30.67 4.775,30.67 C6.529,31.639 17.472,31.528 17.472,31.528 C17.472,31.528 28.408,31.639 30.161,30.67 C30.161,30.67 31.191,30.013 31.188,22.645 C31.191,15.328 30.161,14.675 30.161,14.675" id="Fill-1" fill="#FFFFFF" sketch:type="MSShapeGroup"></path>
                    <path d="M112.35,2.622 L112.234,2.549 C109.66,1.14 100.743,0.419 85.724,0.419 C84.379,0.419 83.564,0.43 83.553,0.43 C83.522,0.43 82.695,0.419 81.35,0.419 C66.322,0.419 57.393,1.14 54.82,2.549 L54.714,2.622 C52.564,3.978 51.473,10.428 51.484,21.792 C51.484,23.032 51.495,24.217 51.526,25.34 C53.189,25.319 54.65,25.308 55.762,25.308 C55.73,24.226 55.72,23.063 55.72,21.792 C55.71,10.533 56.843,6.996 57.246,6.106 C59.437,5.365 67.455,4.655 81.35,4.655 C82.695,4.655 83.511,4.666 83.564,4.666 C83.564,4.666 84.379,4.655 85.724,4.655 C99.61,4.655 107.616,5.365 109.809,6.106 C110.211,6.996 111.344,10.533 111.344,21.792 C111.344,33.145 110.211,36.704 109.809,37.604 C107.616,38.356 99.61,39.055 85.735,39.055 L85.173,39.055 C85.206,40.22 85.227,41.491 85.227,42.89 L85.227,43.291 L85.735,43.291 C100.753,43.291 109.67,42.571 112.245,41.152 L112.361,41.078 C114.5,39.712 115.581,33.229 115.581,21.792 C115.581,10.428 114.489,3.978 112.35,2.622" id="Fill-2" fill="#FFFFFF" sketch:type="MSShapeGroup"></path>
                    <path d="M57.246,37.604 C56.896,36.799 55.953,33.908 55.762,25.308 C57.097,25.308 57.913,25.319 57.913,25.319 C57.913,25.319 79.698,25.106 83.183,27.014 C83.183,27.014 84.867,28.072 85.173,39.055 L81.34,39.055 C67.455,39.055 59.437,38.356 57.246,37.604" id="Fill-3" fill="#FFFFFF" sketch:type="MSShapeGroup"></path>
                    <path d="M85.227,43.291 C85.195,57.589 83.183,58.871 83.183,58.871 C79.698,60.799 57.913,60.576 57.913,60.576 C57.913,60.576 36.127,60.799 32.632,58.871 C32.632,58.871 30.578,57.558 30.578,42.89 C30.578,28.317 32.632,27.014 32.632,27.014 C34.888,25.785 44.801,25.435 51.526,25.34 C51.717,34.575 52.797,39.871 54.703,41.078 L54.82,41.152 C57.393,42.571 66.312,43.291 81.34,43.291 L85.227,43.291" id="Fill-4" fill="#FFFFFF" sketch:type="MSShapeGroup"></path>
                    <path d="M56.129,81.703 C55.55,81.444 54.442,81.174 53.577,81.174 C50.762,81.174 49.13,82.942 49.13,86.128 C49.13,89.076 50.31,90.445 52.42,90.445 C53.66,90.445 54.816,89.919 56.129,88.762 L56.129,81.703 L56.129,81.703 Z M58.239,91.949 L56.398,92.344 L56.129,92.344 L56.129,90.734 C54.895,91.66 53.765,92.344 51.946,92.344 C49.235,92.344 46.915,90.55 46.915,86.444 C46.915,82.414 49.02,79.284 53.682,79.284 C54.442,79.284 55.264,79.413 56.129,79.601 L56.129,73.228 L57.975,72.834 L58.239,72.834 L58.239,91.949 L58.239,91.949 Z" id="Fill-5" fill="#FFFFFF" sketch:type="MSShapeGroup"></path>
                    <path d="M62.35,84.599 L68.587,84.599 L68.587,84.257 C68.587,82.599 67.69,81.174 65.744,81.174 C63.898,81.174 62.587,82.524 62.35,84.599 L62.35,84.599 L62.35,84.599 Z M62.295,86.393 C62.454,89.604 64.322,90.423 66.609,90.423 C67.898,90.423 69.216,90.101 70.511,89.497 L70.511,91.439 C69.216,92.023 67.69,92.344 65.871,92.344 C62.691,92.344 60.052,90.476 60.052,85.656 C60.052,82.392 62.107,79.284 65.821,79.284 C69.48,79.284 70.901,81.992 70.901,84.599 C70.901,85.42 70.847,85.894 70.797,86.393 L62.295,86.393 L62.295,86.393 Z" id="Fill-6" fill="#FFFFFF" sketch:type="MSShapeGroup"></path>
                    <path d="M72.142,90.002 L72.351,90.002 C73.585,90.261 74.692,90.445 75.772,90.445 C77.404,90.445 78.589,90.049 78.589,88.654 C78.589,86.072 72.191,87.101 72.191,82.835 C72.191,80.518 74.352,79.284 77.063,79.284 C78.143,79.284 79.223,79.438 80.22,79.758 L80.22,81.703 L80.01,81.703 C78.875,81.337 77.905,81.174 77.035,81.174 C75.745,81.174 74.406,81.469 74.406,82.835 C74.406,85.29 80.798,84.312 80.798,88.447 C80.798,91.439 78.379,92.344 75.695,92.344 C74.373,92.344 73.062,92.156 72.142,91.949 L72.142,90.002" id="Fill-7" fill="#FFFFFF" sketch:type="MSShapeGroup"></path>
                    <path d="M82.539,92.023 L82.539,79.678 L84.386,79.284 L84.645,79.284 L84.645,92.023 L82.539,92.023 L82.539,92.023 Z M82.248,76.625 L82.248,73.724 L84.909,73.724 L84.909,75.991 L82.248,76.625 L82.248,76.625 Z" id="Fill-8" fill="#FFFFFF" sketch:type="MSShapeGroup"></path>
                    <path d="M91.885,87.101 C93.434,87.101 94.783,86.1 94.783,84.051 C94.783,81.992 93.434,80.995 91.885,80.995 C90.331,80.995 88.965,81.992 88.965,84.051 C88.965,86.1 90.331,87.101 91.885,87.101 L91.885,87.101 L91.885,87.101 Z M89.593,93.055 C89.047,93.655 88.673,94.628 88.673,95.446 C88.673,96.556 89.643,97.157 91.913,97.157 C94.414,97.157 96.205,96.049 96.205,94.474 C96.205,92.63 93.857,93.076 89.593,93.055 L89.593,93.055 L89.593,93.055 Z M90.227,88.627 C89.935,89.104 89.543,89.811 89.543,90.476 C89.543,92.344 98.388,88.47 98.388,94.239 C98.388,96.658 96.569,99 91.621,99 C87.593,99 86.54,97.581 86.54,96 C86.54,94.737 87.383,93.368 88.227,92.655 C87.752,92.365 87.593,91.787 87.593,91.156 C87.593,90.211 88.017,89.104 88.777,88.048 C87.516,87.288 86.777,85.948 86.777,84.051 C86.777,81.496 88.882,79.284 91.885,79.284 C92.414,79.284 93.516,79.413 94.227,79.65 L98.993,79.65 L98.993,81.257 L96.123,81.257 C96.624,82.02 96.966,83.307 96.966,84.051 C96.966,87.101 94.596,88.814 91.885,88.814 C91.301,88.814 90.728,88.762 90.227,88.627 L90.227,88.627 L90.227,88.627 Z" id="Fill-9" fill="#FFFFFF" sketch:type="MSShapeGroup"></path>
                    <path d="M108.708,92.023 L108.708,83.709 C108.708,81.758 107.838,81.174 106.625,81.174 C105.496,81.174 103.76,81.81 102.123,82.758 L102.123,92.023 L100.019,92.023 L100.019,79.678 L101.6,79.284 L101.887,79.284 L102.102,80.995 C104.047,79.832 105.286,79.284 106.868,79.284 C109.022,79.284 110.818,80.411 110.818,83.549 L110.818,92.023 L108.708,92.023" id="Fill-10" fill="#FFFFFF" sketch:type="MSShapeGroup"></path>
                    <g id="Group-14">
                        <g id="Clip-12"></g>
                        <path d="M112.687,90.002 L112.891,90.002 C114.131,90.261 115.238,90.445 116.318,90.445 C117.949,90.445 119.134,90.049 119.134,88.654 C119.134,86.072 112.736,87.101 112.736,82.835 C112.736,80.518 114.891,79.284 117.607,79.284 C118.688,79.284 119.768,79.438 120.765,79.758 L120.765,81.703 L120.556,81.703 C119.426,81.337 118.45,81.174 117.574,81.174 C116.291,81.174 114.946,81.469 114.946,82.835 C114.946,85.29 121.344,84.312 121.344,88.447 C121.344,91.439 118.925,92.344 116.241,92.344 C114.918,92.344 113.607,92.156 112.687,91.949 L112.687,90.002" id="Fill-11" fill="#FFFFFF" sketch:type="MSShapeGroup"></path>
                        <path d="M2.375,73.801 L8.844,73.801 L8.844,73.448 C8.844,71.726 7.913,70.258 5.891,70.258 C3.984,70.258 2.617,71.641 2.375,73.801 L2.375,73.801 L2.375,73.801 Z M2.32,75.652 C2.479,78.986 4.419,79.827 6.794,79.827 C8.133,79.827 9.489,79.504 10.833,78.876 L10.833,80.891 C9.489,81.499 7.913,81.824 6.034,81.824 C2.733,81.824 0,79.885 0,74.893 C0,71.506 2.127,68.291 5.979,68.291 C9.77,68.291 11.241,71.096 11.241,73.801 C11.241,74.644 11.186,75.14 11.131,75.652 L2.32,75.652 L2.32,75.652 Z" id="Fill-13" fill="#FFFFFF" sketch:type="MSShapeGroup"></path>
                    </g>
                    <path d="M19.991,75.52 L16.47,76.035 C15.545,76.171 14.514,76.551 14.514,78.03 C14.514,79.097 15.247,79.827 16.366,79.827 C17.567,79.827 18.934,79.061 19.991,78.303 L19.991,75.52 L19.991,75.52 Z M22.174,81.411 L20.405,81.769 L20.102,81.769 L20.102,79.967 L20.047,79.967 C18.9,80.838 17.512,81.741 15.627,81.741 C13.963,81.741 12.216,80.537 12.216,78.192 C12.216,75.024 15.054,74.589 16.586,74.374 L19.991,73.911 L19.991,73.038 C19.991,70.853 18.956,70.258 17.071,70.258 C16.366,70.258 14.591,70.47 13.142,71.123 L12.899,69.109 C14.096,68.644 15.98,68.291 17.484,68.291 C20.185,68.291 22.174,69.401 22.174,73.038 L22.174,81.411 L22.174,81.411 Z" id="Fill-15" fill="#FFFFFF" sketch:type="MSShapeGroup"></path>
                    <path d="M23.998,79.389 L24.218,79.389 C25.502,79.667 26.643,79.857 27.767,79.857 C29.458,79.857 30.688,79.449 30.688,78.003 C30.688,75.327 24.053,76.391 24.053,71.972 C24.053,69.569 26.29,68.291 29.1,68.291 C30.219,68.291 31.337,68.448 32.379,68.778 L32.379,70.792 L32.158,70.792 C30.984,70.418 29.977,70.258 29.072,70.258 C27.739,70.258 26.345,70.547 26.345,71.972 C26.345,74.507 32.979,73.501 32.979,77.782 C32.979,80.891 30.467,81.824 27.684,81.824 C26.323,81.824 24.951,81.632 23.998,81.411 L23.998,79.389" id="Fill-16" fill="#FFFFFF" sketch:type="MSShapeGroup"></path>
                    <path d="M34.12,87.062 C36.495,85.37 37.057,84.816 37.955,82.601 L38.187,81.692 L38.209,81.692 L33.674,68.668 L36.187,68.668 L39.41,78.986 L39.598,78.986 L43.118,68.668 L45.604,68.668 L40.661,82.314 C39.521,85.588 38.099,87.169 35.751,88.645 L34.12,87.062" id="Fill-17" fill="#FFFFFF" sketch:type="MSShapeGroup"></path>
                </g>
            </g>
        </g>
    </g>
</svg>