<?xml version="1.0" encoding="UTF-8" standalone="no"?>
<svg width="100%" height="100%" viewBox="0 0 117 117" version="1.1" xmlns="http://www.w3.org/2000/svg" xmlns:xlink="http://www.w3.org/1999/xlink" xmlns:sketch="http://www.bohemiancoding.com/sketch/ns">
    <title>Slice 1</title>
    <description>Created with Sketch (http://www.bohemiancoding.com/sketch)</description>
    <defs></defs>
    <g id="Page-1" stroke="none" stroke-width="1" fill="none" fill-rule="evenodd" sketch:type="MSPage">
        <g id="tub_on_white" sketch:type="MSLayerGroup" transform="translate(-594.000000, 1.000000)">
            <path d="M594.031,-0.021 L710.065,-0.021 L710.065,116 L594.031,116 L594.031,-0.021 Z" id="Fill-1" fill="#FFFFFF" sketch:type="MSShapeGroup"></path>
            <path d="M594.031,-0.021 L710.052,-0.021 L710.052,116 L594.031,116 L594.031,-0.021 Z" id="Fill-2" fill="#257382" sketch:type="MSShapeGroup"></path>
            <g id="Group-6" transform="translate(594.000000, 0.000000)" fill="#FFFFFF" sketch:type="MSShapeGroup">
                <path d="M101.028,43.633 C81.169,47.329 76.53,57.954 76.081,60.288 C74.479,69.114 84.499,72.528 84.499,72.528 L84.499,81.257 L38.119,81.257 L38.119,72.402 C50.347,69.746 62.124,55.242 44.585,52.501 C27.044,49.76 17.655,41.651 15.97,40.414 C14.241,39.149 15.52,38.882 15.52,38.882 C15.52,38.882 39.3,38.924 40.003,38.924 C40.831,38.924 41.999,39.346 43.587,41.37 C45.132,43.408 46.2,46.148 46.2,46.148 L46.2,34.722 L101.028,34.722 L101.028,43.633 L101.028,43.633 Z M0.031,-0.021 L0.031,116 L116.065,116 L116.08,-0.021 L0.031,-0.021 L0.031,-0.021 Z" id="Fill-3"></path>
            </g>
        </g>
    </g>
</svg>