<?xml version="1.0" encoding="UTF-8" standalone="no"?>
<svg width="42px" height="34px" viewBox="0 0 42 34" version="1.1" xmlns="http://www.w3.org/2000/svg" xmlns:xlink="http://www.w3.org/1999/xlink" xmlns:sketch="http://www.bohemiancoding.com/sketch/ns">
    <title>calendar</title>
    <description>Created with Sketch (http://www.bohemiancoding.com/sketch)</description>
    <defs></defs>
    <g id="Page-1" stroke="none" stroke-width="1" fill="none" fill-rule="evenodd" sketch:type="MSPage">
        <g id="Rectangle-1-+-icon_404" sketch:type="MSLayerGroup">
            <rect id="Rectangle-1" fill="#FF6C2C" sketch:type="MSShapeGroup" x="0" y="0" width="42" height="34" rx="4"></rect>
            <g id="icon_1850" transform="translate(5.000000, 4.000000)" fill="#FFFFFF" sketch:type="MSShapeGroup">
                <path d="M26.14272,11.5945263 C25.61312,11.5057895 25.06144,11.4568421 24.49568,11.4568421 C23.97216,11.4568421 23.5472,11.8762105 23.5472,12.3925263 L23.5472,23.0292632 C23.5472,23.5455789 23.97216,23.9652632 24.49568,23.9652632 C25.06176,23.9652632 25.61312,23.9166316 26.14272,23.8275789 L26.14272,11.5945263 L26.14272,11.5945263 Z" id="Shape"></path>
                <path d="M27.88736,12.0641053 L27.88736,23.358 C30.32576,22.4321053 32,20.5424211 32,18.3653684 L32,17.0561053 C32,14.8796842 30.32576,12.9896842 27.88736,12.0641053 L27.88736,12.0641053 Z" id="Shape"></path>
                <path d="M15.66144,1.75642105 L16.33856,1.75642105 C21.59488,1.75642105 25.8976,6.12694737 26.1328,11.592 L27.88768,12.0644211 C27.88768,5.43126316 22.70752,0.0350526316 16.33824,0.0350526316 L15.66112,0.0350526316 L15.65152,0.0350526316 C9.2832,0.0350526316 4.1024,5.43126316 4.1024,12.0644211 L5.85728,11.592 C6.09248,6.12694737 10.3952,1.75642105 15.6512,1.75642105 L15.66144,1.75642105 L15.66144,1.75642105 Z" id="Shape"></path>
                <path d="M5.85728,11.5945263 C6.38816,11.5057895 6.93856,11.4568421 7.50464,11.4568421 C8.02848,11.4568421 8.45312,11.8762105 8.45312,12.3925263 L8.45312,23.0292632 C8.45312,23.5455789 8.02848,23.9652632 7.50464,23.9652632 C6.93856,23.9652632 6.38816,23.9166316 5.85728,23.8275789 L5.85728,11.5945263 L5.85728,11.5945263 Z" id="Shape"></path>
                <path d="M4.11296,12.0641053 L4.11296,23.358 C1.67488,22.4321053 0,20.5424211 0,18.3653684 L0,17.0561053 C0,14.8796842 1.67488,12.9896842 4.11296,12.0641053 L4.11296,12.0641053 Z" id="Shape"></path>
            </g>
        </g>
    </g>
</svg>