<?xml version="1.0" encoding="UTF-8" standalone="no"?>
<svg width="42px" height="34px" viewBox="0 0 42 34" version="1.1" xmlns="http://www.w3.org/2000/svg" xmlns:xlink="http://www.w3.org/1999/xlink" xmlns:sketch="http://www.bohemiancoding.com/sketch/ns">
    <title>calendar</title>
    <description>Created with Sketch (http://www.bohemiancoding.com/sketch)</description>
    <defs></defs>
    <g id="Page-1" stroke="none" stroke-width="1" fill="none" fill-rule="evenodd" sketch:type="MSPage">
        <g id="Rectangle-1-+-icon_404-copy" sketch:type="MSLayerGroup">
            <rect id="Rectangle-1" fill="#FF6C2C" sketch:type="MSShapeGroup" x="0" y="0" width="42" height="34" rx="4"></rect>
            <g id="icon_404" transform="translate(10.500000, 4.000000)" fill="#FFFFFF" sketch:type="MSShapeGroup">
                <path d="M0,7.68 L0,22.05744 C0,23.13048 0.854795455,24 1.90909091,24 L19.0909091,24 C20.1452045,24 21,23.13048 21,22.05744 L21,7.68 L0,7.68 L0,7.68 Z M5.25,22.56 L1.43181818,22.56 L1.43181818,18.72 L5.25,18.72 L5.25,22.56 L5.25,22.56 Z M5.25,17.76 L1.43181818,17.76 L1.43181818,13.92 L5.25,13.92 L5.25,17.76 L5.25,17.76 Z M5.25,12.96 L1.43181818,12.96 L1.43181818,9.12 L5.25,9.12 L5.25,12.96 L5.25,12.96 Z M10.0227273,22.56 L6.20454545,22.56 L6.20454545,18.72 L10.0227273,18.72 L10.0227273,22.56 L10.0227273,22.56 Z M10.0227273,17.76 L6.20454545,17.76 L6.20454545,13.92 L10.0227273,13.92 L10.0227273,17.76 L10.0227273,17.76 Z M10.0227273,12.96 L6.20454545,12.96 L6.20454545,9.12 L10.0227273,9.12 L10.0227273,12.96 L10.0227273,12.96 Z M14.7954545,22.56 L10.9772727,22.56 L10.9772727,18.72 L14.7954545,18.72 L14.7954545,22.56 L14.7954545,22.56 Z M14.7954545,17.76 L10.9772727,17.76 L10.9772727,13.92 L14.7954545,13.92 L14.7954545,17.76 L14.7954545,17.76 Z M14.7954545,12.96 L10.9772727,12.96 L10.9772727,9.12 L14.7954545,9.12 L14.7954545,12.96 L14.7954545,12.96 Z M19.5681818,22.56 L15.75,22.56 L15.75,18.72 L19.5681818,18.72 L19.5681818,22.56 L19.5681818,22.56 Z M19.5681818,17.76 L15.75,17.76 L15.75,13.92 L19.5681818,13.92 L19.5681818,17.76 L19.5681818,17.76 Z M19.5681818,12.96 L15.75,12.96 L15.75,9.12 L19.5681818,9.12 L19.5681818,12.96 L19.5681818,12.96 Z" id="Shape"></path>
                <path d="M19.0909091,2.88 L15.9886364,2.88 L15.9886364,0.72 C15.9886364,0.32232 15.6679091,0 15.2727273,0 C14.8773068,0 14.5568182,0.32232 14.5568182,0.72 L14.5568182,2.88 L6.44318182,2.88 L6.44318182,0.72 C6.44318182,0.32232 6.12245455,0 5.72727273,0 C5.33185227,0 5.01136364,0.32232 5.01136364,0.72 L5.01136364,2.88 L1.90909091,2.88 C0.854795455,2.88 0,3.74952 0,4.82232 L0,6.48 L0,6.72 L21,6.72 L21,6.48 L21,4.82232 C21,3.74952 20.1452045,2.88 19.0909091,2.88 L19.0909091,2.88 Z M5.72727273,6.24 C4.93667045,6.24 4.29545455,5.59512 4.29545455,4.8 C4.29545455,4.26744 4.58396591,3.80352 5.01136364,3.5544 L5.01136364,4.8 C5.01136364,5.19768 5.33185227,5.52 5.72727273,5.52 C6.12245455,5.52 6.44318182,5.19768 6.44318182,4.8 L6.44318182,3.55416 C6.87081818,3.80328 7.15909091,4.26744 7.15909091,4.8 C7.15909091,5.59512 6.51811364,6.24 5.72727273,6.24 L5.72727273,6.24 Z M15.2727273,6.24 C14.482125,6.24 13.8409091,5.59512 13.8409091,4.8 C13.8409091,4.26744 14.1294205,3.80352 14.5568182,3.5544 L14.5568182,4.8 C14.5568182,5.19768 14.8773068,5.52 15.2727273,5.52 C15.6679091,5.52 15.9886364,5.19768 15.9886364,4.8 L15.9886364,3.55416 C16.4162727,3.80328 16.7045455,4.26744 16.7045455,4.8 C16.7045455,5.59512 16.0635682,6.24 15.2727273,6.24 L15.2727273,6.24 Z" id="Shape"></path>
            </g>
        </g>
    </g>
</svg>