<?xml version="1.0" encoding="UTF-8" standalone="no"?>
<svg width="49px" height="48px" viewBox="0 0 49 48" version="1.1" xmlns="http://www.w3.org/2000/svg" xmlns:xlink="http://www.w3.org/1999/xlink" xmlns:sketch="http://www.bohemiancoding.com/sketch/ns">
    <title>Slice 1</title>
    <description>Created with Sketch (http://www.bohemiancoding.com/sketch)</description>
    <defs>
        <path id="path-1" d="M47.931,41.993 C47.931,45.297 45.242,47.976 41.929,47.976 L5.918,47.976 C2.603,47.976 -0.083,45.293 -0.083,41.993 L-0.083,6.072 C-0.083,2.764 2.604,0.084 5.918,0.084 L41.929,0.084 C45.241,0.084 47.931,2.765 47.931,6.072 L47.931,41.993 L47.931,41.993 Z"></path>
    </defs>
    <g id="Page-1" stroke="none" stroke-width="1" fill="none" fill-rule="evenodd" sketch:type="MSPage">
        <g id="webicon-facebook" sketch:type="MSLayerGroup" transform="translate(1.000000, 0.000000)">
            <g id="Shape">
                <use fill="none" sketch:type="MSShapeGroup" xlink:href="#path-1"></use>
                <use fill="#FFFFFF" fill-rule="evenodd" xlink:href="#path-1"></use>
                <use fill="none" xlink:href="#path-1"></use>
            </g>
            <path d="M41.9664666,3.00116771 L34.8365729,3.00116771 C30.6021144,3.00116771 25.8958758,4.79360095 25.8958758,10.9824584 C25.9178459,13.1368814 25.8958758,15.2013909 25.8958758,17.5251317 L21,17.5251317 L21,25.3814775 L26.0485105,25.3814775 L26.0485105,48 L35.3233853,48 L35.3233853,25.2308431 L41.4461208,25.2308431 L42,17.5029452 L35.1626562,17.5029452 C35.1626562,17.5029452 35.1811574,14.0628746 35.1626562,13.0656512 C35.1626562,10.6216363 37.6880678,10.7605937 37.8360773,10.7605937 C39.0409669,10.7605937 41.3732724,10.7640968 41.9734045,10.7605937 L41.9734045,3 L41.9664666,3 L41.9664666,3.00116771 Z" id="Shape" fill="#6ABBB8" sketch:type="MSShapeGroup"></path>
        </g>
    </g>
</svg>