<?xml version="1.0" encoding="UTF-8" standalone="no"?>
<svg width="48px" height="48px" viewBox="0 0 48 48" version="1.1" xmlns="http://www.w3.org/2000/svg" xmlns:xlink="http://www.w3.org/1999/xlink" xmlns:sketch="http://www.bohemiancoding.com/sketch/ns">
    <title>Slice 1</title>
    <description>Created with Sketch (http://www.bohemiancoding.com/sketch)</description>
    <defs>
        <path id="path-1" d="M50,42 C50,45.313 47.313,48 44,48 L8,48 C4.687,48 2,45.313 2,42 L2,6 C2,2.687 4.687,0 8,0 L44,0 C47.313,0 50,2.687 50,6 L50,42 L50,42 Z"></path>
    </defs>
    <g id="Page-1" stroke="none" stroke-width="1" fill="none" fill-rule="evenodd" sketch:type="MSPage">
        <g id="webicon-googleplus" sketch:type="MSLayerGroup" transform="translate(-2.000000, 0.000000)">
            <g id="Shape">
                <use fill="#FFFFFF" fill-rule="evenodd" sketch:type="MSShapeGroup" xlink:href="#path-1"></use>
                <use fill="none" xlink:href="#path-1"></use>
            </g>
            <path d="M23.8430588,29.7733846 C22.8291765,29.3413462 21.8225882,29.1027308 20.8196471,29.0593462 C20.1212353,29.0376538 18.9395882,28.9725769 17.2728824,28.8659231 C15.6043529,28.7574615 14.2932353,28.6923846 13.3340588,28.6725 C12.4405294,28.6508077 11.5743529,28.6182692 10.7355294,28.5730769 C9.89670588,28.5315 9.16,28.4230385 8.52905882,28.2495 C7.87441176,28.0976538 7.31823529,27.8120385 6.86052941,27.3890385 C6.40282353,26.9696538 6.17488235,26.3586538 6.17488235,25.5578462 C6.17488235,24.7805385 6.44658824,24.1641154 6.99182353,23.7121923 C7.53705882,23.2602692 8.05858824,22.9457308 8.56005882,22.7721923 L12.5152941,22.7721923 C15.5660588,22.7721923 18.2411765,21.7996538 20.5406471,19.8563846 C22.8401176,17.9113077 23.9889412,15.536 23.9889412,12.7268462 C23.9889412,11.6476538 23.7938235,10.5449615 23.4017647,9.42057692 C23.0097059,8.298 22.4097647,7.27123077 21.6037647,6.34207692 L21.6037647,6.14865385 L29.1878235,6.14865385 L29.1878235,3.03761538 L17.9421176,3.03761538 C16.9391765,2.73573077 15.9526471,2.48626923 14.9825294,2.29284615 C14.0124118,2.09942308 13.0368235,2 12.0575882,2 C8.50535294,2 5.58952941,2.97253846 3.31376471,4.91761538 C1.03617647,6.86269231 -0.103529412,9.34646154 -0.103529412,12.3707308 C-0.103529412,14.3808846 0.472705882,16.147 1.62882353,17.6690769 C2.78311765,19.1929615 4.40605882,20.4402692 6.49947059,21.4128077 L6.49947059,21.8990769 C4.84370588,22.5896154 3.60735294,23.4175385 2.78858824,24.3774231 C1.97164706,25.3391154 1.56317647,26.3911923 1.56317647,27.5372692 C1.56317647,28.4447308 1.73823529,29.2057692 2.08652941,29.8221923 C2.43482353,30.4386154 2.89252941,30.9736923 3.45964706,31.4274231 C3.96111765,31.8160769 4.55923529,32.1559231 5.25764706,32.4469615 C5.95423529,32.738 6.63076471,32.9820385 7.28358824,33.1754615 L7.28358824,33.6291923 C4.58111765,33.7394615 2.35823529,34.4281923 0.614941176,35.7026154 C-1.12835294,36.9770385 -2,38.7160385 -2,40.9214231 C-2,43.6438077 -0.789176471,45.71 1.62882353,47.1272308 C4.04682353,48.5444615 7.69752941,49.2512692 12.5791176,49.2512692 C15.5642353,49.2512692 18.0715882,48.9692692 20.0993529,48.4070769 C22.1271176,47.8448846 23.8685882,47.0567308 25.3292353,46.0408077 C26.7023529,45.0465769 27.7253529,43.8751923 28.4037059,42.5248462 C29.0784118,41.1745 29.4175882,39.7337692 29.4175882,38.1990385 C29.4175882,36.6643077 29.1659412,35.3790385 28.6662941,34.3414231 C28.1648235,33.3056154 27.4773529,32.3764615 26.6057059,31.5539615 C25.7778235,30.8001538 24.8569412,30.2054231 23.8430588,29.7733846 L23.8430588,29.7733846 Z M16.259,18.2855 C15.2451176,19.7876923 13.8008824,20.5378846 11.9281176,20.5378846 C10.2504706,20.5378846 8.88282353,19.7822692 7.82517647,18.2692308 C6.76752941,16.758 6.24052941,14.8020769 6.24052941,12.4032692 C6.24052941,11.3457692 6.33352941,10.3135769 6.51770588,9.3085 C6.70188235,8.30342308 7.01188235,7.44476923 7.44952941,6.73253846 C7.90723529,5.95523077 8.50170588,5.35507692 9.23111765,4.93388462 C9.96052941,4.51269231 10.8376471,4.30119231 11.8624706,4.30119231 C13.7352353,4.30119231 15.1904118,5.05319231 16.2261765,6.55357692 C17.2601176,8.05576923 17.7798235,10.0695385 17.7798235,12.5966923 C17.7798235,14.8870385 17.2728824,16.7833077 16.259,18.2855 L16.259,18.2855 Z M21.2937647,44.9561923 C19.452,46.1781923 16.9282353,46.7873846 13.7261176,46.7873846 C11.8734118,46.7873846 10.3051765,46.6084231 9.01776471,46.2541154 C7.73217647,45.898 6.70735294,45.4388462 5.94511765,44.8748462 C5.13911765,44.2927692 4.572,43.6546538 4.24558824,42.9623077 C3.91917647,42.2717692 3.75505882,41.5486923 3.75505882,40.7912692 C3.75505882,39.1065 4.25105882,37.7308462 5.24305882,36.6606923 C6.23323529,35.5905385 7.90723529,34.8276923 10.2614118,34.3739615 C12.7669412,34.3739615 14.9697647,34.4281923 16.8644118,34.5366538 C18.7608824,34.6469231 20.0136471,34.7427308 20.6245294,34.8276923 C21.7788235,35.1078846 22.6395294,35.6375385 23.2084706,36.4166538 C23.7755882,37.1957692 24.0582353,38.1863846 24.0582353,39.3975385 C24.0545882,41.8813077 23.1355294,43.736 21.2937647,44.9561923 L21.2937647,44.9561923 Z" id="Shape" fill="#6ABAB8" sketch:type="MSShapeGroup"></path>
            <path d="M37.541875,12.10875 L37.541875,18.680625 L40.106875,18.680625 L40.106875,12.10875 L46.64875,12.10875 L46.64875,9.586875 L40.106875,9.586875 L40.106875,3 L37.541875,3 L37.541875,9.586875 L31,9.586875 L31,12.10875 L37.541875,12.10875 L37.541875,12.10875 Z" id="Shape" fill="#6ABBB8" sketch:type="MSShapeGroup"></path>
        </g>
    </g>
</svg>