<?xml version="1.0" encoding="UTF-8" standalone="no"?>
<svg width="49px" height="49px" viewBox="0 0 49 49" version="1.1" xmlns="http://www.w3.org/2000/svg" xmlns:xlink="http://www.w3.org/1999/xlink" xmlns:sketch="http://www.bohemiancoding.com/sketch/ns">
    <title>Slice 1</title>
    <description>Created with Sketch (http://www.bohemiancoding.com/sketch)</description>
    <defs></defs>
    <g id="Page-1" stroke="none" stroke-width="1" fill="none" fill-rule="evenodd" sketch:type="MSPage">
        <g id="webicon-instagram" sketch:type="MSLayerGroup" transform="translate(0.000000, 1.000000)" fill="#FFFFFF">
            <path d="M42.2584483,0 L6.49844828,0 C3.16658621,0 0.467,2.70124138 0.467,6.03144828 L0.467,42.2234483 C0.467,45.5553103 3.16658621,48.2548966 6.49844828,48.2548966 L42.2584483,48.2548966 C45.5903103,48.2548966 48.2898966,45.5553103 48.2898966,42.2234483 L48.2898966,6.03144828 C48.2898966,2.70124138 45.5903103,0 42.2584483,0 L42.2584483,0 Z M34.2176207,24.1291034 C34.2176207,29.5547586 29.8032759,33.9691034 24.3792759,33.9691034 C18.9536207,33.9691034 14.5392759,29.5547586 14.5392759,24.1291034 C14.5392759,22.4971034 14.9447931,20.9627586 15.6498966,19.6055172 C17.2918276,16.4524138 20.5839655,14.2891034 24.3792759,14.2891034 C28.172931,14.2891034 31.4667241,16.4507586 33.107,19.6055172 C33.8121034,20.9611034 34.2176207,22.4971034 34.2176207,24.1291034 L34.2176207,24.1291034 Z M42.9039655,40.3977931 C42.9039655,41.7633103 41.7966552,42.8706207 40.4311379,42.8706207 L8.53762069,42.8706207 C7.17210345,42.8706207 6.0647931,41.7633103 6.0647931,40.3977931 L6.0647931,19.6038621 L10.1447931,19.6038621 C9.68962069,21.0322759 9.43968966,22.550069 9.43968966,24.1274483 C9.43968966,32.3635862 16.1398276,39.0637241 24.3759655,39.0637241 C32.6121034,39.0637241 39.3122414,32.3635862 39.3122414,24.1274483 C39.3122414,22.550069 39.0623103,21.0322759 38.6071379,19.6038621 L42.9023103,19.6038621 L42.9023103,40.3977931 L42.9039655,40.3977931 Z M42.9039655,11.817931 C42.9039655,13.1834483 41.7966552,14.2907586 40.4311379,14.2907586 L36.6854828,14.2907586 C35.3199655,14.2907586 34.2126552,13.1834483 34.2126552,11.817931 L34.2126552,7.73131034 C34.2126552,6.64717241 34.9144483,5.73682759 35.8860345,5.40248276 L40.4294828,5.40248276 C41.795,5.40248276 42.9023103,6.5097931 42.9023103,7.87531034 L42.9023103,11.817931 L42.9039655,11.817931 Z" id="Shape" sketch:type="MSShapeGroup"></path>
        </g>
    </g>
</svg>