<?xml version="1.0" encoding="UTF-8" standalone="no"?>
<svg width="48px" height="48px" viewBox="0 0 48 48" version="1.1" xmlns="http://www.w3.org/2000/svg" xmlns:xlink="http://www.w3.org/1999/xlink" xmlns:sketch="http://www.bohemiancoding.com/sketch/ns">
    <title>Slice 1</title>
    <description>Created with Sketch (http://www.bohemiancoding.com/sketch)</description>
    <defs>
        <path id="path-1" d="M0.005625,0 L48,0 L48,48 L0.005625,48 L0.005625,0 Z"></path>
        <mask id="mask-2" sketch:name="Clip 2" fill="white">
            <use xlink:href="#path-1"></use>
        </mask>
    </defs>
    <g id="Page-1" stroke="none" stroke-width="1" fill="none" fill-rule="evenodd" sketch:type="MSPage">
        <g id="Lanyrd_Icon_512" sketch:type="MSLayerGroup">
            <g id="Group-3">
                <path d="M48,42 C48,45.313 45.313,48 42,48 L6,48 C2.687,48 0,45.313 0,42 L0,6 C0,2.687 2.687,0 6,0 L42,0 C45.313,0 48,2.687 48,6 L48,42 L48,42 Z" id="Shape" fill="#FFFFFF" sketch:type="MSShapeGroup"></path>
                <g id="Clip-2"></g>
            </g>
            <path d="M22.0756875,41.0815313 C18.3424688,42.3002813 17.9683125,42.1073438 16.2825,36.8807813 L12.1551563,24.1036875 C11.1725625,21.0718125 8.1703125,12.914625 7.6666875,11.3502188 C6.732,8.44396875 6.732,8.288625 12.2091563,6.5015625 C16.50825,5.092125 16.6785938,5.13928125 18.2409375,9.9849375 C19.4986875,13.8879375 20.3067188,17.0314688 21.5934375,21.0190313 L25.1109375,31.8940313 L36.34425,28.22025 C38.5603125,27.4936875 39.3,27.5229375 39.922875,30.2536875 L40.3771875,32.3161875 C40.8955313,34.71825 39.684375,35.3279063 38.4029063,35.7440625 L22.0756875,41.0815313" id="Fill-4" fill="#6ABBB8" sketch:type="MSShapeGroup"></path>
        </g>
    </g>
</svg>