<?xml version="1.0" encoding="UTF-8" standalone="no"?>
<svg width="48px" height="48px" viewBox="0 0 48 48" version="1.1" xmlns="http://www.w3.org/2000/svg" xmlns:xlink="http://www.w3.org/1999/xlink" xmlns:sketch="http://www.bohemiancoding.com/sketch/ns">
    <title>Slice 1</title>
    <description>Created with Sketch (http://www.bohemiancoding.com/sketch)</description>
    <defs>
        <path id="path-1" d="M48,42 C48,45.313 45.313,48 42,48 L6,48 C2.687,48 0,45.313 0,42 L0,6 C0,2.687 2.687,0 6,0 L42,0 C45.313,0 48,2.687 48,6 L48,42 L48,42 Z"></path>
    </defs>
    <g id="Page-1" stroke="none" stroke-width="1" fill="none" fill-rule="evenodd" sketch:type="MSPage">
        <g id="webicon-twitter" sketch:type="MSLayerGroup">
            <g id="Shape">
                <use fill="#FFFFFF" fill-rule="evenodd" sketch:type="MSShapeGroup" xlink:href="#path-1"></use>
                <use fill="none" xlink:href="#path-1"></use>
            </g>
            <path d="M46.6177333,10.98208 C45.0870667,11.658 43.4429667,12.11496 41.7141333,12.32032 C43.4785,11.26904 44.8301333,9.60304 45.4683667,7.62016 C43.8201667,8.59392 41.9929333,9.30112 40.0454333,9.68192 C38.4888,8.03088 36.2693333,7 33.8134333,7 C29.0998,7 25.2772333,10.80256 25.2772333,15.49592 C25.2772333,16.16096 25.3524,16.80968 25.4972667,17.43256 C18.4015333,17.0776 12.1107667,13.69528 7.90006667,8.55584 C7.1648,9.81112 6.74386667,11.2704 6.74386667,12.8276 C6.74386667,15.77472 8.2513,18.37504 10.5418333,19.89824 C9.14236667,19.85472 7.82626667,19.47256 6.67416667,18.83608 L6.67416667,18.94352 C6.67416667,23.06024 9.6166,26.49288 13.5225333,27.27352 C12.8050333,27.46936 12.052,27.57136 11.273,27.57136 C10.7222333,27.57136 10.1878667,27.51968 9.6658,27.42176 C10.7523,30.79592 13.9052,33.25208 17.6403,33.32144 C14.7183667,35.6008 11.0365667,36.95944 7.0377,36.95944 C6.3489,36.95944 5.6683,36.91864 5,36.8384 C8.77883333,39.24968 13.2656,40.65728 18.0872,40.65728 C33.7902,40.65728 42.3783333,27.71144 42.3783333,16.48464 C42.3783333,16.11608 42.3701333,15.75024 42.3523667,15.38576 C44.0251667,14.18216 45.4738333,12.68616 46.6177333,10.98208 L46.6177333,10.98208 Z" id="Shape" fill="#6ABBB8" sketch:type="MSShapeGroup"></path>
        </g>
    </g>
</svg>