<?xml version="1.0" encoding="UTF-8" standalone="no"?>
<svg width="42px" height="34px" viewBox="0 0 42 34" version="1.1" xmlns="http://www.w3.org/2000/svg" xmlns:xlink="http://www.w3.org/1999/xlink" xmlns:sketch="http://www.bohemiancoding.com/sketch/ns">
    <title>calendar</title>
    <description>Created with Sketch (http://www.bohemiancoding.com/sketch)</description>
    <defs></defs>
    <g id="Page-1" stroke="none" stroke-width="1" fill="none" fill-rule="evenodd" sketch:type="MSPage">
        <g id="Rectangle-1-+-icon_404-copy-2" sketch:type="MSLayerGroup">
            <rect id="Rectangle-1" fill="#FF6C2C" sketch:type="MSShapeGroup" x="0" y="0" width="42" height="34" rx="4"></rect>
            <g id="icon_6122" transform="translate(7.500000, 5.000000)" fill="#FFFFFF" sketch:type="MSShapeGroup">
                <path d="M24.243975,4.6300274 L16.04475,4.6300274 L18.19935,2.23693151 C18.6910875,1.69084932 18.6350625,0.860054795 18.0748125,0.381041096 C17.5138875,-0.0979726027 16.6613625,-0.0437260274 16.169625,0.502684932 L13.291425,3.69961644 L10.4405625,0.506958904 C9.9511875,-0.0410958904 9.098325,-0.098630137 8.53605,0.377753425 C7.9734375,0.854465753 7.9140375,1.68526027 8.4034125,2.2329863 L10.5438375,4.63035616 L2.5680375,4.63035616 C1.0769625,4.63035616 -0.1319625,5.808 -0.1319625,7.26049315 L-0.1319625,21.3922192 C-0.1319625,22.8447123 1.0769625,24.0223562 2.5680375,24.0223562 L24.243975,24.0223562 C25.73505,24.0223562 26.943975,22.8447123 26.943975,21.3922192 L26.943975,7.26016438 C26.943975,5.80734247 25.73505,4.6300274 24.243975,4.6300274 L24.243975,4.6300274 Z M24.243975,21.3915616 L2.5680375,21.3915616 L2.5680375,7.26016438 L24.243975,7.26016438 L24.243975,21.3915616 L24.243975,21.3915616 Z" id="Shape"></path>
            </g>
        </g>
    </g>
</svg>