<?xml version="1.0" encoding="UTF-8" standalone="no"?>
<svg width="48px" height="48px" viewBox="0 0 48 48" version="1.1" xmlns="http://www.w3.org/2000/svg" xmlns:xlink="http://www.w3.org/1999/xlink" xmlns:sketch="http://www.bohemiancoding.com/sketch/ns">
    <title>Slice 1</title>
    <description>Created with Sketch (http://www.bohemiancoding.com/sketch)</description>
    <defs>
        <path id="path-1" d="M48,42 C48,45.313 45.313,48 42,48 L6,48 C2.687,48 0,45.313 0,42 L0,6 C0,2.687 2.687,0 6,0 L42,0 C45.313,0 48,2.687 48,6 L48,42 L48,42 Z"></path>
    </defs>
    <g id="Page-1" stroke="none" stroke-width="1" fill="none" fill-rule="evenodd" sketch:type="MSPage">
        <g id="webicon-vimeo" sketch:type="MSLayerGroup">
            <g id="Shape">
                <use fill="#FFFFFF" fill-rule="evenodd" sketch:type="MSShapeGroup" xlink:href="#path-1"></use>
                <use fill="none" xlink:href="#path-1"></use>
            </g>
            <path d="M26.764879,12.8563989 C30.0853306,10.0087989 35.163879,8.73199887 39.4606532,11.6779989 C40.15882,12.1564176 40.8365298,12.788332 40.9263912,13.2499988 C41.1200233,14.2447914 39.9427461,17.1956837 39.8794139,17.6427748 C39.844346,17.8903344 37.2155887,25.0327989 32.1358468,30.5323989 C27.0572984,36.0319989 21.2948468,44.8675989 16.2162984,35.0491989 C11.13775,25.2295989 12.7979758,22.6759989 10.2581048,17.9635989 C10.2581048,17.9635989 0.0998145132,19.8295989 5.66771774,15.8023989 C11.235621,11.7775989 17.7786532,8.33959887 18.1689435,13.2499989 C18.5604274,18.1603989 20.3185242,29.7475989 23.5411048,29.0587989 C26.764879,28.3723989 30.0853306,21.4003989 30.3789435,18.6511989 C30.6713629,15.9007989 28.033621,15.9991989 28.033621,15.9991989 C28.033621,15.9991989 23.4420403,15.7039989 26.764879,12.8563989 Z" id="Shape" fill="#6ABBB8" sketch:type="MSShapeGroup"></path>
        </g>
    </g>
</svg>