<svg width="100%" height="100%" viewBox="0 0 564 141" version="1.1" xmlns="http://www.w3.org/2000/svg" xmlns:xlink="http://www.w3.org/1999/xlink" preserveAspectRatio="xMinYMin meet"><title>Code &amp; Creativity</title><description></description><defs></defs><g id="Page-1" stroke="none" stroke-width="1" fill="none" fill-rule="evenodd"><g id="Group-+-Group" transform="translate(-3.000000, -16.000000)">
<g id="Group" ><path d="M33.1653718,115.076378 C38.1693718,114.281378 43.4283718,112.306378 48.9443718,109.139378 C54.4423718,105.817378 58.6323718,102.068378 61.5173718,97.8903776 C62.4853718,105.942378 65.4593718,109.578378 70.4513718,108.787378 C72.9113718,108.397378 74.9873718,106.715378 76.6863718,103.729378 C77.1103718,102.982378 77.5963718,101.887378 78.1503718,100.442378 C78.7013718,98.9983776 79.3153718,97.2463776 79.9953718,95.1883776 C80.3343718,93.6903776 80.6333718,92.3293776 80.8883718,91.0993776 C81.1413718,89.8733776 81.3523718,88.7783776 81.5233718,87.8163776 C84.0673718,88.4333776 85.5523718,88.7053776 85.9773718,88.6373776 C87.7053718,88.3643776 89.2443718,87.4533776 90.6063718,85.9463776 C90.3293718,88.3933776 90.1753718,90.7323776 90.1753718,92.9383776 C90.1753718,96.2473776 90.7273718,98.9593776 91.8293718,101.076378 C93.2723718,104.069378 95.3073718,105.362378 97.9383718,104.945378 C99.9773718,104.620378 102.011372,102.389378 104.046372,98.2503776 C104.303372,97.7843776 104.747372,96.8243776 105.383372,95.3663776 C106.021372,93.9063776 106.804372,91.9183776 107.739372,89.3923776 C108.502372,97.6693776 110.874372,101.493378 114.864372,100.863378 C117.023372,100.520378 119.911372,94.7303776 123.531372,83.5233776 C123.530372,83.7093776 123.518372,83.9093776 123.518372,84.0933776 C123.518372,87.9103776 124.366372,91.3833776 126.062372,94.5053776 C128.268372,98.1463776 131.154372,99.6843776 134.718372,99.1203776 C137.263372,98.7163776 139.510372,97.1273776 141.461372,94.3573776 C144.601372,89.5363776 147.781372,80.5053776 151.006372,67.2673776 C152.279372,61.9763776 152.917372,59.0333776 152.917372,58.4373776 C152.917372,57.4203776 152.362372,56.9973776 151.260372,57.1713776 C150.921372,57.2263776 150.115372,59.7703776 148.843372,64.8113776 C143.751372,84.9613776 139.170372,95.3603776 135.102372,96.0063776 C133.572372,96.2453776 132.128372,95.5833776 130.771372,94.0173776 C129.328372,92.3813776 128.608372,90.8373776 128.608372,89.3953776 C130.728372,85.7493776 132.509372,82.2033776 133.955372,78.7483776 C137.601372,70.3673776 139.425372,63.0353776 139.425372,56.7593776 C139.425372,54.9733776 138.663372,53.5703776 137.133372,52.5383776 C135.606372,51.5093776 133.955372,51.1353776 132.171372,51.4153776 C129.116372,51.8963776 126.783372,56.8943776 125.173372,66.3963776 C125.008372,67.3163776 124.859372,68.2173776 124.721372,69.1063776 C123.393372,74.3893776 122.016372,79.2873776 120.590372,83.7943776 C117.791372,92.8073776 115.628372,97.4313776 114.102372,97.6743776 C112.320372,97.6173776 111.345372,94.5903776 111.175372,88.5943776 C111.175372,87.1513776 111.367372,84.6183776 111.749372,80.9933776 C112.129372,77.3723776 112.657372,72.7063776 113.337372,66.9983776 C114.270372,59.3833776 114.994372,53.5643776 115.501372,49.5393776 C116.009372,45.5123776 116.307372,43.1963776 116.392372,42.5883776 C117.494372,36.8143776 118.429372,31.8103776 119.192372,27.5743776 C119.956372,23.3383776 120.590372,19.8673776 121.101372,17.1543776 C121.440372,14.5543776 120.590372,13.4163776 118.554372,13.7403776 C117.452372,13.9143776 116.730372,14.0723776 116.392372,14.2083776 C115.376372,14.7103776 114.994372,16.0853776 115.245372,18.3353776 C114.143372,26.7413776 113.187372,34.0193776 112.383372,40.1683776 C111.576372,46.3223776 110.919372,51.4323776 110.411372,55.4993776 C110.238372,55.7793776 110.070372,55.9353776 109.901372,55.9613776 C109.818372,55.9753776 108.966372,55.5183776 107.356372,54.5813776 C105.830372,53.5513776 104.514372,53.1223776 103.410372,53.2963776 C100.186372,53.8103776 97.0913718,59.0943776 94.1213718,69.1513776 C93.1263718,72.5823776 92.3213718,75.8493776 91.7023718,78.9543776 C90.2573718,82.4903776 88.0543718,84.4933776 85.0863718,84.9613776 C84.1523718,85.1103776 83.0923718,84.8143776 81.9033718,84.0663776 C81.9033718,73.8023776 81.5633718,67.7053776 80.8883718,65.7733776 C80.2093718,63.9323776 78.6393718,62.2723776 76.1773718,60.7933776 C73.8013718,59.3063776 71.5113718,58.7323776 69.3043718,59.0823776 C67.0133718,59.4443776 65.5723718,61.1183776 64.9803718,64.0943776 C64.6383718,65.5923776 64.3833718,66.7773776 64.2163718,67.6503776 C64.0433718,68.5273776 63.8713718,69.2613776 63.8743718,69.7423776 C63.8823718,71.2603776 62.9853718,73.2353776 63.0713718,73.8123776 C63.1263718,74.2183776 63.1643718,74.5163776 63.1833718,74.7203776 C61.8353718,77.7393776 61.1623718,83.2653776 61.1623718,91.2953776 C61.1623718,92.1323776 61.1783718,92.9353776 61.2053718,93.7123776 C60.7513718,94.4183776 60.0233718,95.4593776 58.8703718,97.0023776 C54.4083718,102.972378 41.0553718,109.880378 31.6373718,111.372378 C21.1153718,113.039378 15.8563718,106.745378 15.8563718,92.4903776 C15.8563718,79.8503776 18.2733718,66.5723776 23.1123718,52.6533776 C28.2833718,37.5813776 34.0543718,29.5393776 40.4193718,28.5343776 C43.4723718,28.0493776 46.4403718,28.3023776 49.3273718,29.2863776 C52.8923718,30.4213776 54.6703718,32.3843776 54.6703718,35.1853776 C54.6703718,37.7293776 53.9493718,41.9183776 52.5083718,47.7413776 C51.0643718,53.4873776 50.3453718,57.5033776 50.3453718,59.7953776 C50.3453718,61.0663776 50.6403718,62.2933776 51.2343718,63.4713776 C51.9143718,65.0613776 52.8043718,65.7673776 53.9083718,65.5933776 C55.5193718,65.3373776 56.9623718,61.7183776 58.2353718,54.7263776 C59.2513718,49.1383776 59.7643718,44.8563776 59.7643718,41.8873776 C59.7643718,36.9683776 59.1253718,33.4603776 57.8543718,31.3723776 C56.9193718,29.7373776 55.0533718,28.3363776 52.2533718,27.1673776 C47.8403718,25.2353776 43.3023718,24.6383776 38.6373718,25.3773776 C35.3293718,25.9013776 32.8663718,26.8453776 31.2563718,28.2033776 C24.7213718,33.4803776 19.2493718,43.4673776 14.8383718,58.1653776 C11.1893718,70.1973776 9.36637175,80.8793776 9.36637175,90.2113776 C9.36637175,98.2713776 11.2313718,104.636378 14.9643718,109.305378 C19.2083718,114.401378 25.2733718,116.325378 33.1653718,115.076378 M132.680372,56.5543776 C133.018372,55.3983776 133.529372,54.7633776 134.207372,54.6563776 C135.394372,54.4673776 135.989372,55.8183776 135.989372,58.7013776 C135.989372,62.0103776 135.181372,66.5913776 133.572372,72.4473776 C131.788372,79.1773776 129.923372,83.2923776 127.971372,84.7883776 C127.971372,75.8783776 129.542372,66.4673776 132.680372,56.5543776 M105.321372,58.8503776 C107.864372,58.4463776 109.139372,60.1533776 109.139372,63.9723776 C109.139372,64.8223776 109.094372,65.7813776 109.010372,66.8563776 C108.925372,67.9303776 108.798372,69.1603776 108.627372,70.5423776 C108.459372,72.2703776 108.331372,73.6653776 108.246372,74.7413776 C108.162372,75.8143776 108.076372,76.6143776 107.992372,77.1353776 C107.568372,79.2403776 107.017372,81.4483776 106.338372,83.7603776 C105.659372,86.0743776 104.853372,88.4933776 103.919372,91.0153776 C101.458372,97.6833776 99.2953718,101.165378 97.4303718,101.460378 C95.5633718,101.758378 94.6303718,97.7883776 94.6303718,89.5593776 C94.6303718,85.6603776 95.6043718,80.0303776 97.5563718,72.6783776 C99.9333718,63.9043776 102.519372,59.2943776 105.321372,58.8503776 M67.3963718,76.1823776 C68.7533718,67.9943776 70.3243718,63.7593776 72.1063718,63.4743776 C74.8183718,63.0473776 76.1773718,64.3143776 76.1773718,67.2843776 C76.1773718,67.8783776 76.1143718,68.8193776 75.9863718,70.1153776 C75.8593718,71.4083776 75.7973718,72.3513776 75.7973718,72.9433776 C75.7973718,73.8783776 75.8793718,74.9883776 76.0523718,76.2743776 C76.2203718,77.5643776 76.4733718,79.0703776 76.8163718,80.7993776 C77.1523718,82.5283776 77.4073718,84.0593776 77.5783718,85.3863776 C77.7483718,86.7163776 77.8333718,87.8503776 77.8333718,88.7853776 C77.8333718,91.0753776 76.8163718,94.5903776 74.7773718,99.3213776 C73.2503718,102.959378 72.0213718,104.849378 71.0883718,104.997378 C67.3533718,105.588378 65.4873718,101.303378 65.4873718,92.1383776 C65.4873718,88.5763776 66.1253718,83.2573776 67.3963718,76.1823776" id="Shape" fill="#1B5E5F" transform="translate(81.141872, 64.565824) rotate(9.000000) translate(-81.141872, -64.565824) "></path><path d="M228.917172,103.995938 C230.443172,105.447938 231.801172,106.080938 232.988172,105.893938 C233.498172,105.813938 234.155172,105.516938 234.961172,105.006938 C235.767172,104.498938 236.172172,104.029938 236.172172,103.606938 C233.710172,102.896938 231.927172,101.989938 230.825172,100.892938 C227.598172,97.7559378 225.181172,95.4649378 223.570172,94.0209378 C224.843172,92.8879378 227.430172,89.3369378 231.336172,83.3749378 C234.729172,78.1729378 237.231172,75.4419378 238.842172,75.1859378 L247.622172,73.7959378 C248.388172,72.8269378 248.769172,72.0899378 248.769172,71.5769378 C248.259172,70.5569378 244.697172,70.4859378 238.079172,71.3599378 L210.972172,75.7829378 C209.530172,72.6209378 208.409172,70.0819378 207.598172,68.1729378 C206.792172,66.2639378 206.262172,64.9049378 206.009172,64.0979378 C209.402172,59.7409378 211.988172,56.4489378 213.775172,54.2119378 C215.554172,51.9829378 216.573172,50.6769378 216.828172,50.2949378 C221.153172,44.1809378 223.319172,39.1699378 223.319172,35.2689378 C223.319172,31.2799378 221.874172,27.9439378 218.990172,25.2619378 C216.020172,22.5099378 212.587172,21.4389378 208.683172,22.0589378 C204.864172,22.6649378 201.811172,25.5659378 199.519172,30.7619378 C197.652172,34.8779378 196.719172,39.1419378 196.719172,43.5519378 C196.719172,49.0679378 197.992172,55.4839378 200.536172,62.8009378 L188.700172,78.4169378 C184.884172,84.3689378 182.974172,90.1439378 182.974172,95.7419378 C182.974172,100.664938 184.628172,104.433938 187.936172,107.048938 C191.329172,109.735938 195.403172,110.700938 200.154172,109.948938 C206.008172,109.020938 212.966172,104.653938 221.025172,96.8449378 L228.917172,103.995938 L228.917172,103.995938 L228.917172,103.995938 L228.917172,103.995938 Z M215.935172,79.1979378 C216.868172,78.9629378 217.801172,78.7729378 218.737172,78.6239378 C219.670172,78.4779378 220.603172,78.3309378 221.537172,78.1809378 L228.918172,77.0129378 C228.918172,78.2029378 227.857172,80.5759378 225.734172,84.1329378 C223.528172,87.7119378 222.045172,89.5549378 221.281172,89.6749378 C219.580172,87.7389378 218.055172,85.9439378 216.701172,84.2929378 C215.342172,82.6409378 214.196172,81.0849378 213.265172,79.6209378 L215.935172,79.1979378 L215.935172,79.1979378 L215.935172,79.1979378 L215.935172,79.1979378 Z M203.082172,33.3789378 C205.032172,28.0679378 207.577172,25.1619378 210.720172,24.6609378 C211.904172,24.4769378 213.030172,24.6119378 214.090172,25.0839378 C215.151172,25.5519378 216.082172,26.2099378 216.891172,27.0599378 C217.696172,27.9059378 218.333172,28.8859378 218.799172,30.0009378 C219.267172,31.1169378 219.500172,32.2649378 219.500172,33.4509378 C219.500172,37.3569378 216.572172,42.9959378 210.720172,50.3709378 C207.408172,54.6279378 205.245172,57.2169378 204.230172,58.1419378 C202.108172,53.1359378 201.047172,48.8039378 201.047172,45.1549378 C201.047172,41.0859378 201.725172,37.1619378 203.082172,33.3789378 L203.082172,33.3789378 Z M211.483172,100.644938 C206.814172,104.269938 202.362172,106.416938 198.120172,107.087938 C195.236172,107.544938 192.563172,106.910938 190.102172,105.178938 C187.639172,103.362938 186.411172,101.136938 186.411172,98.5079378 C186.411172,86.3749378 191.755172,75.9409378 202.446172,67.2069378 C204.483172,72.3989378 205.882172,75.4869378 206.645172,76.4679378 C203.166172,77.9549378 200.707172,78.8529378 199.266172,79.1649378 C199.178172,79.5169378 199.116172,79.8439378 199.076172,80.1489378 C199.031172,80.4519378 199.011172,80.8179378 199.011172,81.2409378 C199.860172,81.1069378 201.514172,80.9719378 203.973172,80.8379378 C206.095172,80.7559378 207.746172,80.6219378 208.935172,80.4329378 C214.452172,88.3849378 217.379172,92.9249378 217.717172,94.0579378 C217.716172,95.2479378 215.639172,97.4409378 211.483172,100.644938 L211.483172,100.644938 Z M211.483172,100.644938" id="Shape" fill="#1B5E5F" transform="translate(215.871672, 66.042144) rotate(9.000000) translate(-215.871672, -66.042144) "></path><path d="M31.0172913,112.120876 C36.0202913,111.325876 41.2792913,109.350876 46.7952913,106.183876 C52.2942913,102.861876 56.4842913,99.1128761 59.3682913,94.9348761 C60.3372913,102.985876 63.3112913,106.622876 68.3022913,105.831876 C70.7622913,105.441876 72.8382913,103.759876 74.5382913,100.773876 C74.9622913,100.026876 75.4482913,98.9318761 76.0022913,97.4868761 C76.5532913,96.0428761 77.1662913,94.2908761 77.8472913,92.2328761 C78.1852913,90.7348761 78.4842913,89.3738761 78.7392913,88.1438761 C78.9922913,86.9178761 79.2042913,85.8228761 79.3752913,84.8608761 C81.9182913,85.4778761 83.4032913,85.7498761 83.8282913,85.6818761 C85.5572913,85.4088761 87.0962913,84.4978761 88.4582913,82.9908761 C88.1802913,85.4378761 88.0262913,87.7768761 88.0262913,89.9828761 C88.0262913,93.2918761 88.5792913,96.0038761 89.6812913,98.1208761 C91.1242913,101.113876 93.1582913,102.406876 95.7902913,101.989876 C97.8292913,101.664876 99.8632913,99.4338761 101.897291,95.2948761 C102.155291,94.8288761 102.599291,93.8688761 103.235291,92.4108761 C103.872291,90.9508761 104.655291,88.9628761 105.591291,86.4368761 C106.354291,94.7138761 108.726291,98.5378761 112.715291,97.9078761 C114.875291,97.5648761 117.762291,91.7748761 121.383291,80.5678761 C121.382291,80.7538761 121.370291,80.9528761 121.370291,81.1378761 C121.370291,84.9548761 122.217291,88.4278761 123.914291,91.5498761 C126.119291,95.1908761 129.005291,96.7288761 132.569291,96.1648761 C135.114291,95.7608761 137.361291,94.1718761 139.312291,91.4018761 C142.452291,86.5808761 145.633291,77.5498761 148.857291,64.3118761 C150.131291,59.0208761 150.768291,56.0778761 150.768291,55.4818761 C150.768291,54.4648761 150.214291,54.0418761 149.112291,54.2158761 C148.772291,54.2708761 147.967291,56.8148761 146.695291,61.8558761 C141.603291,82.0058761 137.022291,92.4048761 132.953291,93.0508761 C131.424291,93.2898761 129.979291,92.6278761 128.623291,91.0618761 C127.179291,89.4258761 126.460291,87.8818761 126.460291,86.4398761 C128.579291,82.7938761 130.360291,79.2478761 131.807291,75.7928761 C135.452291,67.4118761 137.277291,60.0798761 137.277291,53.8038761 C137.277291,52.0178761 136.514291,50.6148761 134.985291,49.5828761 C133.458291,48.5538761 131.807291,48.1798761 130.022291,48.4598761 C126.968291,48.9408761 124.634291,53.9388761 123.024291,63.4408761 C122.860291,64.3608761 122.711291,65.2618761 122.572291,66.1508761 C121.244291,71.4348761 119.868291,76.3318761 118.442291,80.8388761 C115.642291,89.8518761 113.479291,94.4758761 111.953291,94.7188761 C110.172291,94.6618761 109.196291,91.6348761 109.026291,85.6388761 C109.026291,84.1958761 109.219291,81.6628761 109.600291,78.0378761 C109.981291,74.4168761 110.508291,69.7508761 111.189291,64.0428761 C112.121291,56.4278761 112.845291,50.6088761 113.353291,46.5838761 C113.861291,42.5568761 114.159291,40.2408761 114.244291,39.6328761 C115.346291,33.8588761 116.281291,28.8548761 117.043291,24.6188761 C117.807291,20.3828761 118.442291,16.9118761 118.953291,14.1988761 C119.292291,11.5988761 118.442291,10.4608761 116.406291,10.7848761 C115.304291,10.9588761 114.582291,11.1168761 114.244291,11.2528761 C113.228291,11.7548761 112.845291,13.1298761 113.097291,15.3798761 C111.995291,23.7858761 111.039291,31.0638761 110.234291,37.2128761 C109.427291,43.3668761 108.771291,48.4768761 108.263291,52.5438761 C108.090291,52.8238761 107.921291,52.9798761 107.753291,53.0058761 C107.670291,53.0198761 106.818291,52.5628761 105.208291,51.6258761 C103.682291,50.5958761 102.365291,50.1668761 101.261291,50.3408761 C98.0372913,50.8548761 94.9422913,56.1388761 91.9732913,66.1958761 C90.9782913,69.6268761 90.1722913,72.8938761 89.5532913,75.9988761 C88.1082913,79.5348761 85.9052913,81.5368761 82.9372913,82.0058761 C82.0032913,82.1548761 80.9432913,81.8588761 79.7552913,81.1108761 C79.7552913,70.8468761 79.4152913,64.7498761 78.7392913,62.8178761 C78.0602913,60.9768761 76.4902913,59.3168761 74.0282913,57.8378761 C71.6532913,56.3508761 69.3622913,55.7768761 67.1552913,56.1268761 C64.8652913,56.4888761 63.4232913,58.1628761 62.8322913,61.1388761 C62.6192913,62.0678761 62.4452913,62.8628761 62.3002913,63.5518761 L62.2992913,63.5518761 C62.2992913,63.5518761 59.5182913,75.2138761 59.3642913,79.6168761 L59.3642913,79.6338761 C59.1322913,82.1058761 59.0142913,85.0028761 59.0142913,88.3398761 C59.0142913,89.1768761 59.0292913,89.9788761 59.0562913,90.7568761 C58.6032913,91.4628761 57.8752913,92.5038761 56.7222913,94.0468761 C52.2602913,100.016876 38.9072913,106.924876 29.4882913,108.416876 C18.9672913,110.083876 13.7082913,103.789876 13.7082913,89.5348761 C13.7082913,76.8948761 16.1252913,63.6168761 20.9642913,49.6978761 C26.1352913,34.6258761 31.9062913,26.5838761 38.2712913,25.5788761 C41.3242913,25.0938761 44.2922913,25.3468761 47.1782913,26.3308761 C50.7442913,27.4658761 52.5212913,29.4288761 52.5212913,32.2298761 C52.5212913,34.7738761 51.8012913,38.9628761 50.3592913,44.7858761 C48.9162913,50.5318761 48.1972913,54.5478761 48.1972913,56.8398761 C48.1972913,58.1108761 48.4922913,59.3378761 49.0862913,60.5158761 C49.7652913,62.1058761 50.6562913,62.8118761 51.7592913,62.6378761 C53.3712913,62.3818761 54.8132913,58.7628761 56.0872913,51.7708761 C57.1032913,46.1828761 57.6152913,41.9008761 57.6152913,38.9318761 C57.6152913,34.0128761 56.9762913,30.5048761 55.7062913,28.4168761 C54.7702913,26.7818761 52.9042913,25.3808761 50.1042913,24.2118761 C45.6922913,22.2798761 41.1542913,21.6828761 36.4882913,22.4218761 C33.1802913,22.9458761 30.7172913,23.8898761 29.1072913,25.2478761 C22.5722913,30.5248761 17.1012913,40.5118761 12.6892913,55.2098761 C9.04129125,67.2418761 7.21829125,77.9238761 7.21829125,87.2558761 C7.21829125,95.3158761 9.08329125,101.680876 12.8162913,106.349876 C17.0592913,111.445876 23.1252913,113.368876 31.0172913,112.120876 M130.533291,53.5988761 C130.871291,52.4428761 131.382291,51.8078761 132.059291,51.7008761 C133.246291,51.5118761 133.842291,52.8628761 133.842291,55.7458761 C133.842291,59.0548761 133.033291,63.6358761 131.425291,69.4918761 C129.641291,76.2218761 127.776291,80.3368761 125.824291,81.8328761 C125.824291,72.9228761 127.394291,63.5108761 130.533291,53.5988761 M103.172291,55.8948761 C105.716291,55.4908761 106.991291,57.1978761 106.991291,61.0168761 C106.991291,61.8668761 106.946291,62.8258761 106.861291,63.9008761 C106.776291,64.9748761 106.649291,66.2048761 106.479291,67.5868761 C106.310291,69.3148761 106.182291,70.7098761 106.097291,71.7858761 C106.014291,72.8588761 105.927291,73.6588761 105.844291,74.1798761 C105.419291,76.2848761 104.869291,78.4928761 104.189291,80.8048761 C103.510291,83.1188761 102.705291,85.5378761 101.770291,88.0608761 C99.3092913,94.7278761 97.1462913,98.2098761 95.2822913,98.5048761 C93.4152913,98.8028761 92.4822913,94.8328761 92.4822913,86.6038761 C92.4822913,82.7048761 93.4562913,77.0748761 95.4072913,69.7228761 C97.7852913,60.9478761 100.371291,56.3388761 103.172291,55.8948761 M69.9582913,60.5188761 C72.6702913,60.0918761 74.0282913,61.3588761 74.0282913,64.3288761 C74.0282913,64.9228761 73.9662913,65.8638761 73.8382913,67.1598761 C73.7112913,68.4528761 73.6482913,69.3958761 73.6482913,69.9878761 C73.6482913,70.9228761 73.7302913,72.0328761 73.9032913,73.3188761 C74.0722913,74.6088761 74.3252913,76.1148761 74.6672913,77.8438761 C75.0042913,79.5728761 75.2592913,81.1038761 75.4302913,82.4308761 C75.6002913,83.7608761 75.6852913,84.8948761 75.6852913,85.8298761 C75.6852913,88.1198761 74.6672913,91.6348761 72.6282913,96.3658761 C71.1022913,100.003876 69.8722913,101.893876 68.9392913,102.041876 C65.2052913,102.632876 63.3382913,98.3478761 63.3382913,89.1828761 C63.3382913,85.6208761 63.9772913,80.3008761 65.2482913,73.2268761 C66.6042913,65.0388761 68.1762913,60.8038761 69.9582913,60.5188761" id="Shape" fill="#FFFFFF" transform="translate(78.993291, 61.610132) rotate(9.000000) translate(-78.993291, -61.610132) "></path><path d="M226.769212,101.039524 C228.295212,102.491524 229.653212,103.124524 230.840212,102.937524 C231.350212,102.857524 232.007212,102.560524 232.813212,102.050524 C233.619212,101.542524 234.024212,101.073524 234.024212,100.650524 C231.563212,99.9405244 229.779212,99.0335244 228.677212,97.9365244 C225.450212,94.7995244 223.033212,92.5085244 221.422212,91.0645244 C222.695212,89.9315244 225.282212,86.3805244 229.188212,80.4185244 C232.581212,75.2165244 235.083212,72.4855244 236.694212,72.2295244 L245.474212,70.8395244 C246.240212,69.8705244 246.621212,69.1335244 246.621212,68.6205244 C246.111212,67.6005244 242.549212,67.5295244 235.931212,68.4035244 L208.824212,72.8265244 C207.382212,69.6645244 206.261212,67.1255244 205.450212,65.2165244 C204.644212,63.3075244 204.114212,61.9485244 203.861212,61.1415244 C207.254212,56.7845244 209.840212,53.4925244 211.627212,51.2555244 C213.406212,49.0265244 214.425212,47.7205244 214.680212,47.3385244 C219.005212,41.2245244 221.171212,36.2135244 221.171212,32.3125244 C221.171212,28.3235244 219.726212,24.9875244 216.842212,22.3055244 C213.872212,19.5535244 210.439212,18.4825244 206.535212,19.1025244 C202.716212,19.7085244 199.663212,22.6095244 197.371212,27.8055244 C195.504212,31.9215244 194.571212,36.1855244 194.571212,40.5955244 C194.571212,46.1115244 195.844212,52.5275244 198.388212,59.8445244 L186.552212,75.4605244 C182.736212,81.4125244 180.826212,87.1875244 180.826212,92.7855244 C180.826212,97.7085244 182.481212,101.477524 185.788212,104.092524 C189.181212,106.779524 193.255212,107.744524 198.006212,106.992524 C203.860212,106.064524 210.818212,101.697524 218.877212,93.8885244 L226.769212,101.039524 L226.769212,101.039524 L226.769212,101.039524 L226.769212,101.039524 Z M213.787212,76.2415244 C214.720212,76.0065244 215.653212,75.8165244 216.589212,75.6675244 C217.523212,75.5215244 218.455212,75.3745244 219.389212,75.2245244 L226.770212,74.0565244 C226.770212,75.2465244 225.709212,77.6195244 223.586212,81.1765244 C221.380212,84.7555244 219.898212,86.5985244 219.133212,86.7185244 C217.432212,84.7825244 215.907212,82.9875244 214.553212,81.3365244 C213.194212,79.6845244 212.048212,78.1285244 211.117212,76.6645244 L213.787212,76.2415244 L213.787212,76.2415244 L213.787212,76.2415244 L213.787212,76.2415244 Z M200.934212,30.4235244 C202.884212,25.1125244 205.429212,22.2065244 208.572212,21.7055244 C209.756212,21.5215244 210.882212,21.6565244 211.942212,22.1285244 C213.003212,22.5965244 213.934212,23.2545244 214.743212,24.1045244 C215.548212,24.9505244 216.185212,25.9305244 216.651212,27.0455244 C217.119212,28.1615244 217.352212,29.3095244 217.352212,30.4955244 C217.352212,34.4015244 214.424212,40.0405244 208.572212,47.4155244 C205.260212,51.6725244 203.097212,54.2615244 202.082212,55.1865244 C199.960212,50.1805244 198.899212,45.8485244 198.899212,42.1995244 C198.899212,38.1295244 199.577212,34.2055244 200.934212,30.4235244 L200.934212,30.4235244 Z M209.335212,97.6885244 C204.666212,101.313524 200.214212,103.460524 195.972212,104.131524 C193.088212,104.588524 190.415212,103.954524 187.954212,102.222524 C185.491212,100.406524 184.263212,98.1805244 184.263212,95.5515244 C184.263212,83.4185244 189.608212,72.9845244 200.298212,64.2505244 C202.335212,69.4425244 203.734212,72.5305244 204.497212,73.5115244 C201.018212,74.9985244 198.559212,75.8965244 197.118212,76.2085244 C197.030212,76.5605244 196.968212,76.8875244 196.928212,77.1925244 C196.883212,77.4955244 196.863212,77.8615244 196.863212,78.2845244 C197.712212,78.1505244 199.366212,78.0155244 201.825212,77.8815244 C203.947212,77.7995244 205.598212,77.6655244 206.787212,77.4765244 C212.304212,85.4285244 215.232212,89.9685244 215.569212,91.1015244 C215.568212,92.2915244 213.491212,94.4855244 209.335212,97.6885244 L209.335212,97.6885244 Z M209.335212,97.6885244" id="Shape" fill="#FFFFFF" transform="translate(213.723712, 63.085730) rotate(9.000000) translate(-213.723712, -63.085730) "></path>
</g><g id="Group" transform="translate(267.000000, 6.000000)"><path d="M177.217785,35.1948541 C179.336785,34.8568541 180.399785,33.1208541 180.399785,29.9838541 C180.399785,26.8428541 178.954785,25.5008541 176.071785,25.9608541 C175.222785,26.0958541 174.353785,26.6968541 173.462785,27.7718541 C172.573785,28.8478541 172.125785,29.8088541 172.125785,30.6548541 C172.125785,32.0158541 172.634785,33.1648541 173.651785,34.1058541 C174.673785,35.0468541 175.857785,35.4078541 177.217785,35.1948541" id="Shape" fill="#1B5E5F" transform="translate(176.262785, 30.563438) rotate(9.000000) translate(-176.262785, -30.563438) "></path><path d="M198.198856,38.7826813 C197.603856,38.8806813 197.305856,39.1786813 197.305856,39.6896813 C197.305856,39.4326813 197.603856,40.6206813 198.198856,43.2376813 L198.198856,52.5286813 C198.198856,55.8356813 197.179856,61.2606813 195.143856,68.7926813 C192.936856,76.9486813 191.197856,81.1266813 189.924856,81.3296813 C187.379856,81.7276813 186.106856,76.6716813 186.106856,66.1496813 C186.106856,65.4716813 186.149856,64.5756813 186.233856,63.4586813 C186.319856,62.3436813 186.442856,61.0506813 186.617856,59.5796813 C186.785856,58.1106813 186.936856,56.7946813 187.061856,55.6286813 C187.189856,54.4626813 187.251856,53.5446813 187.251856,52.8606813 C187.251856,50.2316813 185.936856,49.0836813 183.309856,49.4136813 C182.625856,49.5186813 182.203856,49.7166813 182.035856,49.9976813 C181.863856,50.2786813 181.781856,50.5466813 181.781856,50.7986813 C181.781856,51.0526813 181.863856,51.5096813 182.035856,52.1596813 L182.035856,52.2066813 C181.858856,52.6736813 181.688856,53.2276813 181.528856,53.8946813 C180.932856,56.4536813 180.382856,58.7036813 179.874856,60.6466813 C179.364856,62.5956813 178.896856,64.2816813 178.474856,65.7056813 C175.758856,74.7056813 174.358856,79.2586813 174.273856,79.3516813 C172.576856,83.8656813 171.136856,86.2126813 169.946856,86.4006813 C167.402856,86.8046813 166.128856,84.1666813 166.128856,78.4786813 C166.128856,73.0506813 166.935856,66.3456813 168.548856,58.3696813 C168.969856,56.4406813 169.330856,54.8326813 169.629856,53.5516813 C169.925856,52.2786813 170.158856,51.2896813 170.327856,50.5806813 C170.327856,49.3926813 169.227856,48.9736813 167.022856,49.3226813 C165.917856,49.4946813 165.069856,49.9296813 164.472856,50.6176813 C164.472856,52.1426813 164.388856,54.0886813 164.220856,56.4436813 C164.121856,57.8066813 163.991856,59.3266813 163.836856,60.9646813 C159.833856,78.1646813 156.227856,87.0476813 153.022856,87.5546813 C150.984856,87.8766813 149.796856,85.4786813 149.458856,80.3536813 C149.374856,79.4356813 149.311856,77.7916813 149.266856,75.4216813 C149.225856,73.0546813 149.204856,69.9606813 149.204856,66.1426813 C149.204856,59.5276813 150.222856,48.9256813 152.258856,34.3496813 L158.367856,33.5096813 C160.406856,33.2716813 162.354856,33.0056813 164.222856,32.7106813 C166.088856,32.4136813 167.867856,32.1326813 169.568856,31.8626813 C171.177856,31.6086813 173.595856,30.9286813 176.821856,29.8256813 C180.719856,28.5266813 182.842856,27.6396813 183.184856,27.1616813 L183.184856,26.2726813 C178.855856,26.7866813 175.228856,27.2566813 172.301856,27.6766813 C169.375856,28.0986813 167.062856,28.3996813 165.367856,28.5826813 C161.972856,29.0376813 159.276856,29.3986813 157.283856,29.6726813 C155.291856,29.9476813 153.954856,30.1356813 153.274856,30.2446813 C153.614856,28.6626813 153.913856,27.2156813 154.165856,25.9026813 C154.421856,24.5916813 154.632856,23.3696813 154.802856,22.2386813 L154.802856,19.5646813 C152.512856,18.4026813 150.813856,17.9086813 149.712856,18.0826813 C149.031856,18.1896813 148.566856,18.5616813 148.312856,19.1936813 L148.949856,21.3846813 C148.778856,23.6186813 148.650856,25.5256813 148.566856,27.1076813 C148.482856,28.6916813 148.397856,29.9556813 148.312856,30.9006813 C143.646856,31.8106813 139.784856,32.5706813 136.732856,33.1816813 C133.677856,33.7926813 131.345856,34.2246813 129.733856,34.4806813 C128.713856,34.6426813 128.205856,35.0216813 128.205856,35.6156813 C128.205856,36.1236813 128.671856,36.5156813 129.604856,36.7916813 C130.794856,37.1136813 131.686856,37.5666813 132.275856,38.1506813 L135.203856,36.7966813 C142.331856,35.7536813 146.614856,35.2006813 148.057856,35.1426813 C146.954856,45.7536813 146.128856,54.1776813 145.575856,60.4176813 C145.507856,61.1846813 145.444856,61.9166813 145.384856,62.6186813 C140.739856,82.1366813 137.048856,92.1166813 134.312856,92.5506813 C132.870856,92.7796813 131.808856,91.4626813 131.131856,88.5996813 C130.623856,86.5636813 130.452856,84.5546813 130.623856,82.5726813 C131.387856,73.4596813 132.827856,65.6386813 134.949856,59.1076813 L130.495856,58.2856813 L128.204856,54.0666813 C127.187856,52.2756813 124.810856,51.6756813 121.078856,52.2676813 C119.380856,52.5376813 117.301856,57.2776813 114.842856,66.4926813 C113.535856,71.8756813 112.637856,76.1786813 112.128856,79.4516813 C108.210856,92.5006813 104.618856,99.2906813 101.354856,99.8086813 C99.8288557,100.048681 98.3848557,99.3886813 97.0268557,97.8206813 C95.5858557,96.1836813 94.8648557,94.6446813 94.8648557,93.2016813 C96.9838557,89.5536813 98.7668557,86.0086813 100.207856,82.5536813 C103.856856,74.1726813 105.682856,66.8406813 105.682856,60.5616813 C105.682856,58.7826813 104.918856,57.3756813 103.391856,56.3426813 C101.863856,55.3146813 100.207856,54.9396813 98.4288557,55.2216813 C95.3738557,55.7036813 93.0418557,60.6986813 91.4288557,70.2016813 C91.1048557,72.0136813 90.8358557,73.7616813 90.6128557,75.4546813 C89.7568557,78.7086813 88.5908557,82.5656813 87.1028557,87.0496813 C84.0478557,96.4406813 81.7988557,101.250681 80.3578557,101.481681 C77.8928557,101.870681 76.6668557,100.071681 76.6668557,96.0816813 C76.6668557,94.6426813 76.7488557,92.8686813 76.9218557,90.7616813 C77.0878557,88.6576813 77.3448557,86.2206813 77.6848557,83.4506813 C78.0228557,80.5966813 78.2768557,78.1186813 78.4478557,76.0096813 C78.6168557,73.9076813 78.7018557,72.1326813 78.7018557,70.6916813 C78.7018557,68.2306813 76.8758557,66.3576813 73.2298557,65.0666813 C69.6678557,63.7676813 67.8858557,62.6906813 67.8858557,61.8376813 C67.8858557,61.5036813 67.9058557,60.9896813 67.9488557,60.3046813 C67.9908557,59.6186813 68.0548557,58.7596813 68.1378557,57.7286813 C68.2248557,56.8676813 68.2858557,56.1156813 68.3298557,55.4706813 C68.3698557,54.8276813 68.3498557,54.2576813 68.2678557,53.7616813 C68.1808557,51.1466813 67.2918557,49.9726813 65.5938557,50.2406813 C63.4738557,50.5806813 62.4128557,52.8676813 62.4128557,57.1076813 C62.4128557,58.0436813 62.7518557,59.4726813 63.4308557,61.3986813 C64.1078557,63.3306813 64.4488557,64.7186813 64.4488557,65.5666813 C64.4488557,67.1906813 64.1478557,69.3006813 63.5498557,71.8916813 C63.2208557,73.1296813 62.6768557,75.1706813 61.9948557,77.7266813 C61.4238557,79.8636813 60.7408557,82.3596813 59.9278557,84.9626813 C59.7178557,85.6076813 59.5018557,86.2616813 59.2858557,86.9216813 C59.0658557,87.5666813 58.8108557,88.1496813 58.5778557,88.7756813 C57.9958557,90.0976813 57.3788557,91.3926813 56.7018557,92.6306813 C56.0148557,93.8606813 55.3058557,95.0716813 54.4928557,96.1736813 C53.6978557,97.2926813 52.8578557,98.3336813 51.9968557,99.2926813 C51.1168557,100.233681 50.2118557,101.085681 49.3078557,101.835681 C48.8468557,102.196681 48.3988557,102.550681 47.9638557,102.892681 C47.5078557,103.203681 47.0658557,103.501681 46.6448557,103.788681 C45.7748557,104.327681 44.9588557,104.800681 44.2068557,105.167681 C43.4468557,105.513681 42.8128557,105.882681 42.2388557,106.077681 C41.1098557,106.497681 40.4688557,106.770681 40.4688557,106.770681 L40.4768557,106.798681 C36.1278557,108.377681 31.3588557,109.401681 31.3588557,109.401681 C20.8378557,111.067681 15.5778557,104.772681 15.5778557,90.5186813 C15.5778557,77.8776813 17.9968557,64.6006813 22.8338557,50.6806813 C28.0048557,35.6106813 33.7758557,27.5716813 40.1398557,26.5616813 C43.1938557,26.0776813 46.1618557,26.3296813 49.0478557,27.3146813 C52.6108557,28.4486813 54.3938557,30.4116813 54.3938557,33.2136813 C54.3938557,35.7546813 53.6708557,39.9426813 52.2298557,45.7706813 C50.7848557,51.5166813 50.0658557,55.5306813 50.0658557,57.8216813 C50.0658557,59.0946813 50.3598557,60.3196813 50.9578557,61.4996813 C51.6368557,63.0896813 52.5258557,63.7966813 53.6288557,63.6226813 C55.2388557,63.3666813 56.6828557,59.7416813 57.9578557,52.7556813 C58.9748557,47.1656813 59.4848557,42.8826813 59.4848557,39.9136813 C59.4848557,34.9936813 58.8458557,31.4856813 57.5758557,29.3976813 C56.6388557,27.7666813 54.7748557,26.3666813 51.9748557,25.1946813 C47.5618557,23.2626813 43.0228557,22.6696813 38.3568557,23.4076813 C35.0508557,23.9326813 32.5868557,24.8746813 30.9758557,26.2296813 C24.4418557,31.5086813 18.9708557,41.4956813 14.5598557,56.1926813 C10.9088557,68.2256813 9.08785571,78.9056813 9.08785571,88.2376813 C9.08785571,96.2996813 10.9538557,102.665681 14.6878557,107.331681 C18.9288557,112.429681 24.9948557,114.352681 32.8848557,113.102681 C37.0178557,112.448681 41.3738557,111.198681 45.8698557,109.006681 C45.9168557,108.987681 45.9588557,108.970681 46.0058557,108.951681 C46.8948557,108.558681 47.8658557,108.027681 48.9048557,107.424681 C49.4118557,107.098681 49.9388557,106.760681 50.4838557,106.408681 C51.0078557,106.029681 51.5388557,105.617681 52.0788557,105.185681 C53.1328557,104.300681 54.1808557,103.298681 55.1928557,102.193681 C56.1788557,101.072681 57.1548557,99.8756813 57.9928557,98.5636813 C58.8658557,97.2776813 59.6128557,95.8926813 60.3188557,94.5016813 C61.0148557,93.1066813 61.6268557,91.6926813 62.1698557,90.3176813 C62.4278557,89.5676813 62.7168557,88.8056813 62.9318557,88.0836813 C63.1218557,87.3726813 63.3108557,86.6676813 63.4978557,85.9786813 C64.1808557,83.2186813 64.7248557,80.6626813 65.1668557,78.4646813 C65.6498557,75.9766813 66.0068557,73.9516813 66.2258557,72.6626813 C66.9058557,69.7136813 67.2478557,67.6196813 67.2478557,66.3936813 C71.4018557,67.8566813 73.4838557,69.6046813 73.4838557,71.6416813 L73.2298557,81.8626813 C73.0588557,86.8996813 73.0588557,90.8416813 73.2298557,93.6986813 C73.3118557,97.5876813 73.7388557,100.108681 74.5028557,101.260681 C76.2858557,103.949681 78.4878557,105.084681 81.1198557,104.666681 C83.2758557,104.324681 86.1638557,98.5436813 89.7788557,87.3526813 C89.7778557,87.5326813 89.7728557,87.7166813 89.7728557,87.8966813 C89.7728557,91.7136813 90.6218557,95.1886813 92.3188557,98.3126813 C94.5238557,101.950681 97.4078557,103.485681 100.973856,102.920681 C103.520856,102.518681 105.767856,100.930681 107.716856,98.1626813 C109.064856,96.0916813 110.419856,93.2396813 111.782856,89.6186813 C112.353856,97.8456813 114.687856,101.641681 118.789856,100.990681 C122.265856,100.437681 125.107856,96.0416813 127.315856,87.8046813 C129.350856,93.6756813 131.938856,96.3616813 135.076856,95.8636813 C137.621856,95.4616813 140.675856,89.4636813 144.239856,77.8696813 C144.452856,77.1796813 144.657856,76.5096813 144.855856,75.8506813 C145.039856,78.6876813 145.464856,81.5076813 146.147856,84.3126813 C147.590856,89.8516813 149.753856,92.3946813 152.639856,91.9366813 C155.749856,91.4436813 159.046856,86.0066813 162.532856,75.6306813 C162.472856,76.8226813 162.439856,77.8946813 162.439856,78.8066813 C162.439856,81.6036813 162.903856,84.2016813 163.836856,86.6016813 C165.110856,89.4556813 167.058856,90.6716813 169.691856,90.2556813 C172.066856,89.8806813 174.100856,87.6936813 175.799856,83.6876813 C176.390856,82.2366813 177.793856,77.8596813 179.998856,70.5486813 C180.669856,68.2586813 181.260856,66.1856813 181.779856,64.3036813 L181.779856,65.0486813 C181.779856,69.8026813 182.161856,74.0256813 182.925856,77.7226813 C184.196856,83.8006813 186.363856,86.5976813 189.415856,86.1136813 C192.725856,85.5866813 195.692856,79.9866813 198.321856,69.3046813 C200.528856,60.3866813 201.633856,53.5506813 201.633856,48.7966813 C201.635856,41.7576813 200.490856,38.4216813 198.198856,38.7826813 L198.198856,38.7826813 Z M94.2318557,88.5936813 C94.2318557,79.6836813 95.7978557,70.2746813 98.9388557,60.3576813 C99.2738557,59.2056813 99.7848557,58.5706813 100.464856,58.4626813 C101.651856,58.2746813 102.246856,59.6246813 102.246856,62.5076813 C102.246856,65.8186813 101.440856,70.3996813 99.8298557,76.2536813 C98.0478557,82.9836813 96.1788557,87.0956813 94.2318557,88.5936813 L94.2318557,88.5936813 Z M127.316856,75.2106813 C127.144856,76.7636813 126.805856,78.5326813 126.295856,80.5226813 C125.788856,82.5126813 125.192856,84.6676813 124.516856,86.9756813 C122.733856,92.8586813 121.036856,96.3956813 119.423856,97.5846813 C118.234856,97.7726813 117.261856,97.1196813 116.498856,95.6276813 C115.902856,94.4496813 115.608856,93.1396813 115.608856,91.6956813 C115.608856,84.0586813 116.284856,77.5476813 117.643856,72.1586813 C118.234856,70.1136813 118.744856,68.2936813 119.170856,66.6976813 C119.593856,65.1036813 119.974856,63.8136813 120.314856,62.8246813 C121.417856,58.5786813 122.691856,56.3406813 124.132856,56.1136813 C125.913856,55.8286813 126.975856,57.6156813 127.316856,61.4656813 L128.843856,63.2586813 L127.316856,75.2106813 L127.316856,75.2106813 L127.316856,75.2106813 L127.316856,75.2106813 Z M127.316856,75.2106813" id="Shape" fill="#1B5E5F" transform="translate(105.360857, 65.760341) rotate(9.000000) translate(-105.360857, -65.760341) "></path><path d="M222.583492,25.9568826 C221.730492,26.0928826 220.867492,26.6968826 219.974492,27.7708826 C219.083492,28.8478826 218.639492,29.8088826 218.639492,30.6558826 C218.639492,32.0138826 219.147492,33.1638826 220.164492,34.1018826 C221.182492,35.0468826 222.371492,35.4108826 223.729492,35.1958826 C225.846492,34.8578826 226.909492,33.1218826 226.909492,29.9818826 C226.909492,26.8448826 225.466492,25.5008826 222.583492,25.9568826" id="Shape" fill="#1B5E5F" transform="translate(222.774492, 30.562988) rotate(9.000000) translate(-222.774492, -30.562988) "></path><path d="M301.988597,115.68983 C301.723597,115.25783 301.349597,114.89883 300.961597,114.69983 C300.188597,114.30583 299.483597,114.21183 298.773597,114.39883 C298.411597,114.09983 298.062597,113.77183 297.669597,113.40883 C297.522597,113.26783 297.377597,113.12183 297.233597,112.97683 C297.110597,112.84983 296.989597,112.72483 296.863597,112.59983 C296.631597,112.37483 296.396597,112.15883 296.157597,111.93983 L295.607597,111.44183 C295.253597,111.11983 294.896597,110.79883 294.544597,110.47283 C294.109597,110.07083 293.680597,109.66183 293.253597,109.25183 L292.088597,108.16183 C291.858597,107.95283 291.625597,107.74583 291.401597,107.53683 C291.282597,107.42583 291.166597,107.30683 291.051597,107.19283 C290.896597,107.03883 290.745597,106.88783 290.591597,106.74583 L289.023597,105.31783 C289.384597,105.09283 289.745597,104.87483 290.109597,104.65183 L295.765597,101.12483 C296.244597,100.82183 296.722597,100.52083 297.206597,100.22283 C297.507597,100.03683 297.811597,99.8558296 298.119597,99.6738296 C298.397597,99.5098296 298.675597,99.3458296 298.951597,99.1758296 C299.453597,98.8648296 299.958597,98.5448296 300.457597,98.2248296 L300.932597,97.9218296 C301.369597,97.6428296 301.554597,97.1638296 301.448597,96.6078296 C301.359597,96.1348296 300.970597,95.8188296 300.483597,95.8188296 L300.143597,95.8698296 C299.825597,95.9678296 299.515597,96.1058296 299.210597,96.2878296 C298.810597,96.5338296 298.414597,96.7898296 298.018597,97.0438296 L288.807597,102.80383 C288.785597,102.81783 288.757597,102.83483 288.732597,102.85083 L293.123597,83.9758296 C293.320597,83.1318296 293.517597,82.2848296 293.727597,81.4408296 C293.776597,81.2358296 293.810597,81.1828296 293.861597,81.1618296 C294.204597,81.0978296 294.425597,80.8828296 294.590597,80.7238296 L294.819597,80.5108296 C295.101597,80.3548296 295.426597,80.0518296 295.535597,79.4738296 C295.560597,79.3308296 295.595597,79.1908296 295.629597,79.0498296 L295.663597,78.8998296 C295.841597,78.0928296 295.471597,77.4588296 295.203597,76.9958296 C294.703597,76.1348296 293.839597,75.8668296 293.234597,75.7418296 C292.485597,75.5898296 291.787597,75.8828296 291.348597,76.1398296 C290.536597,76.6148296 290.050597,77.4188296 290.020597,78.3348296 C290.006597,78.6118296 290.032597,78.9008296 290.096597,79.2218296 C290.266597,80.0148296 290.793597,80.5308296 291.214597,80.9098296 C291.092597,81.3648296 290.985597,81.8298296 290.871597,82.3298296 L286.585597,100.81383 C286.570597,100.76883 286.553597,100.72383 286.539597,100.68183 C286.477597,100.50883 286.414597,100.33883 286.360597,100.16483 C286.232597,99.7568296 286.108597,99.3428296 285.985597,98.9328296 L285.682597,97.9318296 C285.540597,97.4678296 285.392597,97.0068296 285.244597,96.5438296 L285.009597,95.8208296 C284.955597,95.6728296 284.904597,95.5218296 284.862597,95.3698296 L284.298597,93.2858296 C284.210597,92.9768296 284.116597,92.6668296 284.017597,92.3638296 L283.838597,91.8228296 C283.760597,91.5958296 283.683597,91.3698296 283.612597,91.1388296 C283.543597,90.9158296 283.481597,90.6898296 283.421597,90.4668296 L283.289597,89.9878296 C283.208597,89.6888296 283.124597,89.3898296 283.033597,89.0948296 L282.349597,86.9268296 C282.292597,86.7408296 282.229597,86.5578296 282.122597,86.2668296 L282.039597,86.0308296 C281.954597,85.7888296 281.869597,85.5468296 281.758597,85.3058296 C281.602597,84.9798296 281.287597,84.7748296 280.939597,84.7748296 C280.527597,84.7748296 280.175597,85.0658296 280.087597,85.4758296 C280.019597,85.7808296 280.060597,86.0698296 280.100597,86.3608296 C280.122597,86.5468296 280.202597,86.6868296 280.249597,86.7588296 L280.396597,87.3198296 C280.459597,87.5618296 280.526597,87.8038296 280.593597,88.0468296 C280.686597,88.3668296 280.789597,88.6818296 280.892597,88.9998296 L281.043597,89.4748296 C281.107597,89.6678296 281.171597,89.8598296 281.224597,90.0608296 C281.267597,90.2228296 281.306597,90.3808296 281.343597,90.5428296 C281.409597,90.8128296 281.475597,91.0838296 281.557597,91.3458296 C281.748597,91.9438296 281.952597,92.5388296 282.152597,93.1308296 L282.447597,93.9938296 C282.536597,94.2618296 282.618597,94.5288296 282.691597,94.7948296 L283.050597,96.1618296 C283.125597,96.4348296 283.206597,96.7068296 283.286597,96.9728296 L283.856597,98.8678296 C283.911597,99.0588296 283.963597,99.2548296 284.024597,99.4518296 C284.086597,99.6378296 284.154597,99.8248296 284.221597,100.00883 C284.292597,100.20983 284.366597,100.40883 284.431597,100.61383 C284.485597,100.78783 284.539597,100.96183 284.593597,101.13483 C284.319597,100.88083 284.043597,100.62683 283.768597,100.37683 L283.632597,100.24983 C283.427597,100.06183 283.228597,99.8748296 283.024597,99.6928296 L282.645597,99.3588296 C282.471597,99.2108296 282.298597,99.0598296 282.133597,98.9018296 C281.906597,98.6828296 281.686597,98.4628296 281.462597,98.2418296 C281.206597,97.9818296 280.950597,97.7238296 280.685597,97.4718296 C280.375597,97.1828296 280.060597,96.8978296 279.741597,96.6148296 L279.073597,96.0108296 C278.929597,95.8798296 278.791597,95.7448296 278.651597,95.6108296 L278.120597,95.0928296 C277.874597,94.8528296 277.630597,94.6128296 277.308597,94.3178296 C277.422597,93.7538296 277.391597,93.2558296 277.212597,92.7048296 C276.915597,91.7908296 276.245597,91.3998296 275.709597,91.0878296 L275.566597,91.0058296 C275.223597,90.7948296 274.739597,90.8198296 274.443597,90.8828296 C274.381597,90.8948296 274.325597,90.9138296 274.265597,90.9138296 C273.387597,90.9368296 272.679597,91.3728296 272.109597,92.2498296 C271.637597,92.9798296 271.570597,93.7988296 271.911597,94.6168296 C272.159597,95.2168296 272.528597,95.8788296 273.382597,96.2208296 C273.846597,96.4068296 274.313597,96.4938296 274.805597,96.4938296 L275.238597,96.4488296 C275.567597,96.6758296 275.877597,96.9588296 276.297597,97.3468296 C276.442597,97.4798296 276.580597,97.6218296 276.717597,97.7668296 C276.860597,97.9128296 277.003597,98.0598296 277.158597,98.2028296 C277.417597,98.4388296 277.680597,98.6718296 277.945597,98.9058296 C278.205597,99.1348296 278.461597,99.3608296 278.716597,99.5918296 C279.122597,99.9668296 279.523597,100.34383 279.923597,100.72883 C280.074597,100.87183 280.221597,101.01783 280.362597,101.16683 L280.763597,101.56183 C281.027597,101.81983 281.299597,102.06983 281.572597,102.32183 L281.986597,102.69683 C282.133597,102.82783 282.279597,102.95883 282.419597,103.08783 L283.223597,103.86283 C283.175597,103.87083 283.134597,103.87683 283.087597,103.88383 C281.984597,104.05783 278.444597,103.99883 275.730597,105.11083 C274.540597,105.63583 266.542597,107.46783 265.694597,107.81583 C264.846597,108.16583 264.211597,108.41183 263.785597,108.56383 L263.533597,103.00283 C263.278597,97.8698296 263.149597,94.0708296 263.149597,91.6118296 C263.065597,84.4988296 263.107597,78.8088296 263.278597,74.5378296 C263.447597,70.2698296 263.741597,67.2958296 264.168597,65.6158296 C265.950597,58.9698296 266.840597,54.6748296 266.840597,52.7228296 C266.840597,51.5318296 266.162597,51.0858296 264.804597,51.3868296 C262.770597,51.7948296 261.624597,53.0798296 261.369597,55.2388296 C260.687597,61.0338296 260.095597,65.8778296 259.587597,69.7778296 C259.079597,73.6738296 258.697597,76.7058296 258.440597,78.8678296 C255.132597,92.1178296 252.377597,98.9168296 250.170597,99.2658296 C247.963597,99.6148296 246.860597,96.3538296 246.860597,89.4828296 C246.860597,87.7018296 246.944597,85.5218296 247.115597,82.9518296 C247.285597,80.3798296 247.538597,77.3718296 247.880597,73.9228296 L249.278597,60.7198296 C249.446597,59.5068296 248.811597,59.0148296 247.368597,59.2408296 C245.757597,59.4968296 244.653597,61.5788296 244.059597,65.4928296 C243.993597,66.5058296 243.926597,67.5178296 243.861597,68.5298296 C243.121597,71.7058296 242.383597,74.7298296 241.642597,77.5828296 C240.795597,80.8558296 239.904597,83.9248296 238.967597,86.7878296 C238.592597,87.9978296 238.229597,89.1228296 237.876597,90.1748296 C235.920597,95.2838296 234.078597,97.9988296 232.353597,98.2708296 C230.316597,98.5948296 229.127597,96.1948296 228.790597,91.0738296 C228.706597,90.1538296 228.643597,88.5098296 228.599597,86.1398296 C228.554597,83.7728296 228.536597,80.6768296 228.536597,76.8608296 C228.536597,70.2418296 229.555597,59.6438296 231.594597,45.0678296 L237.701597,44.2278296 C239.737597,43.9898296 241.686597,43.7238296 243.555597,43.4288296 C245.419597,43.1318296 247.201597,42.8508296 248.900597,42.5808296 C250.509597,42.3268296 252.927597,41.6468296 256.155597,40.5398296 C260.053597,39.2448296 262.176597,38.3598296 262.516597,37.8788296 L262.516597,36.9868296 C258.190597,37.5048296 254.560597,37.9738296 251.635597,38.3948296 C248.710597,38.8168296 246.398597,39.1158296 244.701597,39.3008296 C241.305597,39.7538296 238.611597,40.1168296 236.617597,40.3908296 C234.624597,40.6638296 233.288597,40.8538296 232.609597,40.9588296 C232.946597,39.3808296 233.245597,37.9338296 233.500597,36.6208296 C233.755597,35.3078296 233.966597,34.0878296 234.135597,32.9538296 L234.135597,30.2818296 C231.845597,29.1178296 230.150597,28.6248296 229.049597,28.7998296 C228.366597,28.9048296 227.902597,29.2758296 227.646597,29.9118296 L228.284597,32.1008296 C228.111597,34.3348296 227.983597,36.2438296 227.902597,37.8228296 C227.814597,39.4078296 227.729597,40.6738296 227.646597,41.6208296 C222.983597,42.5308296 219.122597,43.2888296 216.067597,43.8998296 C213.011597,44.5088296 210.677597,44.9448296 209.066597,45.1968296 C208.050597,45.3568296 207.540597,45.7398296 207.540597,46.3318296 C207.540597,46.8398296 208.006597,47.2358296 208.939597,47.5118296 C210.127597,47.8318296 211.018597,48.2828296 211.611597,48.8668296 L214.541597,47.5118296 C221.665597,46.4708296 225.950597,45.9198296 227.392597,45.8618296 C226.288597,56.4708296 225.462597,64.8948296 224.910597,71.1348296 C224.861597,71.6828296 224.818597,72.1938296 224.773597,72.7078296 C224.399597,74.2638296 224.042597,75.6978296 223.704597,76.9858296 C223.193597,78.9348296 222.726597,80.6228296 222.305597,82.0468296 C219.588597,91.0448296 218.186597,95.5958296 218.105597,95.6918296 C216.407597,100.20583 214.963597,102.55283 213.778597,102.74083 C211.233597,103.14483 209.960597,100.50283 209.960597,94.8168296 C209.960597,89.3908296 210.764597,82.6858296 212.379597,74.7098296 C212.802597,72.7778296 213.161597,71.1728296 213.459597,69.8918296 C213.757597,68.6188296 213.988597,67.6298296 214.160597,66.9188296 C214.160597,65.7328296 213.056597,65.3138296 210.852597,65.6628296 C209.747597,65.8368296 208.899597,66.2698296 208.304597,66.9578296 C208.304597,68.4828296 208.220597,70.4288296 208.052597,72.7838296 C207.879597,75.1448296 207.624597,77.9268296 207.287597,81.1158296 C206.948597,84.3088296 206.696597,87.0628296 206.523597,89.3818296 C206.355597,91.6978296 206.268597,93.6238296 206.268597,95.1498296 C206.268597,97.9468296 206.736597,100.54583 207.668597,102.94683 C208.941597,105.79883 210.892597,107.01483 213.522597,106.59883 C215.894597,106.22383 217.930597,104.03483 219.630597,100.03083 C220.223597,98.5818296 221.621597,94.2048296 223.830597,86.8958296 C223.942597,86.5128296 224.048597,86.1478296 224.155597,85.7768296 C224.304597,88.8818296 224.736597,91.9678296 225.483597,95.0328296 C226.459597,98.7788296 227.763597,101.14883 229.398597,102.15283 C229.406597,102.15883 229.404597,102.16183 229.413597,102.16783 C229.428597,102.17683 229.441597,102.18383 229.456597,102.19183 C229.476597,102.20283 229.494597,102.21283 229.514597,102.22383 C230.733597,102.95283 231.636597,103.03283 233.467597,102.45383 C235.730597,101.73883 238.066597,97.8738296 241.507597,87.3928296 C241.848597,86.4078296 242.191597,85.3908296 242.535597,84.3108296 C242.586597,84.1468296 242.633597,83.9918296 242.682597,83.8288296 C242.498597,86.7918296 242.406597,89.2978296 242.406597,91.3348296 C242.406597,94.3038296 242.958597,96.8038296 244.060597,98.8348296 C245.416597,101.41883 247.453597,102.49683 250.170597,102.06483 C252.207597,101.74283 253.943597,100.11383 255.386597,97.1668296 C256.150597,95.4368296 256.808597,93.9318296 257.362597,92.6548296 C257.912597,91.3798296 258.357597,90.2938296 258.698597,89.3908296 C259.969597,94.2798296 260.606597,101.25983 260.606597,110.33783 C255.089597,112.39983 249.322597,116.02683 243.297597,121.22483 C235.663597,127.94983 231.844597,134.40883 231.844597,140.59983 C231.844597,142.63683 232.205597,144.48883 232.927597,146.15483 C233.647597,147.82683 234.645597,149.21583 235.914597,150.33283 C237.189597,151.44383 238.698597,152.24283 240.435597,152.73083 C242.173597,153.21883 244.060597,153.30283 246.099597,152.97883 C258.569597,151.00183 264.804597,140.30083 264.804597,120.87383 C264.804597,120.36383 264.784597,119.66883 264.740597,118.78383 C264.697597,117.90083 264.657597,116.99483 264.615597,116.06683 C264.572597,115.14083 264.527597,114.23483 264.487597,113.35183 C264.444597,112.46683 264.425597,111.77183 264.425597,111.26383 C268.242597,109.38283 277.809597,106.94183 279.166597,106.72883 C279.761597,106.63283 280.673597,106.55283 281.904597,106.48483 C282.237597,106.46583 282.603597,106.45183 282.991597,106.44083 C282.716597,106.61483 282.443597,106.78783 282.165597,106.96183 C281.926597,107.11183 281.680597,107.25683 281.436597,107.40083 C281.202597,107.54183 280.968597,107.67983 280.736597,107.82483 C280.458597,107.99683 280.182597,108.17883 279.908597,108.35783 C279.646597,108.52783 279.386597,108.69583 279.122597,108.86183 C278.887597,109.00983 278.648597,109.15083 278.407597,109.29183 C278.186597,109.42283 277.963597,109.55183 277.746597,109.68983 C277.377597,109.91683 277.012597,110.15083 276.643597,110.38483 L275.893597,110.86383 C275.675597,110.99883 275.455597,111.12983 275.235597,111.25983 L274.045597,111.98883 C273.655597,112.23283 273.262597,112.47883 272.870597,112.71783 C272.275597,113.06983 272.061597,113.77483 272.380597,114.31783 C272.702597,114.87083 273.423597,115.13183 274.175597,114.61483 C274.414597,114.45083 274.654597,114.28283 274.904597,114.13083 L275.659597,113.67583 C275.948597,113.50383 276.236597,113.32983 276.525597,113.15083 L277.605597,112.46183 C278.062597,112.16883 278.519597,111.87583 278.983597,111.58483 C279.352597,111.35483 279.720597,111.13183 280.093597,110.90683 C280.422597,110.70783 280.753597,110.51083 281.082597,110.30483 C281.435597,110.08383 281.791597,109.85783 282.145597,109.62883 L283.058597,109.05083 C283.680597,108.66183 284.301597,108.27383 284.945597,107.88483 C284.863597,108.24783 284.778597,108.61183 284.692597,108.97483 L279.999597,129.16783 C279.964597,129.32783 279.928597,129.49183 279.917597,129.59183 C279.806597,129.65783 279.685597,129.71483 279.563597,129.76983 C279.287597,129.90083 278.967597,130.04683 278.700597,130.30083 C278.280597,130.68983 277.721597,131.31483 277.767597,132.23483 C277.779597,132.49883 277.789597,132.79883 277.867597,133.10783 C278.083597,133.93983 278.640597,134.58983 279.526597,135.04383 C279.793597,135.17883 280.087597,135.24683 280.396597,135.24683 C280.777597,135.24683 281.121597,135.14683 281.426597,135.05883 L281.629597,134.99883 C282.071597,134.87583 282.436597,134.57083 282.668597,134.33283 C282.887597,134.10383 283.015597,133.84083 283.128597,133.60783 L283.228597,133.41483 C283.319597,133.23483 283.448597,132.99083 283.445597,132.68483 C283.437597,131.96583 283.326597,130.92883 282.400597,130.18083 C282.397597,130.16483 282.397597,130.11083 282.438597,129.94283 L287.170597,109.58583 C287.252597,109.81783 287.331597,110.05683 287.397597,110.29083 C287.451597,110.48183 287.497597,110.67783 287.545597,110.87283 C287.608597,111.13083 287.671597,111.39083 287.746597,111.64783 C287.815597,111.88183 287.893597,112.11283 287.972597,112.34083 C288.033597,112.51683 288.092597,112.69083 288.149597,112.86983 C288.317597,113.40483 288.484597,113.94383 288.646597,114.48283 L289.263597,116.56483 C289.333597,116.81483 289.402597,117.06483 289.476597,117.30883 C289.643597,117.86183 289.819597,118.41083 289.993597,118.95883 L290.239597,119.70283 C290.285597,119.83383 290.331597,119.96483 290.370597,120.10283 C290.418597,120.27283 290.462597,120.44483 290.506597,120.61883 C290.564597,120.85083 290.623597,121.08383 290.694597,121.30983 C290.827597,121.74783 290.965597,122.18183 291.103597,122.61483 L291.582597,124.16183 C291.688597,124.50983 291.794597,124.85683 291.902597,125.20483 C292.005597,125.51883 292.352597,125.84583 292.800597,125.84583 L292.806597,125.84583 C293.129597,125.82283 293.610597,125.57583 293.675597,125.09183 C293.705597,124.87283 293.736597,124.54283 293.688597,124.20483 C293.658597,124.00183 293.594597,123.80283 293.527597,123.60483 L293.092597,122.19483 C293.025597,121.96783 292.960597,121.74183 292.887597,121.51683 L292.710597,120.98383 C292.638597,120.77883 292.568597,120.57783 292.508597,120.37083 C292.444597,120.16583 292.386597,119.95883 292.329597,119.74983 L291.608597,117.35883 C291.543597,117.13383 291.477597,116.90783 291.407597,116.68283 L291.146597,115.88583 C291.021597,115.52083 290.899597,115.15383 290.789597,114.78583 C290.681597,114.42283 290.583597,114.05583 290.485597,113.68983 C290.401597,113.37783 290.318597,113.06283 290.229597,112.75183 C290.130597,112.40783 290.019597,112.06583 289.909597,111.72683 L289.441597,110.21683 C289.356597,109.93983 289.264597,109.66583 289.175597,109.39283 L290.501597,110.65483 C290.828597,110.98083 291.156597,111.30083 291.494597,111.61583 C291.759597,111.86383 292.033597,112.10383 292.306597,112.34083 C292.544597,112.54983 292.785597,112.75683 293.013597,112.96983 C293.380597,113.30783 293.741597,113.64783 294.101597,113.98983 L295.755597,115.53483 C296.029597,115.79083 296.301597,116.04683 296.616597,116.34883 C296.680597,116.41083 296.780597,116.51683 296.811597,116.45283 C296.547597,117.29483 296.809597,117.98583 297.033597,118.43183 C297.322597,119.01383 297.788597,119.46083 298.414597,119.75983 C298.982597,120.03483 299.581597,120.07183 300.361597,119.85583 C301.024597,119.66783 301.593597,119.24683 301.958597,118.66683 C302.557597,117.72283 302.567597,116.63883 301.988597,115.68983 L301.988597,115.68983 Z M260.991597,122.24283 C260.991597,128.26583 259.845597,133.92083 257.553597,139.20183 C254.668597,145.85383 250.468597,149.61583 244.953597,150.48883 C243.679597,150.68983 242.474597,150.58483 241.327597,150.17283 C240.181597,149.75883 239.183597,149.11183 238.337597,148.22983 C237.489597,147.34683 236.831597,146.30383 236.363597,145.10683 C235.898597,143.90583 235.665597,142.62683 235.665597,141.27083 C235.665597,136.51883 237.869597,131.62983 242.281597,126.60683 C247.287597,120.80683 253.522597,116.29783 260.991597,113.07983 L260.991597,122.24283 L260.991597,122.24283 L260.991597,122.24283 L260.991597,122.24283 Z M260.991597,122.24283" id="Shape" fill="#1B5E5F" transform="translate(254.342036, 90.968752) rotate(9.000000) translate(-254.342036, -90.968752) "></path><path d="M175.069763,32.238436 C177.188763,31.901436 178.251763,30.165436 178.251763,27.027436 C178.251763,23.887436 176.805763,22.545436 173.924763,23.004436 C173.075763,23.138436 172.205763,23.740436 171.315763,24.815436 C170.425763,25.891436 169.977763,26.852436 169.977763,27.698436 C169.977763,29.058436 170.486763,30.208436 171.504763,31.149436 C172.526763,32.091436 173.709763,32.452436 175.069763,32.238436" id="Shape" fill="#FFFFFF" transform="translate(174.114763, 27.607413) rotate(9.000000) translate(-174.114763, -27.607413) "></path><path d="M196.050656,35.8274063 C195.455656,35.9254063 195.157656,36.2234063 195.157656,36.7324063 C195.157656,36.4764063 195.455656,37.6644063 196.050656,40.2824063 L196.050656,49.5724063 C196.050656,52.8804063 195.031656,58.3054063 192.995656,65.8374063 C190.788656,73.9934063 189.049656,78.1714063 187.776656,78.3734063 C185.231656,78.7724063 183.958656,73.7154063 183.958656,63.1934063 C183.958656,62.5164063 184.001656,61.6194063 184.085656,60.5024063 C184.170656,59.3874063 184.294656,58.0944063 184.469656,56.6244063 C184.637656,55.1544063 184.788656,53.8384063 184.913656,52.6734063 C185.041656,51.5074063 185.103656,50.5884063 185.103656,49.9044063 C185.103656,47.2754063 183.788656,46.1284063 181.161656,46.4584063 C180.477656,46.5634063 180.055656,46.7614063 179.887656,47.0424063 C179.715656,47.3234063 179.633656,47.5904063 179.633656,47.8434063 C179.633656,48.0974063 179.715656,48.5544063 179.887656,49.2034063 L179.887656,49.2504063 C179.710656,49.7174063 179.540656,50.2714063 179.380656,50.9384063 C178.784656,53.4974063 178.234656,55.7484063 177.726656,57.6924063 C177.216656,59.6404063 176.748656,61.3264063 176.326656,62.7504063 C173.610656,71.7504063 172.210656,76.3024063 172.125656,76.3964063 C170.427656,80.9094063 168.988656,83.2574063 167.798656,83.4454063 C165.254656,83.8484063 163.980656,81.2104063 163.980656,75.5234063 C163.980656,70.0954063 164.787656,63.3904063 166.400656,55.4144063 C166.821656,53.4834063 167.182656,51.8774063 167.481656,50.5954063 C167.777656,49.3224063 168.010656,48.3334063 168.180656,47.6244063 C168.180656,46.4364063 167.079656,46.0174063 164.874656,46.3674063 C163.769656,46.5394063 162.921656,46.9744063 162.324656,47.6624063 C162.324656,49.1874063 162.240656,51.1334063 162.072656,53.4884063 C161.973656,54.8514063 161.843656,56.3704063 161.688656,58.0094063 C157.685656,75.2104063 154.079656,84.0924063 150.874656,84.6004063 C148.836656,84.9214063 147.648656,82.5234063 147.310656,77.3994063 C147.226656,76.4804063 147.163656,74.8374063 147.118656,72.4674063 C147.077656,70.1004063 147.056656,67.0054063 147.056656,63.1874063 C147.056656,56.5724063 148.074656,45.9714063 150.110656,31.3954063 L156.219656,30.5554063 C158.258656,30.3184063 160.206656,30.0504063 162.074656,29.7554063 C163.940656,29.4594063 165.719656,29.1784063 167.420656,28.9084063 C169.028656,28.6534063 171.447656,27.9734063 174.673656,26.8704063 C178.571656,25.5724063 180.694656,24.6854063 181.036656,24.2064063 L181.036656,23.3174063 C176.707656,23.8324063 173.080656,24.3014063 170.153656,24.7214063 C167.227656,25.1444063 164.914656,25.4454063 163.219656,25.6284063 C159.824656,26.0824063 157.128656,26.4434063 155.135656,26.7184063 C153.143656,26.9934063 151.806656,27.1804063 151.126656,27.2894063 C151.466656,25.7084063 151.765656,24.2614063 152.017656,22.9484063 C152.273656,21.6364063 152.484656,20.4154063 152.654656,19.2834063 L152.654656,16.6104063 C150.364656,15.4474063 148.665656,14.9544063 147.564656,15.1274063 C146.883656,15.2354063 146.418656,15.6074063 146.164656,16.2394063 L146.801656,18.4294063 C146.630656,20.6634063 146.502656,22.5714063 146.418656,24.1534063 C146.334656,25.7374063 146.249656,27.0014063 146.164656,27.9464063 C141.498656,28.8574063 137.636656,29.6164063 134.584656,30.2264063 C131.529656,30.8384063 129.197656,31.2704063 127.585656,31.5254063 C126.565656,31.6874063 126.057656,32.0674063 126.057656,32.6604063 C126.057656,33.1694063 126.523656,33.5604063 127.456656,33.8364063 C128.646656,34.1594063 129.538656,34.6124063 130.127656,35.1964063 L133.055656,33.8424063 C140.183656,32.7984063 144.466656,32.2464063 145.910656,32.1874063 C144.807656,42.7984063 143.981656,51.2224063 143.428656,57.4624063 C143.360656,58.2294063 143.297656,58.9614063 143.237656,59.6634063 C138.592656,79.1814063 134.901656,89.1624063 132.165656,89.5964063 C130.723656,89.8244063 129.661656,88.5074063 128.984656,85.6454063 C128.476656,83.6074063 128.305656,81.5994063 128.476656,79.6184063 C129.240656,70.5044063 130.680656,62.6834063 132.802656,56.1534063 L128.348656,55.3314063 L126.057656,51.1124063 C125.040656,49.3204063 122.663656,48.7204063 118.931656,49.3134063 C117.233656,49.5834063 115.154656,54.3234063 112.695656,63.5374063 C111.388656,68.9204063 110.490656,73.2234063 109.981656,76.4964063 C106.063656,89.5464063 102.471656,96.3354063 99.2076559,96.8534063 C97.6816559,97.0934063 96.2376559,96.4334063 94.8796559,94.8654063 C93.4386559,93.2284063 92.7176559,91.6894063 92.7176559,90.2464063 C94.8366559,86.5994063 96.6196559,83.0534063 98.0606559,79.5994063 C101.709656,71.2184063 103.535656,63.8864063 103.535656,57.6084063 C103.535656,55.8274063 102.771656,54.4214063 101.244656,53.3874063 C99.7166559,52.3584063 98.0606559,51.9834063 96.2816559,52.2674063 C93.2266559,52.7494063 90.8946559,57.7434063 89.2816559,67.2474063 C88.9576559,69.0594063 88.6886559,70.8054063 88.4656559,72.4984063 C87.6096559,75.7534063 86.4436559,79.6094063 84.9556559,84.0944063 C81.9006559,93.4864063 79.6516559,98.2964063 78.2106559,98.5274063 C75.7456559,98.9164063 74.5196559,97.1174063 74.5196559,93.1274063 C74.5196559,91.6884063 74.6016559,89.9134063 74.7746559,87.8064063 C74.9406559,85.7024063 75.1976559,83.2664063 75.5376559,80.4954063 C75.8756559,77.6414063 76.1296559,75.1634063 76.3006559,73.0554063 C76.4696559,70.9534063 76.5546559,69.1774063 76.5546559,67.7364063 C76.5546559,65.2754063 74.7286559,63.4034063 71.0826559,62.1124063 C67.5206559,60.8124063 65.7386559,59.7344063 65.7386559,58.8834063 C65.7386559,58.5484063 65.7586559,58.0354063 65.8016559,57.3494063 C65.8436559,56.6644063 65.9076559,55.8054063 65.9906559,54.7744063 C66.0776559,53.9124063 66.1386559,53.1604063 66.1826559,52.5164063 C66.2226559,51.8734063 66.2026559,51.3024063 66.1206559,50.8074063 C66.0336559,48.1934063 65.1446559,47.0184063 63.4466559,47.2864063 C61.3266559,47.6254063 60.2656559,49.9124063 60.2656559,54.1534063 C60.2656559,55.0894063 60.6046559,56.5184063 61.2836559,58.4444063 C61.9606559,60.3764063 62.3016559,61.7634063 62.3016559,62.6114063 C62.3016559,64.2344063 62.0006559,66.3464063 61.4026559,68.9384063 C61.0726559,70.1764063 60.5296559,72.2174063 59.8476559,74.7714063 C59.2766559,76.9084063 58.5936559,79.4044063 57.7806559,82.0084063 C57.5706559,82.6524063 57.3546559,83.3064063 57.1386559,83.9674063 C56.9186559,84.6114063 56.6636559,85.1944063 56.4306559,85.8204063 C55.8486559,87.1424063 55.2316559,88.4384063 54.5546559,89.6754063 C53.8676559,90.9054063 53.1586559,92.1174063 52.3456559,93.2184063 C51.5506559,94.3374063 50.7106559,95.3784063 49.8496559,96.3384063 C48.9696559,97.2794063 48.0646559,98.1314063 47.1606559,98.8804063 C46.6996559,99.2424063 46.2516559,99.5954063 45.8166559,99.9374063 C45.3606559,100.248406 44.9186559,100.547406 44.4976559,100.834406 C43.6276559,101.373406 42.8116559,101.846406 42.0596559,102.212406 C41.2996559,102.558406 40.6656559,102.927406 40.0916559,103.123406 C38.9626559,103.543406 38.3216559,103.815406 38.3216559,103.815406 L38.3296559,103.843406 C33.9806559,105.422406 29.2116559,106.446406 29.2116559,106.446406 C18.6906559,108.112406 13.4306559,101.817406 13.4306559,87.5634063 C13.4306559,74.9234063 15.8496559,61.6454063 20.6866559,47.7264063 C25.8576559,32.6554063 31.6286559,24.6164063 37.9926559,23.6064063 C41.0466559,23.1234063 44.0146559,23.3744063 46.9006559,24.3584063 C50.4636559,25.4934063 52.2466559,27.4574063 52.2466559,30.2584063 C52.2466559,32.8004063 51.5236559,36.9874063 50.0826559,42.8174063 C48.6376559,48.5614063 47.9186559,52.5754063 47.9186559,54.8664063 C47.9186559,56.1394063 48.2126559,57.3654063 48.8106559,58.5454063 C49.4896559,60.1354063 50.3786559,60.8414063 51.4816559,60.6674063 C53.0916559,60.4114063 54.5356559,56.7874063 55.8106559,49.8004063 C56.8276559,44.2104063 57.3376559,39.9274063 57.3376559,36.9594063 C57.3376559,32.0384063 56.6986559,28.5314063 55.4286559,26.4434063 C54.4916559,24.8124063 52.6276559,23.4114063 49.8276559,22.2394063 C45.4146559,20.3084063 40.8756559,19.7154063 36.2096559,20.4524063 C32.9036559,20.9774063 30.4396559,21.9194063 28.8286559,23.2764063 C22.2946559,28.5534063 16.8236559,38.5414063 12.4126559,53.2384063 C8.76165588,65.2704063 6.94065588,75.9514063 6.94065588,85.2834063 C6.94065588,93.3454063 8.80665588,99.7104063 12.5406559,104.376406 C16.7816559,109.475406 22.8476559,111.397406 30.7376559,110.148406 C34.8706559,109.493406 39.2266559,108.243406 43.7236559,106.051406 C43.7696559,106.032406 43.8116559,106.015406 43.8586559,105.996406 C44.7476559,105.603406 45.7186559,105.073406 46.7576559,104.470406 C47.2646559,104.144406 47.7916559,103.806406 48.3366559,103.454406 C48.8606559,103.074406 49.3916559,102.662406 49.9316559,102.231406 C50.9856559,101.345406 52.0336559,100.343406 53.0456559,99.2384063 C54.0316559,98.1184063 55.0076559,96.9214063 55.8456559,95.6074063 C56.7186559,94.3224063 57.4656559,92.9374063 58.1716559,91.5474063 C58.8676559,90.1514063 59.4796559,88.7374063 60.0226559,87.3634063 C60.2806559,86.6124063 60.5696559,85.8504063 60.7846559,85.1294063 C60.9746559,84.4174063 61.1636559,83.7134063 61.3506559,83.0234063 C62.0336559,80.2644063 62.5776559,77.7084063 63.0196559,75.5094063 C63.5026559,73.0204063 63.8596559,70.9964063 64.0786559,69.7064063 C64.7586559,66.7584063 65.1006559,64.6654063 65.1006559,63.4404063 C69.2546559,64.9014063 71.3366559,66.6504063 71.3366559,68.6874063 L71.0826559,78.9084063 C70.9116559,83.9444063 70.9116559,87.8864063 71.0826559,90.7444063 C71.1646559,94.6334063 71.5916559,97.1534063 72.3556559,98.3064063 C74.1386559,100.994406 76.3406559,102.129406 78.9726559,101.712406 C81.1296559,101.369406 84.0206559,95.5804063 87.6386559,84.3754063 C87.6376559,84.5604063 87.6256559,84.7584063 87.6256559,84.9404063 C87.6256559,88.7574063 88.4746559,92.2324063 90.1716559,95.3554063 C92.3766559,98.9954063 95.2606559,100.530406 98.8266559,99.9654063 C101.373656,99.5624063 103.620656,97.9744063 105.569656,95.2074063 C106.917656,93.1364063 108.272656,90.2834063 109.635656,86.6624063 C110.206656,94.8894063 112.540656,98.6854063 116.642656,98.0354063 C120.118656,97.4824063 122.960656,93.0864063 125.168656,84.8484063 C127.203656,90.7194063 129.791656,93.4064063 132.929656,92.9074063 C135.474656,92.5054063 138.528656,86.5074063 142.092656,74.9144063 C142.305656,74.2244063 142.510656,73.5534063 142.708656,72.8954063 C142.892656,75.7324063 143.317656,78.5524063 144.000656,81.3564063 C145.443656,86.8974063 147.606656,89.4384063 150.492656,88.9794063 C153.602656,88.4874063 156.899656,83.0514063 160.385656,72.6744063 C160.325656,73.8674063 160.292656,74.9394063 160.292656,75.8504063 C160.292656,78.6474063 160.756656,81.2464063 161.689656,83.6454063 C162.963656,86.4994063 164.911656,87.7154063 167.544656,87.2994063 C169.919656,86.9244063 171.953656,84.7374063 173.652656,80.7314063 C174.243656,79.2804063 175.646656,74.9034063 177.851656,67.5934063 C178.522656,65.3034063 179.113656,63.2294063 179.632656,61.3484063 L179.632656,62.0934063 C179.632656,66.8464063 180.014656,71.0704063 180.778656,74.7664063 C182.049656,80.8454063 184.216656,83.6424063 187.268656,83.1574063 C190.578656,82.6314063 193.544656,77.0304063 196.174656,66.3484063 C198.381656,57.4304063 199.486656,50.5954063 199.486656,45.8414063 C199.487656,38.8024063 198.342656,35.4664063 196.050656,35.8274063 L196.050656,35.8274063 Z M92.0836559,85.6374063 C92.0836559,76.7284063 93.6496559,67.3184063 96.7906559,57.4024063 C97.1256559,56.2504063 97.6366559,55.6154063 98.3166559,55.5074063 C99.5036559,55.3184063 100.098656,56.6694063 100.098656,59.5514063 C100.098656,62.8624063 99.2926559,67.4434063 97.6816559,73.2984063 C95.8996559,80.0284063 94.0306559,84.1404063 92.0836559,85.6374063 L92.0836559,85.6374063 Z M125.168656,72.2544063 C124.996656,73.8084063 124.657656,75.5764063 124.147656,77.5674063 C123.640656,79.5574063 123.044656,81.7114063 122.368656,84.0204063 C120.585656,89.9024063 118.888656,93.4394063 117.275656,94.6284063 C116.086656,94.8164063 115.113656,94.1634063 114.350656,92.6714063 C113.754656,91.4944063 113.460656,90.1844063 113.460656,88.7394063 C113.460656,81.1034063 114.136656,74.5914063 115.495656,69.2034063 C116.086656,67.1584063 116.596656,65.3374063 117.022656,63.7414063 C117.445656,62.1494063 117.826656,60.8564063 118.166656,59.8684063 C119.269656,55.6224063 120.543656,53.3844063 121.984656,53.1574063 C123.765656,52.8734063 124.827656,54.6604063 125.168656,58.5094063 L126.695656,60.3024063 L125.168656,72.2544063 L125.168656,72.2544063 L125.168656,72.2544063 L125.168656,72.2544063 Z M125.168656,72.2544063" id="Shape" fill="#FFFFFF" transform="translate(103.213656, 62.805520) rotate(9.000000) translate(-103.213656, -62.805520) "></path><path d="M220.435596,23.0004743 C219.581596,23.1364743 218.719596,23.7404743 217.826596,24.8144743 C216.935596,25.8914743 216.491596,26.8524743 216.491596,27.6994743 C216.491596,29.0574743 216.998596,30.2084743 218.016596,31.1454743 C219.034596,32.0914743 220.223596,32.4534743 221.581596,32.2384743 C223.698596,31.9014743 224.761596,30.1654743 224.761596,27.0254743 C224.761596,23.8884743 223.318596,22.5444743 220.435596,23.0004743" id="Shape" fill="#FFFFFF" transform="translate(220.626596, 27.606167) rotate(9.000000) translate(-220.626596, -27.606167) "></path><path d="M299.84026,112.733641 C299.57526,112.302641 299.20126,111.942641 298.81326,111.743641 C298.04026,111.348641 297.33526,111.256641 296.62526,111.443641 C296.26326,111.144641 295.91426,110.816641 295.52126,110.453641 C295.37426,110.311641 295.22926,110.166641 295.08526,110.021641 C294.96226,109.893641 294.84126,109.768641 294.71526,109.644641 C294.48326,109.419641 294.24826,109.202641 294.00926,108.983641 L293.45926,108.485641 C293.10526,108.163641 292.74826,107.842641 292.39626,107.516641 C291.96126,107.114641 291.53226,106.705641 291.10526,106.296641 L289.94026,105.205641 C289.71026,104.997641 289.47726,104.790641 289.25326,104.581641 C289.13426,104.469641 289.01826,104.351641 288.90326,104.236641 C288.74826,104.083641 288.59726,103.931641 288.44326,103.789641 L286.87526,102.361641 C287.23626,102.137641 287.59726,101.919641 287.96126,101.695641 L293.61726,98.1696415 C294.09626,97.8656415 294.57426,97.5656415 295.05826,97.2666415 C295.35926,97.0806415 295.66326,96.8996415 295.97126,96.7186415 C296.24926,96.5536415 296.52726,96.3896415 296.80326,96.2196415 C297.30526,95.9086415 297.81026,95.5886415 298.30926,95.2696415 L298.78426,94.9656415 C299.22126,94.6876415 299.40626,94.2076415 299.30026,93.6526415 C299.21126,93.1786415 298.82226,92.8636415 298.33526,92.8636415 L297.99526,92.9146415 C297.67726,93.0116415 297.36726,93.1496415 297.06226,93.3326415 C296.66226,93.5776415 296.26626,93.8336415 295.87026,94.0886415 L286.65926,99.8476415 C286.63726,99.8626415 286.60926,99.8786415 286.58426,99.8956415 L290.97526,81.0196415 C291.17226,80.1756415 291.36926,79.3286415 291.57926,78.4856415 C291.62826,78.2796415 291.66226,78.2276415 291.71326,78.2056415 C292.05626,78.1416415 292.27726,77.9276415 292.44226,77.7686415 L292.67126,77.5546415 C292.95326,77.3986415 293.27826,77.0956415 293.38726,76.5176415 C293.41226,76.3746415 293.44726,76.2356415 293.48126,76.0936415 L293.51526,75.9436415 C293.69326,75.1376415 293.32326,74.5036415 293.05526,74.0406415 C292.55526,73.1786415 291.69126,72.9116415 291.08626,72.7866415 C290.33726,72.6336415 289.63926,72.9266415 289.20026,73.1836415 C288.38826,73.6586415 287.90226,74.4626415 287.87226,75.3796415 C287.85826,75.6566415 287.88426,75.9456415 287.94826,76.2656415 C288.11826,77.0586415 288.64526,77.5756415 289.06626,77.9536415 C288.94426,78.4096415 288.83726,78.8746415 288.72326,79.3746415 L284.43726,97.8576415 C284.42226,97.8136415 284.40526,97.7686415 284.39126,97.7246415 C284.32926,97.5536415 284.26626,97.3836415 284.21226,97.2096415 C284.08426,96.8006415 283.96026,96.3876415 283.83726,95.9766415 L283.53426,94.9746415 C283.39226,94.5116415 283.24426,94.0506415 283.09626,93.5876415 L282.86126,92.8656415 C282.80726,92.7166415 282.75626,92.5656415 282.71426,92.4136415 L282.15026,90.3306415 C282.06226,90.0206415 281.96826,89.7106415 281.86926,89.4086415 L281.69026,88.8676415 C281.61226,88.6396415 281.53526,88.4136415 281.46426,88.1836415 C281.39526,87.9606415 281.33326,87.7346415 281.27326,87.5106415 L281.14126,87.0326415 C281.06026,86.7326415 280.97626,86.4346415 280.88526,86.1386415 L280.20126,83.9726415 C280.14426,83.7846415 280.08126,83.6016415 279.97426,83.3116415 L279.89126,83.0756415 C279.80626,82.8326415 279.72126,82.5916415 279.61026,82.3506415 C279.45426,82.0236415 279.13926,81.8196415 278.79126,81.8196415 C278.37926,81.8196415 278.02726,82.1096415 277.93926,82.5206415 C277.87126,82.8246415 277.91226,83.1136415 277.95226,83.4046415 C277.97426,83.5906415 278.05426,83.7306415 278.10126,83.8026415 L278.24826,84.3636415 C278.31126,84.6056415 278.37826,84.8476415 278.44526,85.0906415 C278.53826,85.4106415 278.64126,85.7266415 278.74426,86.0436415 L278.89526,86.5186415 C278.95926,86.7126415 279.02326,86.9046415 279.07626,87.1056415 C279.11926,87.2666415 279.15826,87.4256415 279.19526,87.5876415 C279.26126,87.8576415 279.32726,88.1286415 279.40926,88.3896415 C279.60026,88.9886415 279.80426,89.5836415 280.00426,90.1746415 L280.29926,91.0386415 C280.38826,91.3076415 280.47026,91.5726415 280.54326,91.8396415 L280.90226,93.2066415 C280.97726,93.4786415 281.05826,93.7506415 281.13826,94.0176415 L281.70826,95.9126415 C281.76326,96.1036415 281.81526,96.2986415 281.87626,96.4966415 C281.93826,96.6836415 282.00626,96.8686415 282.07326,97.0536415 C282.14426,97.2546415 282.21826,97.4536415 282.28326,97.6576415 C282.33726,97.8316415 282.39126,98.0066415 282.44526,98.1796415 C282.17126,97.9256415 281.89526,97.6716415 281.62026,97.4206415 L281.48426,97.2936415 C281.27926,97.1056415 281.08026,96.9186415 280.87626,96.7376415 L280.50026,96.4036415 C280.32626,96.2566415 280.15326,96.1056415 279.98826,95.9476415 C279.76126,95.7286415 279.54126,95.5076415 279.31726,95.2866415 C279.06126,95.0276415 278.80526,94.7696415 278.54026,94.5176415 C278.23026,94.2276415 277.91526,93.9436415 277.59626,93.6606415 L276.92826,93.0576415 C276.78426,92.9256415 276.64626,92.7896415 276.50626,92.6556415 L275.97526,92.1376415 C275.72926,91.8986415 275.48526,91.6576415 275.16326,91.3636415 C275.27726,90.7986415 275.24626,90.3006415 275.06726,89.7496415 C274.77026,88.8356415 274.10026,88.4446415 273.56426,88.1326415 L273.42126,88.0506415 C273.07826,87.8406415 272.59426,87.8656415 272.29826,87.9286415 C272.23626,87.9406415 272.18026,87.9586415 272.12026,87.9586415 C271.24226,87.9816415 270.53426,88.4186415 269.96426,89.2956415 C269.49226,90.0246415 269.42526,90.8446415 269.76626,91.6616415 C270.01426,92.2626415 270.38326,92.9236415 271.23726,93.2656415 C271.70126,93.4516415 272.16826,93.5396415 272.66026,93.5396415 L273.09326,93.4936415 C273.42226,93.7216415 273.73226,94.0046415 274.15226,94.3926415 C274.29726,94.5256415 274.43526,94.6676415 274.57226,94.8116415 C274.71526,94.9586415 274.85826,95.1046415 275.01326,95.2486415 C275.27226,95.4846415 275.53526,95.7176415 275.80026,95.9506415 C276.06026,96.1796415 276.31626,96.4066415 276.57126,96.6376415 C276.97726,97.0116415 277.37826,97.3886415 277.77826,97.7746415 C277.92926,97.9166415 278.07626,98.0636415 278.21726,98.2116415 L278.61826,98.6066415 C278.88226,98.8646415 279.15426,99.1146415 279.42726,99.3676415 L279.84126,99.7416415 C279.98826,99.8726415 280.13426,100.003641 280.27426,100.133641 L281.07726,100.907641 C281.03026,100.915641 280.98926,100.921641 280.94226,100.928641 C279.83926,101.102641 276.29926,101.043641 273.58526,102.155641 C272.39526,102.680641 264.39726,104.512641 263.54926,104.861641 C262.70126,105.210641 262.06626,105.457641 261.64026,105.609641 L261.38826,100.047641 C261.13326,94.9156415 261.00426,91.1166415 261.00426,88.6576415 C260.92026,81.5436415 260.96226,75.8536415 261.13326,71.5826415 C261.30226,67.3156415 261.59626,64.3406415 262.02326,62.6606415 C263.80526,56.0146415 264.69526,51.7196415 264.69526,49.7676415 C264.69526,48.5776415 264.01726,48.1316415 262.65926,48.4336415 C260.62526,48.8396415 259.47926,50.1256415 259.22426,52.2846415 C258.54226,58.0796415 257.95026,62.9226415 257.44226,66.8226415 C256.93426,70.7186415 256.55226,73.7516415 256.29526,75.9136415 C252.98726,89.1626415 250.23226,95.9626415 248.02526,96.3116415 C245.81926,96.6606415 244.71526,93.3986415 244.71526,86.5276415 C244.71526,84.7466415 244.79926,82.5676415 244.97026,79.9976415 C245.14026,77.4256415 245.39326,74.4176415 245.73526,70.9686415 L247.13326,57.7656415 C247.30126,56.5516415 246.66626,56.0596415 245.22326,56.2866415 C243.61226,56.5416415 242.50826,58.6246415 241.91426,62.5386415 C241.84826,63.5506415 241.78126,64.5626415 241.71626,65.5756415 C240.97626,68.7516415 240.23826,71.7756415 239.49726,74.6276415 C238.65026,77.9016415 237.75926,80.9706415 236.82226,83.8326415 C236.44726,85.0436415 236.08426,86.1696415 235.73026,87.2226415 C233.77526,92.3296415 231.93326,95.0436415 230.20826,95.3166415 C228.17126,95.6396415 226.98226,93.2396415 226.64526,88.1196415 C226.56126,87.1986415 226.49826,85.5556415 226.45426,83.1846415 C226.40926,80.8186415 226.39126,77.7226415 226.39126,73.9056415 C226.39126,67.2876415 227.41026,56.6896415 229.44926,42.1136415 L235.55626,41.2736415 C237.59226,41.0356415 239.54126,40.7686415 241.41026,40.4736415 C243.27426,40.1776415 245.05626,39.8956415 246.75526,39.6256415 C248.36426,39.3726415 250.78226,38.6916415 254.01026,37.5856415 C257.90826,36.2896415 260.03126,35.4056415 260.37126,34.9246415 L260.37126,34.0326415 C256.04526,34.5506415 252.41526,35.0196415 249.49026,35.4396415 C246.56526,35.8626415 244.25326,36.1616415 242.55626,36.3466415 C239.16026,36.7996415 236.46626,37.1626415 234.47226,37.4366415 C232.47926,37.7096415 231.14326,37.8996415 230.46426,38.0046415 C230.80126,36.4256415 231.10026,34.9786415 231.35526,33.6666415 C231.61026,32.3526415 231.82126,31.1336415 231.99026,29.9996415 L231.99026,27.3266415 C229.70026,26.1636415 228.00526,25.6706415 226.90426,25.8446415 C226.22126,25.9506415 225.75726,26.3216415 225.50126,26.9566415 L226.13926,29.1466415 C225.96626,31.3806415 225.83826,33.2896415 225.75726,34.8686415 C225.66926,36.4526415 225.58426,37.7186415 225.50126,38.6656415 C220.83826,39.5756415 216.97726,40.3336415 213.92226,40.9446415 C210.86626,41.5546415 208.53226,41.9896415 206.92126,42.2426415 C205.90526,42.4026415 205.39526,42.7856415 205.39526,43.3766415 C205.39526,43.8846415 205.86126,44.2806415 206.79426,44.5566415 C207.98226,44.8766415 208.87326,45.3286415 209.46626,45.9126415 L212.39626,44.5586415 C219.52026,43.5156415 223.80526,42.9656415 225.24726,42.9066415 C224.14326,53.5156415 223.31726,61.9406415 222.76526,68.1796415 C222.71626,68.7286415 222.67326,69.2396415 222.62826,69.7546415 C222.25426,71.3096415 221.89726,72.7436415 221.55926,74.0316415 C221.04826,75.9806415 220.58126,77.6676415 220.16026,79.0916415 C217.44326,88.0896415 216.04126,92.6406415 215.96026,92.7366415 C214.26226,97.2506415 212.81826,99.5986415 211.63326,99.7856415 C209.08826,100.190641 207.81526,97.5476415 207.81526,91.8626415 C207.81526,86.4356415 208.61926,79.7316415 210.23426,71.7556415 C210.65726,69.8226415 211.01626,68.2186415 211.31426,66.9366415 C211.61226,65.6636415 211.84326,64.6746415 212.01526,63.9636415 C212.01526,62.7776415 210.91126,62.3586415 208.70726,62.7086415 C207.60226,62.8826415 206.75426,63.3156415 206.15926,64.0026415 C206.15926,65.5286415 206.07526,67.4756415 205.90726,69.8296415 C205.73426,72.1906415 205.47926,74.9716415 205.14226,78.1606415 C204.80326,81.3536415 204.55126,84.1086415 204.37826,86.4266415 C204.21026,88.7436415 204.12326,90.6686415 204.12326,92.1956415 C204.12326,94.9926415 204.59126,97.5916415 205.52326,99.9916415 C206.79626,102.844641 208.74726,104.060641 211.37726,103.643641 C213.74926,103.269641 215.78526,101.080641 217.48526,97.0756415 C218.07826,95.6266415 219.47626,91.2496415 221.68526,83.9406415 C221.79726,83.5576415 221.90326,83.1926415 222.01026,82.8226415 C222.15926,85.9276415 222.59126,89.0126415 223.33826,92.0776415 C224.31426,95.8266415 225.61926,98.1966415 227.25526,99.2006415 C227.26226,99.2046415 227.26026,99.2076415 227.26826,99.2126415 C227.28126,99.2206415 227.29226,99.2256415 227.30426,99.2336415 C227.32826,99.2486415 227.35326,99.2616415 227.37726,99.2756415 C228.59226,99.9996415 229.49626,100.076641 231.32126,99.5006415 C233.58326,98.7866415 235.91826,94.9246415 239.35826,84.4516415 C239.69926,83.4636415 240.04426,82.4426415 240.38926,81.3586415 C240.44026,81.1946415 240.48726,81.0396415 240.53626,80.8776415 C240.35226,83.8386415 240.26026,86.3456415 240.26026,88.3816415 C240.26026,91.3516415 240.81226,93.8516415 241.91426,95.8816415 C243.27026,98.4666415 245.30726,99.5436415 248.02426,99.1126415 C250.06126,98.7896415 251.79726,97.1606415 253.24026,94.2146415 C254.00426,92.4846415 254.66226,90.9776415 255.21626,89.7016415 C255.76626,88.4276415 256.21126,87.3406415 256.55226,86.4376415 C257.82326,91.3266415 258.46026,98.3076415 258.46026,107.384641 C252.94326,109.447641 247.17626,113.073641 241.15126,118.271641 C233.51726,124.997641 229.69826,131.455641 229.69826,137.647641 C229.69826,139.685641 230.05926,141.536641 230.78126,143.202641 C231.50126,144.873641 232.49926,146.263641 233.76826,147.379641 C235.04326,148.491641 236.55226,149.289641 238.28926,149.777641 C240.02726,150.265641 241.91426,150.349641 243.95326,150.026641 C256.42326,148.049641 262.65826,137.347641 262.65826,117.920641 C262.65826,117.411641 262.63826,116.716641 262.59426,115.831641 C262.55126,114.948641 262.51126,114.042641 262.46926,113.114641 C262.42626,112.188641 262.38126,111.282641 262.34126,110.399641 C262.29826,109.514641 262.27926,108.818641 262.27926,108.310641 C266.09626,106.430641 275.66326,103.989641 277.02026,103.775641 C277.61526,103.679641 278.52726,103.600641 279.75826,103.532641 C280.09126,103.513641 280.45726,103.499641 280.84526,103.488641 C280.57026,103.662641 280.29726,103.835641 280.01926,104.009641 C279.78026,104.159641 279.53426,104.304641 279.29026,104.448641 C279.05626,104.588641 278.82226,104.725641 278.59026,104.871641 C278.31226,105.044641 278.03626,105.225641 277.76226,105.404641 C277.50026,105.574641 277.24026,105.742641 276.97626,105.908641 C276.74126,106.056641 276.50226,106.198641 276.26126,106.338641 C276.04026,106.470641 275.81726,106.599641 275.60026,106.736641 C275.23126,106.964641 274.86626,107.197641 274.49726,107.431641 L273.74726,107.910641 C273.52926,108.044641 273.30926,108.175641 273.08926,108.306641 L271.89926,109.035641 C271.50926,109.279641 271.11626,109.526641 270.72426,109.764641 C270.12926,110.117641 269.91526,110.822641 270.23426,111.365641 C270.55626,111.918641 271.27726,112.178641 272.02926,111.662641 C272.26826,111.497641 272.50826,111.330641 272.75826,111.178641 L273.51326,110.722641 C273.80226,110.550641 274.09026,110.377641 274.37926,110.197641 L275.45926,109.508641 C275.91626,109.216641 276.37326,108.923641 276.83726,108.632641 C277.20626,108.402641 277.57426,108.178641 277.94726,107.953641 C278.27626,107.755641 278.60726,107.557641 278.93626,107.352641 C279.28926,107.130641 279.64526,106.904641 279.99926,106.676641 L280.91226,106.097641 C281.53426,105.708641 282.15526,105.320641 282.79926,104.932641 C282.71726,105.295641 282.63226,105.659641 282.54626,106.021641 L277.85326,126.214641 C277.81826,126.375641 277.78226,126.538641 277.77126,126.638641 C277.66026,126.705641 277.53926,126.761641 277.41726,126.816641 C277.14126,126.947641 276.82126,127.094641 276.55426,127.347641 C276.13426,127.736641 275.57526,128.362641 275.62126,129.282641 C275.63326,129.546641 275.64326,129.846641 275.72126,130.154641 C275.93726,130.986641 276.49426,131.636641 277.38026,132.090641 C277.64726,132.226641 277.94126,132.294641 278.25026,132.294641 C278.63126,132.294641 278.97526,132.194641 279.28026,132.104641 L279.48326,132.045641 C279.92526,131.923641 280.29026,131.618641 280.52226,131.380641 C280.74126,131.151641 280.86926,130.887641 280.98226,130.655641 L281.08226,130.462641 C281.17326,130.282641 281.30226,130.038641 281.29926,129.731641 C281.29126,129.012641 281.18026,127.975641 280.25426,127.228641 C280.25126,127.211641 280.25126,127.157641 280.29226,126.990641 L285.02426,106.633641 C285.10626,106.865641 285.18526,107.103641 285.25126,107.338641 C285.30526,107.529641 285.35126,107.725641 285.39926,107.920641 C285.46226,108.178641 285.52526,108.437641 285.60026,108.695641 C285.66926,108.929641 285.74726,109.159641 285.82626,109.388641 C285.88726,109.563641 285.94626,109.738641 286.00326,109.916641 C286.17126,110.452641 286.33826,110.991641 286.50026,111.529641 L287.11726,113.612641 C287.18726,113.861641 287.25626,114.111641 287.33026,114.355641 C287.49726,114.908641 287.67326,115.458641 287.84726,116.006641 L288.09326,116.749641 C288.13926,116.880641 288.18526,117.012641 288.22426,117.149641 C288.27226,117.319641 288.31626,117.492641 288.36026,117.665641 C288.41826,117.897641 288.47726,118.130641 288.54826,118.356641 C288.68126,118.794641 288.81926,119.227641 288.95726,119.662641 L289.43626,121.208641 C289.54226,121.557641 289.64826,121.903641 289.75626,122.251641 C289.85926,122.566641 290.20626,122.892641 290.65426,122.892641 L290.66026,122.892641 C290.98326,122.870641 291.46426,122.623641 291.52926,122.138641 C291.55926,121.920641 291.59026,121.590641 291.54226,121.251641 C291.51226,121.048641 291.44826,120.850641 291.38126,120.652641 L290.94626,119.241641 C290.87926,119.014641 290.81426,118.788641 290.74126,118.564641 L290.56426,118.030641 C290.49226,117.826641 290.42226,117.624641 290.36226,117.418641 C290.29826,117.213641 290.24026,117.006641 290.18326,116.796641 L289.46226,114.406641 C289.39726,114.180641 289.33126,113.955641 289.26126,113.730641 L289.00026,112.933641 C288.87526,112.567641 288.75326,112.201641 288.64326,111.832641 C288.53526,111.469641 288.43726,111.102641 288.33926,110.736641 C288.25526,110.424641 288.17226,110.110641 288.08326,109.799641 C287.98426,109.454641 287.87326,109.113641 287.76326,108.774641 L287.29526,107.264641 C287.21026,106.987641 287.11826,106.713641 287.02926,106.439641 L288.35526,107.701641 C288.68226,108.027641 289.01026,108.348641 289.34826,108.663641 C289.61326,108.910641 289.88726,109.150641 290.16026,109.387641 C290.39826,109.596641 290.63926,109.803641 290.86726,110.016641 C291.23426,110.354641 291.59526,110.694641 291.95526,111.036641 L293.60926,112.581641 C293.88326,112.837641 294.15526,113.093641 294.47026,113.395641 C294.53426,113.457641 294.63426,113.563641 294.66526,113.499641 C294.40126,114.340641 294.66326,115.031641 294.88726,115.477641 C295.17626,116.059641 295.64226,116.506641 296.26826,116.805641 C296.83626,117.080641 297.43526,117.117641 298.21526,116.902641 C298.87826,116.714641 299.44726,116.292641 299.81226,115.713641 C300.40926,114.767641 300.41926,113.683641 299.84026,112.733641 L299.84026,112.733641 Z M258.84326,119.286641 C258.84326,125.310641 257.69726,130.964641 255.40526,136.246641 C252.52026,142.897641 248.32026,146.660641 242.80526,147.533641 C241.53126,147.734641 240.32626,147.629641 239.17926,147.216641 C238.03326,146.802641 237.03526,146.155641 236.18926,145.273641 C235.34126,144.390641 234.68326,143.347641 234.21526,142.150641 C233.75026,140.950641 233.51726,139.671641 233.51726,138.315641 C233.51726,133.563641 235.72126,128.673641 240.13326,123.650641 C245.13926,117.849641 251.37426,113.341641 258.84326,110.123641 L258.84326,119.286641 L258.84326,119.286641 L258.84326,119.286641 L258.84326,119.286641 Z M258.84326,119.286641" id="Shape" fill="#FFFFFF" transform="translate(252.195318, 88.014843) rotate(9.000000) translate(-252.195318, -88.014843) "></path>
</g></g></g></svg>