<?xml version="1.0" encoding="UTF-8" standalone="no"?>
<svg width="50px" height="50px" viewBox="0 0 50 50" version="1.1" xmlns="http://www.w3.org/2000/svg" xmlns:xlink="http://www.w3.org/1999/xlink" xmlns:sketch="http://www.bohemiancoding.com/sketch/ns">
    <title>Slice 1</title>
    <description>Created with Sketch (http://www.bohemiancoding.com/sketch)</description>
    <defs></defs>
    <g id="Page-1" stroke="none" stroke-width="1" fill="none" fill-rule="evenodd" sketch:type="MSPage">
        <g id="CH_Logo_White" sketch:type="MSLayerGroup" fill="#FFFFFF">
            <g id="Group" sketch:type="MSShapeGroup">
                <path d="M32.0114943,20.0287356 C30.4885057,18.8505747 28.1321839,17.7442529 26.5373563,17.2988506 L25.158046,20.4454023 C25.1005747,20.7183908 25.2011494,20.7902299 25.545977,20.9051724 C26.5086207,21.1063218 28.0747126,21.9827586 28.8218391,23.0172414 C29.3965517,21.9396552 30.7183908,20.9770115 32.0689655,20.7183908 C32.4712644,20.6465517 32.3275862,20.2729885 32.0114943,20.0287356 L32.0114943,20.0287356 Z" id="Shape"></path>
                <path d="M28.8362069,11.4798851 L26.795977,16.5373563 C28.1178161,16.8247126 30,17.4137931 31.2068966,17.8304598 L28.8362069,11.4798851 L28.8362069,11.4798851 Z" id="Shape"></path>
                <path d="M19.7844828,40.1436782 C19.4109195,40 18.9655172,40.158046 18.7643678,40.7614943 C18.5775862,41.3218391 18.6781609,41.7672414 19.1666667,41.954023 C19.5258621,42.0833333 19.9856322,41.9683908 20.2011494,41.3362069 C20.4022989,40.7327586 20.2586207,40.316092 19.7844828,40.1436782 L19.7844828,40.1436782 Z" id="Shape"></path>
                <path d="M24.9856322,0.0143678161 C11.1925287,0.0143678161 0,11.2068966 0,25 C0,38.7931034 11.1781609,49.9856322 24.9856322,49.9856322 C38.7931034,49.9856322 49.9712644,38.7931034 49.9712644,25 C49.9712644,11.2068966 38.7787356,0.0143678161 24.9856322,0.0143678161 L24.9856322,0.0143678161 Z M25,4.25287356 C25.8045977,4.25287356 26.4511494,4.89942529 26.4511494,5.70402299 C26.4511494,6.50862069 25.8045977,7.15517241 25,7.15517241 C24.1954023,7.15517241 23.5488506,6.50862069 23.5488506,5.70402299 C23.5488506,4.89942529 24.2097701,4.25287356 25,4.25287356 L25,4.25287356 Z M6.40804598,26.4511494 C5.60344828,26.4511494 4.95689655,25.8045977 4.95689655,25 C4.95689655,24.1954023 5.60344828,23.5488506 6.40804598,23.5488506 C7.21264368,23.5488506 7.8591954,24.1954023 7.8591954,25 C7.8591954,25.8045977 7.21264368,26.4511494 6.40804598,26.4511494 L6.40804598,26.4511494 Z M13.8936782,39.3103448 L13.4913793,38.908046 L14.2672414,38.0172414 L13.3764368,37.1264368 L12.6005747,38.0172414 L12.1982759,37.6149425 L14.0086207,35.5747126 L14.4109195,35.9770115 L13.6925287,36.795977 L14.5833333,37.6867816 L15.3017241,36.8678161 L15.704023,37.2701149 L13.8936782,39.3103448 L13.8936782,39.3103448 Z M20.7758621,41.4942529 C20.4885057,42.3706897 19.7126437,42.6724138 18.9798851,42.3994253 C18.1609195,42.0833333 17.9166667,41.4224138 18.204023,40.6034483 C18.4913793,39.7270115 19.2672414,39.4252874 20,39.7126437 C20.7183908,39.9712644 21.0775862,40.5890805 20.7758621,41.4942529 L20.7758621,41.4942529 Z M25.933908,43.4482759 C25.0287356,43.5201149 24.7988506,43.045977 24.7557471,42.5143678 L24.6408046,40.6896552 L25.1867816,40.6465517 L25.3017241,42.4425287 C25.3304598,42.8017241 25.4597701,43.0316092 25.933908,43.0028736 C26.3649425,42.9741379 26.5229885,42.7873563 26.4942529,42.3132184 L26.3793103,40.5603448 L26.9252874,40.5172414 L27.0402299,42.2270115 C27.0977011,43.0028736 26.6954023,43.4051724 25.933908,43.4482759 L25.933908,43.4482759 Z M32.0977011,41.7816092 C31.9109195,41.8821839 31.7241379,41.954023 31.5373563,41.9971264 L31.3649425,41.5229885 C31.5373563,41.4942529 31.7528736,41.4367816 31.9396552,41.3362069 C32.1982759,41.2068966 32.341954,41.0057471 32.2413793,40.7758621 C32.0258621,40.2873563 31.0344828,41.0632184 30.6609195,40.2442529 C30.4597701,39.7988506 30.6752874,39.295977 31.3074713,38.9798851 C31.4511494,38.908046 31.6235632,38.8362069 31.795977,38.7787356 L31.9683908,39.2241379 C31.795977,39.2528736 31.637931,39.3103448 31.4798851,39.3965517 C31.1925287,39.5402299 31.1063218,39.7413793 31.1925287,39.9281609 C31.3936782,40.387931 32.4137931,39.6551724 32.7729885,40.4454023 C32.9741379,40.9051724 32.7298851,41.4511494 32.0977011,41.7816092 L32.0977011,41.7816092 Z M36.7241379,38.3908046 L34.8275862,36.4367816 L35.9051724,35.2442529 L36.2068966,35.5603448 L35.5028736,36.3362069 L35.9626437,36.8103448 L36.6235632,36.0775862 L36.9252874,36.3793103 L36.2643678,37.112069 L36.7816092,37.6436782 L37.4856322,36.8678161 L37.8017241,37.183908 L36.7241379,38.3908046 L36.7241379,38.3908046 Z M33.5775862,32.6149425 C32.6149425,32.6149425 32.112069,32.3994253 31.6810345,32.1264368 L31.7816092,31.8247126 C31.7816092,31.8247126 32.1982759,31.9109195 32.9597701,31.9109195 C35.3017241,31.9109195 36.408046,29.2385057 36.408046,26.6954023 C36.408046,24.3247126 35.7183908,21.5229885 33.0316092,21.5229885 C31.2931034,21.5229885 30.1293103,23.0747126 30.1293103,25.8333333 L30.1293103,33.7787356 L30.1149425,33.7931034 C29.9568966,38.4051724 26.7241379,38.908046 26.7241379,38.908046 L26.5229885,38.6637931 C26.5229885,38.6637931 27.7586207,37.9741379 27.8735632,34.2672414 L27.8735632,31.5086207 C27.3275862,32.2126437 25.6465517,32.7586207 25.6465517,32.7586207 L25.4597701,32.4712644 C25.4597701,32.4712644 27.6293103,30.6896552 27.6293103,26.7385057 C27.6293103,23.8218391 26.7385057,21.5517241 24.295977,21.5517241 C21.9827586,21.5517241 21.5948276,23.6637931 21.5948276,25.8908046 L21.5948276,31.3793103 C21.5948276,31.8247126 21.795977,32.0833333 22.3132184,32.0833333 L23.1321839,32.0833333 L23.1321839,32.5862069 L18.0028736,32.5862069 L18.0028736,32.0833333 L18.7643678,32.0833333 C19.2241379,32.0833333 19.5258621,31.8821839 19.5258621,31.3793103 L19.5258621,25.9195402 C19.5258621,23.6781609 19.1666667,21.6091954 16.954023,21.6091954 C14.8563218,21.6091954 13.4051724,23.4913793 13.4051724,26.4942529 C13.4051724,30.6609195 15.4597701,32.4425287 15.4597701,32.4425287 L15.2011494,32.7011494 C15.2011494,32.7011494 11.1925287,31.2787356 11.1925287,26.7241379 C11.1925287,23.0890805 13.7787356,20.6609195 17.0545977,20.7902299 C17.0545977,20.7902299 15.1867816,19.612069 15.1867816,15.9482759 C15.1867816,12.7586207 17.5862069,10.1293103 20.9051724,10.1293103 C21.3362069,10.1293103 22.2126437,10.3591954 22.5143678,10.3017241 C22.6436782,10.2729885 23.0747126,10 23.0747126,10 L23.9798851,12.9597701 L23.5488506,13.1034483 C23.5488506,13.1034483 22.9310345,10.9770115 20.8189655,10.9770115 C19.3534483,10.9770115 17.6005747,12.1551724 17.6005747,15.7758621 C17.6005747,18.8505747 18.8074713,21.2931034 21.0775862,21.2931034 C22.8591954,21.2931034 23.5775862,20.8477011 24.4396552,19.0948276 L27.8591954,11.1063218 L27.8591954,11.091954 C28.1034483,10.3304598 27.5718391,10.1149425 27.5718391,10.1149425 L29.5689655,10.1149425 C30.2155172,10.1149425 30.6034483,10.316092 30.8908046,10.9482759 C31.2356322,11.7528736 33.3045977,16.8390805 34.3534483,19.4252874 L34.3534483,19.4252874 C34.841954,20.5172414 34.841954,20.8189655 35.6178161,21.2356322 C36.8247126,21.8678161 38.7356322,23.4626437 38.7356322,26.5804598 C38.7643678,30.387931 35.9913793,32.6149425 33.5775862,32.6149425 L33.5775862,32.6149425 Z M44.1666667,26.4511494 C43.362069,26.4511494 42.7155172,25.8045977 42.7155172,25 C42.7155172,24.1954023 43.362069,23.5488506 44.1666667,23.5488506 C44.9712644,23.5488506 45.6178161,24.1954023 45.6178161,25 C45.6178161,25.8045977 44.9568966,26.4511494 44.1666667,26.4511494 L44.1666667,26.4511494 Z" id="Shape"></path>
            </g>
        </g>
    </g>
</svg>