<svg viewBox="0 0 122 99" xmlns="http://www.w3.org/2000/svg" xmlns:sketch="http://www.bohemiancoding.com/sketch/ns"><title>Slice 1</title><g sketch:type="MSLayerGroup" fill="none"><path d="M30.161 14.675c-1.753-.962-12.689-.851-12.689-.851s-10.943-.111-12.697.851c0 0-1.031.653-1.028 7.97-.003 7.368 1.028 8.025 1.028 8.025 1.754.969 12.697.858 12.697.858s10.936.111 12.689-.858c0 0 1.03-.657 1.027-8.025.003-7.317-1.027-7.97-1.027-7.97" fill="#fff" sketch:type="MSShapeGroup"/><path d="M112.35 2.622l-.116-.073c-2.574-1.409-11.491-2.13-26.51-2.13-1.345 0-2.16.011-2.171.011-.031 0-.858-.011-2.203-.011-15.028 0-23.957.721-26.53 2.13l-.106.073c-2.15 1.356-3.241 7.806-3.23 19.17 0 1.24.011 2.425.042 3.548 1.663-.021 3.124-.032 4.236-.032-.032-1.082-.042-2.245-.042-3.516-.01-11.259 1.123-14.796 1.526-15.686 2.191-.741 10.209-1.451 24.104-1.451 1.345 0 2.161.011 2.214.011 0 0 .815-.011 2.16-.011 13.886 0 21.892.71 24.085 1.451.402.89 1.535 4.427 1.535 15.686 0 11.353-1.133 14.912-1.535 15.812-2.193.752-10.199 1.451-24.074 1.451h-.562c.033 1.165.054 2.436.054 3.835v.401h.508c15.018 0 23.935-.72 26.51-2.139l.116-.074c2.139-1.366 3.22-7.849 3.22-19.286 0-11.364-1.092-17.814-3.231-19.17" fill="#fff" sketch:type="MSShapeGroup"/><path d="M57.246 37.604c-.35-.805-1.293-3.696-1.484-12.296 1.335 0 2.151.011 2.151.011s21.785-.213 25.27 1.695c0 0 1.684 1.058 1.99 12.041h-3.833c-13.885 0-21.903-.699-24.094-1.451" fill="#fff" sketch:type="MSShapeGroup"/><path d="M85.227 43.291c-.032 14.298-2.044 15.58-2.044 15.58-3.485 1.928-25.27 1.705-25.27 1.705s-21.786.223-25.281-1.705c0 0-2.054-1.313-2.054-15.981 0-14.573 2.054-15.876 2.054-15.876 2.256-1.229 12.169-1.579 18.894-1.674.191 9.235 1.271 14.531 3.177 15.738l.117.074c2.573 1.419 11.492 2.139 26.52 2.139h3.887" fill="#fff" sketch:type="MSShapeGroup"/><path d="M56.129 81.703c-.579-.259-1.687-.529-2.552-.529-2.815 0-4.447 1.768-4.447 4.954 0 2.948 1.18 4.317 3.29 4.317 1.24 0 2.396-.526 3.709-1.683v-7.059zm2.11 10.246l-1.841.395h-.269v-1.61c-1.234.926-2.364 1.61-4.183 1.61-2.711 0-5.031-1.794-5.031-5.9 0-4.03 2.105-7.16 6.767-7.16.76 0 1.582.129 2.447.317v-6.373l1.846-.394h.264v19.115z" fill="#fff" sketch:type="MSShapeGroup"/><path d="M62.35 84.599h6.237v-.342c0-1.658-.897-3.083-2.843-3.083-1.846 0-3.157 1.35-3.394 3.425zm-.055 1.794c.159 3.211 2.027 4.03 4.314 4.03 1.289 0 2.607-.322 3.902-.926v1.942c-1.295.584-2.821.905-4.64.905-3.18 0-5.819-1.868-5.819-6.688 0-3.264 2.055-6.372 5.769-6.372 3.659 0 5.08 2.708 5.08 5.315 0 .821-.054 1.295-.104 1.794h-8.502z" fill="#fff" sketch:type="MSShapeGroup"/><path d="M72.142 90.002h.209c1.234.259 2.341.443 3.421.443 1.632 0 2.817-.396 2.817-1.791 0-2.582-6.398-1.553-6.398-5.819 0-2.317 2.161-3.551 4.872-3.551 1.08 0 2.16.154 3.157.474v1.945h-.21c-1.135-.366-2.105-.529-2.975-.529-1.29 0-2.629.295-2.629 1.661 0 2.455 6.392 1.477 6.392 5.612 0 2.992-2.419 3.897-5.103 3.897-1.322 0-2.633-.188-3.553-.395v-1.947" fill="#fff" sketch:type="MSShapeGroup"/><path d="M82.539 92.023v-12.345l1.847-.394h.259v12.739h-2.106zm-.291-15.398v-2.901h2.661v2.267l-2.661.634z" fill="#fff" sketch:type="MSShapeGroup"/><path d="M91.885 87.101c1.549 0 2.898-1.001 2.898-3.05 0-2.059-1.349-3.056-2.898-3.056-1.554 0-2.92.997-2.92 3.056 0 2.049 1.366 3.05 2.92 3.05zm-2.292 5.954c-.546.6-.92 1.573-.92 2.391 0 1.11.97 1.711 3.24 1.711 2.501 0 4.292-1.108 4.292-2.683 0-1.844-2.348-1.398-6.612-1.419zm.634-4.428c-.292.477-.684 1.184-.684 1.849 0 1.868 8.845-2.006 8.845 3.763 0 2.419-1.819 4.761-6.767 4.761-4.028 0-5.081-1.419-5.081-3 0-1.263.843-2.632 1.687-3.345-.475-.29-.634-.868-.634-1.499 0-.945.424-2.052 1.184-3.108-1.261-.76-2-2.1-2-3.997 0-2.555 2.105-4.767 5.108-4.767.529 0 1.631.129 2.342.366h4.766v1.607h-2.87c.501.763.843 2.05.843 2.794 0 3.05-2.37 4.763-5.081 4.763-.584 0-1.157-.052-1.658-.187z" fill="#fff" sketch:type="MSShapeGroup"/><path d="M108.708 92.023v-8.314c0-1.951-.87-2.535-2.083-2.535-1.129 0-2.865.636-4.502 1.584v9.265h-2.104v-12.345l1.581-.394h.287l.215 1.711c1.945-1.163 3.184-1.711 4.766-1.711 2.154 0 3.95 1.127 3.95 4.265v8.474h-2.11" fill="#fff" sketch:type="MSShapeGroup"/><g><path d="M112.687 90.002h.204c1.24.259 2.347.443 3.427.443 1.631 0 2.816-.396 2.816-1.791 0-2.582-6.398-1.553-6.398-5.819 0-2.317 2.155-3.551 4.871-3.551 1.081 0 2.161.154 3.158.474v1.945h-.209c-1.13-.366-2.106-.529-2.982-.529-1.283 0-2.628.295-2.628 1.661 0 2.455 6.398 1.477 6.398 5.612 0 2.992-2.419 3.897-5.103 3.897-1.323 0-2.634-.188-3.554-.395v-1.947" fill="#fff" sketch:type="MSShapeGroup"/><path d="M2.375 73.801h6.469v-.353c0-1.722-.931-3.19-2.953-3.19-1.907 0-3.274 1.383-3.516 3.543zm-.055 1.851c.159 3.334 2.099 4.175 4.474 4.175 1.339 0 2.695-.323 4.039-.951v2.015c-1.344.608-2.92.933-4.799.933-3.301 0-6.034-1.939-6.034-6.931 0-3.387 2.127-6.602 5.979-6.602 3.791 0 5.262 2.805 5.262 5.51 0 .843-.055 1.339-.11 1.851h-8.811z" fill="#fff" sketch:type="MSShapeGroup"/></g><path d="M19.991 75.52l-3.521.515c-.925.136-1.956.516-1.956 1.995 0 1.067.733 1.797 1.852 1.797 1.201 0 2.568-.766 3.625-1.524v-2.783zm2.183 5.891l-1.769.358h-.303v-1.802h-.055c-1.147.871-2.535 1.774-4.42 1.774-1.664 0-3.411-1.204-3.411-3.549 0-3.168 2.838-3.603 4.37-3.818l3.405-.463v-.873c0-2.185-1.035-2.78-2.92-2.78-.705 0-2.48.212-3.929.865l-.243-2.014c1.197-.465 3.081-.818 4.585-.818 2.701 0 4.69 1.11 4.69 4.747v8.373z" fill="#fff" sketch:type="MSShapeGroup"/><path d="M23.998 79.389h.22c1.284.278 2.425.468 3.549.468 1.691 0 2.921-.408 2.921-1.854 0-2.676-6.635-1.612-6.635-6.031 0-2.403 2.237-3.681 5.047-3.681 1.119 0 2.237.157 3.279.487v2.014h-.221c-1.174-.374-2.181-.534-3.086-.534-1.333 0-2.727.289-2.727 1.714 0 2.535 6.634 1.529 6.634 5.81 0 3.109-2.512 4.042-5.295 4.042-1.361 0-2.733-.192-3.686-.413v-2.022" fill="#fff" sketch:type="MSShapeGroup"/><path d="M34.12 87.062c2.375-1.692 2.937-2.246 3.835-4.461l.232-.909h.022l-4.535-13.024h2.513l3.223 10.318h.188l3.52-10.318h2.486l-4.943 13.646c-1.14 3.274-2.562 4.855-4.91 6.331l-1.631-1.583" fill="#fff" sketch:type="MSShapeGroup"/></g></svg>