<svg viewBox="0 0 121 43" xmlns="http://www.w3.org/2000/svg" preserveAspectRatio="xMinYMin meet"><title>Creative Commons License: Attribution Non-Commercial Share Alike</title><g fill="none"><path d="M3.908.953l113.354.201c1.584 0 3-.235 3 3.16l-.139 37.33h-119.076v-37.468c0-1.675.162-3.223 2.861-3.223"/><path d="M118.254.5h-115.506c-1.24 0-2.248 1.008-2.248 2.247v39.246c0 .28.227.507.507.507h118.985c.281 0 .508-.227.508-.507v-39.246c0-1.239-1.008-2.247-2.246-2.247zm-115.506 1.015h115.506c.679 0 1.23.553 1.23 1.232v27.221h-82.556c-3.026 5.471-8.856 9.185-15.547 9.185-6.692 0-12.521-3.712-15.545-9.185h-4.321v-27.221c0-.679.553-1.232 1.233-1.232zm46.153 31.733c.316 0 .604.027.864.083.26.056.483.146.67.273.185.126.329.295.431.505.102.211.153.469.153.78 0 .334-.075.611-.228.833-.151.223-.376.405-.673.547.41.118.715.323.917.618.202.294.303.648.303 1.062 0 .334-.065.623-.195.867s-.306.444-.526.598c-.22.155-.47.27-.752.344-.283.074-.572.111-.87.111h-3.216v-6.621h3.122zm-.186 2.678c.26 0 .474-.063.641-.186.167-.123.251-.323.251-.6 0-.155-.028-.282-.084-.38-.056-.099-.13-.176-.223-.232-.093-.055-.2-.094-.32-.115-.122-.021-.247-.032-.377-.032h-1.364v1.545h1.476zm.085 2.81c.143 0 .279-.013.409-.042.13-.028.244-.075.344-.138.099-.066.178-.154.237-.265.058-.111.088-.254.088-.427 0-.339-.096-.582-.288-.727-.192-.145-.446-.217-.762-.217h-1.589v1.816h1.561zm2.795-5.488h1.633l1.55 2.615 1.542-2.615h1.624l-2.459 4.08v2.541h-1.46v-2.578l-2.43-4.043zm47.345 4.984c.082.155.187.28.32.375.133.097.288.168.468.214.178.047.363.07.555.07.129 0 .268-.01.416-.033.148-.021.286-.063.416-.126.129-.06.237-.146.325-.255.085-.107.128-.245.128-.412 0-.179-.056-.324-.171-.435-.114-.112-.264-.204-.449-.278-.184-.075-.395-.139-.63-.196-.234-.055-.472-.117-.713-.185-.248-.063-.488-.138-.722-.227-.235-.09-.446-.206-.631-.349-.184-.141-.334-.319-.447-.532-.115-.214-.172-.472-.172-.775 0-.34.072-.635.217-.886.145-.25.335-.459.57-.627.234-.167.5-.29.797-.37.297-.081.593-.121.888-.121.348 0 .68.039.997.117.318.076.601.203.848.375.247.174.444.395.589.664.145.27.217.596.217.979h-1.412c-.013-.198-.054-.362-.125-.491-.071-.13-.164-.232-.282-.306-.117-.074-.251-.127-.401-.157-.15-.032-.315-.047-.494-.047-.116 0-.233.012-.351.037-.117.024-.222.067-.318.13-.096.062-.174.138-.235.232-.062.093-.093.21-.093.352 0 .131.025.236.074.315.049.081.147.156.292.224.146.067.346.136.602.203l1.006.26c.123.025.294.07.512.135.22.066.438.167.654.31.216.144.403.334.561.571.157.238.235.542.235.914 0 .303-.059.584-.176.845-.118.26-.292.484-.524.672-.232.189-.519.336-.863.44-.342.107-.739.159-1.191.159-.366 0-.719-.046-1.063-.135-.343-.091-.645-.232-.908-.423-.263-.192-.471-.437-.627-.734-.154-.297-.229-.65-.222-1.059h1.413c0 .223.039.412.12.566zm8.206-4.984l2.477 6.621h-1.512l-.502-1.474h-2.476l-.52 1.474h-1.466l2.505-6.621h1.494zm.083 4.06l-.834-2.428h-.02l-.861 2.428h1.715zm-34.211-4.06l2.767 4.442h.016v-4.442h1.365v6.621h-1.456l-2.757-4.434h-.018v4.434h-1.367v-6.621h1.45zm9.677 1.764c-.086-.14-.195-.262-.324-.367-.131-.105-.277-.188-.441-.246-.164-.059-.336-.089-.514-.089-.328 0-.607.064-.836.191-.229.126-.414.296-.557.51-.142.214-.246.456-.31.727-.066.272-.098.553-.098.844 0 .278.032.549.098.811.064.263.168.5.31.709.143.211.328.378.557.505.229.127.508.191.836.191.443 0 .793-.136 1.043-.408.25-.273.403-.631.459-1.076h1.41c-.037.413-.133.788-.287 1.121-.154.336-.359.62-.613.856-.253.236-.55.415-.891.539-.34.125-.714.187-1.121.187-.508 0-.965-.088-1.37-.265-.404-.176-.747-.42-1.025-.728-.279-.309-.494-.673-.642-1.09-.149-.418-.223-.868-.223-1.352 0-.494.074-.953.223-1.377.148-.424.363-.794.642-1.109.278-.316.621-.563 1.025-.743.405-.179.862-.269 1.37-.269.364 0 .709.053 1.033.158.325.106.616.259.872.461.257.2.469.449.636.746.167.297.271.639.315 1.022h-1.41c-.024-.167-.081-.321-.167-.459z" fill="#f5f6fa"/><path d="M35.022 20.051c.005 7.53-6.096 13.636-13.626 13.642-7.53.004-13.639-6.096-13.644-13.625v-.017c-.004-7.53 6.097-13.636 13.627-13.641 7.531-.005 13.639 6.095 13.643 13.625v.016"/><path d="M32.472 8.947c3.023 3.023 4.535 6.725 4.535 11.104 0 4.381-1.486 8.043-4.458 10.988-3.153 3.102-6.881 4.652-11.182 4.652-4.248 0-7.911-1.537-10.986-4.613-3.076-3.076-4.613-6.751-4.613-11.027 0-4.275 1.537-7.976 4.613-11.104 2.997-3.025 6.66-4.536 10.986-4.536 4.38 0 8.081 1.511 11.105 4.536zm-20.055 2.033c-2.557 2.582-3.835 5.606-3.835 9.075 0 3.468 1.266 6.467 3.795 8.996 2.531 2.53 5.542 3.795 9.037 3.795 3.495 0 6.532-1.278 9.115-3.833 2.451-2.374 3.677-5.359 3.677-8.958 0-3.572-1.246-6.603-3.737-9.094-2.491-2.49-5.509-3.735-9.055-3.735-3.546 0-6.547 1.252-8.997 3.754zm6.726 7.55c-.39-.852-.974-1.278-1.755-1.278-1.378 0-2.067.928-2.067 2.784 0 1.856.689 2.782 2.067 2.782.911 0 1.561-.451 1.951-1.356l1.911 1.016c-.911 1.62-2.278 2.429-4.1 2.429-1.405 0-2.53-.43-3.376-1.292-.846-.861-1.269-2.05-1.269-3.564 0-1.487.436-2.668 1.308-3.543.872-.875 1.959-1.312 3.26-1.312 1.927 0 3.304.759 4.139 2.275l-2.069 1.059zm8.991 0c-.391-.852-.965-1.278-1.72-1.278-1.406 0-2.11.928-2.11 2.784 0 1.856.704 2.782 2.11 2.782.912 0 1.551-.451 1.915-1.356l1.953 1.016c-.909 1.62-2.274 2.429-4.092 2.429-1.404 0-2.526-.43-3.372-1.292-.843-.861-1.266-2.05-1.266-3.564 0-1.487.429-2.668 1.287-3.543.856-.875 1.947-1.312 3.273-1.312 1.923 0 3.3.759 4.131 2.275l-2.109 1.059z" fill="#f5f6fa"/><path d="M52.264 4.986c5.93 0 10.738 4.807 10.738 10.738 0 5.93-4.808 10.737-10.738 10.737-5.932 0-10.74-4.807-10.74-10.737 0-5.931 4.808-10.738 10.74-10.738"/><path d="M55.372 12.617c0-.414-.336-.749-.75-.749h-4.743c-.413 0-.749.335-.749.749v4.742h1.323v5.617h3.595v-5.617h1.324v-4.742" fill="#f5f6fa"/><path d="M52.251 7.999c.896 0 1.622.727 1.622 1.622 0 .896-.726 1.622-1.622 1.622-.896 0-1.623-.726-1.623-1.622 0-.895.727-1.622 1.623-1.622" fill="#f5f6fa"/><path d="M52.236 3.893c-3.212 0-5.931 1.12-8.156 3.362-2.284 2.319-3.425 5.063-3.425 8.232 0 3.169 1.141 5.894 3.425 8.175 2.283 2.279 5.002 3.42 8.156 3.42 3.193 0 5.96-1.149 8.302-3.449 2.206-2.184 3.309-4.899 3.309-8.146 0-3.247-1.122-5.99-3.367-8.232-2.245-2.242-4.992-3.362-8.244-3.362zm.03 2.085c2.632 0 4.866.929 6.704 2.784 1.859 1.836 2.788 4.078 2.788 6.725 0 2.667-.91 4.88-2.73 6.638-1.916 1.894-4.17 2.841-6.762 2.841-2.594 0-4.83-.937-6.706-2.812-1.877-1.874-2.816-4.096-2.816-6.667 0-2.57.948-4.812 2.845-6.725 1.82-1.855 4.045-2.784 6.677-2.784z" fill="#f5f6fa"/><path d="M115.08 15.48c.004 5.846-4.731 10.588-10.578 10.592-5.846.004-10.588-4.73-10.592-10.577v-.015c-.004-5.844 4.732-10.586 10.576-10.591 5.847-.004 10.588 4.731 10.594 10.576v.015"/><path d="M104.419 3.886c-3.212 0-5.932 1.121-8.156 3.362-2.284 2.319-3.426 5.063-3.426 8.232 0 3.17 1.142 5.895 3.426 8.175 2.282 2.28 5.002 3.421 8.156 3.421 3.192 0 5.96-1.15 8.302-3.449 2.205-2.185 3.308-4.9 3.308-8.147 0-3.246-1.121-5.99-3.367-8.232-2.244-2.241-4.992-3.362-8.243-3.362zm.028 2.087c2.633 0 4.867.927 6.706 2.783 1.858 1.835 2.787 4.076 2.787 6.724 0 2.667-.91 4.88-2.729 6.639-1.916 1.894-4.171 2.84-6.764 2.84-2.592 0-4.828-.937-6.705-2.812-1.876-1.874-2.814-4.096-2.814-6.667 0-2.57.947-4.812 2.843-6.724 1.82-1.856 4.045-2.783 6.676-2.783z" fill="#f5f6fa"/><path d="M99.279 13.845c.462-2.918 2.516-4.478 5.09-4.478 3.701 0 5.958 2.686 5.958 6.268 0 3.495-2.401 6.21-6.017 6.21-2.486 0-4.713-1.531-5.119-4.535h2.922c.087 1.56 1.1 2.109 2.545 2.109 1.649 0 2.719-1.531 2.719-3.87 0-2.456-.925-3.755-2.661-3.755-1.273 0-2.371.462-2.603 2.051l.85-.006-2.3 2.3-2.3-2.3.916.006" fill="#f5f6fa"/><path d="M89.13 15.481c.005 5.958-4.822 10.788-10.779 10.794-5.958.004-10.792-4.821-10.796-10.779v-.015c-.005-5.958 4.822-10.79 10.779-10.795 5.958-.003 10.792 4.823 10.796 10.779v.016"/><path d="M78.327 3.886c3.251 0 5.999 1.121 8.243 3.362 2.246 2.242 3.369 4.986 3.369 8.233 0 3.246-1.104 5.961-3.309 8.146-2.343 2.299-5.11 3.449-8.303 3.449-3.153 0-5.873-1.141-8.155-3.421-2.284-2.279-3.426-5.005-3.426-8.174 0-3.17 1.142-5.914 3.426-8.233 2.225-2.241 4.943-3.362 8.155-3.362zm-8.972 8.48c-.346.978-.519 2.016-.519 3.115 0 2.57.938 4.792 2.815 6.667 1.877 1.874 4.113 2.811 6.705 2.811 2.593 0 4.848-.946 6.763-2.84.641-.62 1.17-1.296 1.584-2.028l-4.371-1.947c-.295 1.471-1.606 2.464-3.191 2.581v1.788h-1.332v-1.788c-1.3-.015-2.558-.548-3.52-1.389l1.598-1.61c.769.724 1.538 1.049 2.588 1.049.681 0 1.435-.266 1.435-1.153 0-.313-.122-.532-.313-.696l-1.106-.493-1.377-.613-1.837-.817-5.922-2.637zm9.001-6.393c-2.631 0-4.856.927-6.675 2.783-.496.499-.926 1.021-1.292 1.566l4.433 1.973c.401-1.229 1.569-1.975 2.987-2.058v-1.788h1.332v1.788c.917.044 1.921.296 2.914 1.063l-1.524 1.566c-.562-.398-1.272-.679-1.982-.679-.576 0-1.391.176-1.391.9 0 .111.037.208.105.294l1.483.661 1.003.447 1.862.829 5.943 2.645c.196-.778.294-1.606.294-2.482 0-2.649-.929-4.89-2.786-6.725-1.838-1.856-4.074-2.783-6.706-2.783z" fill="#f5f6fa"/></g></svg>