<svg width="602" height="418" xmlns="http://www.w3.org/2000/svg" xmlns:sketch="http://www.bohemiancoding.com/sketch/ns" preserveAspectRatio="xMinYMin meet"><title>Untitled 1</title><g sketch:type="MSPage" fill="none"><path d="M285.494 8.781s80.143-16.048 165.585-4.755c85.447 11.29 156.36 43.056 149.914 150.392-6.445 107.337-43.506 166.713-55.338 183.856s-59.359 80.31-114.016 79.722c-54.654-.595-229.068-46.8-284.495-71.284-69.078-30.523-122.153-69.647-138.954-104.852-16.793-35.207-12.216-116.331 56.5-157.662 68.711-41.327 163.905-68.315 220.804-75.417" id="Shape" fill="#6ABBB8" sketch:type="MSShapeGroup"/><path d="M512.577 151.073s-3.391-25.653-21.28-29.649v-.002c18.504-5.1 21.28-28.74 21.28-28.74s4.317 24.852 21.281 28.74v.002c-16.963 2.176-21.281 29.649-21.281 29.649" id="Shape" fill="#fff" sketch:type="MSShapeGroup"/><path d="M555.138 177.024s-3.392-25.652-21.28-29.648v-.002c18.504-5.1 21.28-28.741 21.28-28.741s4.318 24.853 21.281 28.741v.002c-16.961 2.176-21.281 29.648-21.281 29.648" id="Shape" fill="#fff" sketch:type="MSShapeGroup"/><path d="M544.961 114.927s-3.392-25.652-21.28-29.649v-.002c18.505-5.1 21.28-28.74 21.28-28.74s4.318 24.852 21.281 28.74v.002c-16.963 2.176-21.281 29.649-21.281 29.649" id="Shape" fill="#fff" sketch:type="MSShapeGroup"/><path d="M57.364 217.805s2.359-17.916 14.803-20.707v-.001c-12.873-3.562-14.803-20.072-14.803-20.072s-3.003 17.357-14.804 20.072v.001c11.801 1.52 14.804 20.707 14.804 20.707" id="Shape" fill="#fff" sketch:type="MSShapeGroup"/><path d="M27.757 235.415s2.36-17.916 14.803-20.706v-.001c-12.873-3.562-14.803-20.073-14.803-20.073s-3.004 17.358-14.804 20.073v.001c11.799 1.52 14.804 20.706 14.804 20.706" id="Shape" fill="#fff" sketch:type="MSShapeGroup"/><path d="M35.159 192.78s2.359-17.916 14.803-20.707v-.001c-12.873-3.562-14.803-20.072-14.803-20.072s-3.004 17.357-14.804 20.072v.001c11.8 1.52 14.804 20.707 14.804 20.707" fill="#fff" sketch:type="MSShapeGroup"/></g></svg>