<svg viewBox="0 0 121 43" version="1.1" xmlns="http://www.w3.org/2000/svg" xmlns:xlink="http://www.w3.org/1999/xlink" preserveAspectRatio="xMinYMin meet"><title>Creative Commons License: Attribution Non-Commercial Share Alike</title><description></description><defs></defs><g id="Page-1" stroke="none" stroke-width="1" fill="none" fill-rule="evenodd"><g transform="translate(0.000000, 1.000000)"><path d="M3.908,-0.047 L117.262,0.154 C118.846,0.154 120.262,-0.081 120.262,3.314 L120.123,40.644 L1.047,40.644 L1.047,3.176 C1.047,1.501 1.209,-0.047 3.908,-0.047" id="Fill-1"></path><path d="M118.254,-0.5 L2.748,-0.5 C1.508,-0.5 0.5,0.508 0.5,1.747 L0.5,40.993 C0.5,41.273 0.727,41.5 1.007,41.5 L119.992,41.5 C120.273,41.5 120.5,41.273 120.5,40.993 L120.5,1.747 C120.5,0.508 119.492,-0.5 118.254,-0.5 L118.254,-0.5 Z M2.748,0.515 L118.254,0.515 C118.933,0.515 119.484,1.068 119.484,1.747 L119.484,28.968 L36.928,28.968 C33.902,34.439 28.072,38.153 21.381,38.153 C14.689,38.153 8.86,34.441 5.836,28.968 L1.515,28.968 L1.515,1.747 C1.515,1.068 2.068,0.515 2.748,0.515 Z M48.901,32.248 C49.217,32.248 49.505,32.275 49.765,32.331 C50.025,32.387 50.248,32.477 50.435,32.604 C50.62,32.73 50.764,32.899 50.866,33.109 C50.968,33.32 51.019,33.578 51.019,33.889 C51.019,34.223 50.944,34.5 50.791,34.722 C50.64,34.945 50.415,35.127 50.118,35.269 C50.528,35.387 50.833,35.592 51.035,35.887 C51.237,36.181 51.338,36.535 51.338,36.949 C51.338,37.283 51.273,37.572 51.143,37.816 C51.013,38.06 50.837,38.26 50.617,38.414 C50.397,38.569 50.147,38.684 49.865,38.758 C49.582,38.832 49.293,38.869 48.995,38.869 L45.779,38.869 L45.779,32.248 L48.901,32.248 Z M48.715,34.926 C48.975,34.926 49.189,34.863 49.356,34.74 C49.523,34.617 49.607,34.417 49.607,34.14 C49.607,33.985 49.579,33.858 49.523,33.76 C49.467,33.661 49.393,33.584 49.3,33.528 C49.207,33.473 49.1,33.434 48.98,33.413 C48.858,33.392 48.733,33.381 48.603,33.381 L47.239,33.381 L47.239,34.926 L48.715,34.926 L48.715,34.926 Z M48.8,37.736 C48.943,37.736 49.079,37.723 49.209,37.694 C49.339,37.666 49.453,37.619 49.553,37.556 C49.652,37.49 49.731,37.402 49.79,37.291 C49.848,37.18 49.878,37.037 49.878,36.864 C49.878,36.525 49.782,36.282 49.59,36.137 C49.398,35.992 49.144,35.92 48.828,35.92 L47.239,35.92 L47.239,37.736 L48.8,37.736 Z M51.595,32.248 L53.228,32.248 L54.778,34.863 L56.32,32.248 L57.944,32.248 L55.485,36.328 L55.485,38.869 L54.025,38.869 L54.025,36.291 L51.595,32.248 Z M98.94,37.232 C99.022,37.387 99.127,37.512 99.26,37.607 C99.393,37.704 99.548,37.775 99.728,37.821 C99.906,37.868 100.091,37.891 100.283,37.891 C100.412,37.891 100.551,37.881 100.699,37.858 C100.847,37.837 100.985,37.795 101.115,37.732 C101.244,37.672 101.352,37.586 101.44,37.477 C101.525,37.37 101.568,37.232 101.568,37.065 C101.568,36.886 101.512,36.741 101.397,36.63 C101.283,36.518 101.133,36.426 100.948,36.352 C100.764,36.277 100.553,36.213 100.318,36.156 C100.084,36.101 99.846,36.039 99.605,35.971 C99.357,35.908 99.117,35.833 98.883,35.744 C98.648,35.654 98.437,35.538 98.252,35.395 C98.068,35.254 97.918,35.076 97.805,34.863 C97.69,34.649 97.633,34.391 97.633,34.088 C97.633,33.748 97.705,33.453 97.85,33.202 C97.995,32.952 98.185,32.743 98.42,32.575 C98.654,32.408 98.92,32.285 99.217,32.205 C99.514,32.124 99.81,32.084 100.105,32.084 C100.453,32.084 100.785,32.123 101.102,32.201 C101.42,32.277 101.703,32.404 101.95,32.576 C102.197,32.75 102.394,32.971 102.539,33.24 C102.684,33.51 102.756,33.836 102.756,34.219 L101.344,34.219 C101.331,34.021 101.29,33.857 101.219,33.728 C101.148,33.598 101.055,33.496 100.937,33.422 C100.82,33.348 100.686,33.295 100.536,33.265 C100.386,33.233 100.221,33.218 100.042,33.218 C99.926,33.218 99.809,33.23 99.691,33.255 C99.574,33.279 99.469,33.322 99.373,33.385 C99.277,33.447 99.199,33.523 99.138,33.617 C99.076,33.71 99.045,33.827 99.045,33.969 C99.045,34.1 99.07,34.205 99.119,34.284 C99.168,34.365 99.266,34.44 99.411,34.508 C99.557,34.575 99.757,34.644 100.013,34.711 C100.27,34.779 100.605,34.867 101.019,34.971 C101.142,34.996 101.313,35.041 101.531,35.106 C101.751,35.172 101.969,35.273 102.185,35.416 C102.401,35.56 102.588,35.75 102.746,35.987 C102.903,36.225 102.981,36.529 102.981,36.901 C102.981,37.204 102.922,37.485 102.805,37.746 C102.687,38.006 102.513,38.23 102.281,38.418 C102.049,38.607 101.762,38.754 101.418,38.858 C101.076,38.965 100.679,39.017 100.227,39.017 C99.861,39.017 99.508,38.971 99.164,38.882 C98.821,38.791 98.519,38.65 98.256,38.459 C97.993,38.267 97.785,38.022 97.629,37.725 C97.475,37.428 97.4,37.075 97.407,36.666 L98.82,36.666 C98.82,36.889 98.859,37.078 98.94,37.232 Z M107.146,32.248 L109.623,38.869 L108.111,38.869 L107.609,37.395 L105.133,37.395 L104.613,38.869 L103.147,38.869 L105.652,32.248 L107.146,32.248 Z M107.229,36.308 L106.395,33.88 L106.375,33.88 L105.514,36.308 L107.229,36.308 Z M73.018,32.248 L75.785,36.69 L75.801,36.69 L75.801,32.248 L77.166,32.248 L77.166,38.869 L75.71,38.869 L72.953,34.435 L72.935,34.435 L72.935,38.869 L71.568,38.869 L71.568,32.248 L73.018,32.248 Z M82.695,34.012 C82.609,33.872 82.5,33.75 82.371,33.645 C82.24,33.54 82.094,33.457 81.93,33.399 C81.766,33.34 81.594,33.31 81.416,33.31 C81.088,33.31 80.809,33.374 80.58,33.501 C80.351,33.627 80.166,33.797 80.023,34.011 C79.881,34.225 79.777,34.467 79.713,34.738 C79.647,35.01 79.615,35.291 79.615,35.582 C79.615,35.86 79.647,36.131 79.713,36.393 C79.777,36.656 79.881,36.893 80.023,37.102 C80.166,37.313 80.351,37.48 80.58,37.607 C80.809,37.734 81.088,37.798 81.416,37.798 C81.859,37.798 82.209,37.662 82.459,37.39 C82.709,37.117 82.862,36.759 82.918,36.314 L84.328,36.314 C84.291,36.727 84.195,37.102 84.041,37.435 C83.887,37.771 83.682,38.055 83.428,38.291 C83.175,38.527 82.878,38.706 82.537,38.83 C82.197,38.955 81.823,39.017 81.416,39.017 C80.908,39.017 80.451,38.929 80.046,38.752 C79.642,38.576 79.299,38.332 79.021,38.024 C78.742,37.715 78.527,37.351 78.379,36.934 C78.23,36.516 78.156,36.066 78.156,35.582 C78.156,35.088 78.23,34.629 78.379,34.205 C78.527,33.781 78.742,33.411 79.021,33.096 C79.299,32.78 79.642,32.533 80.046,32.353 C80.451,32.174 80.908,32.084 81.416,32.084 C81.78,32.084 82.125,32.137 82.449,32.242 C82.774,32.348 83.065,32.501 83.321,32.703 C83.578,32.903 83.79,33.152 83.957,33.449 C84.124,33.746 84.228,34.088 84.272,34.471 L82.862,34.471 C82.838,34.304 82.781,34.15 82.695,34.012 Z" id="Fill-2" fill="#f5f6fa"></path><path d="M35.022,19.051 C35.027,26.581 28.926,32.687 21.396,32.693 C13.866,32.697 7.757,26.597 7.752,19.068 L7.752,19.051 C7.748,11.521 13.849,5.415 21.379,5.41 C28.91,5.405 35.018,11.505 35.022,19.035 L35.022,19.051" id="Fill-3"></path><path d="M32.472,7.947 C35.495,10.97 37.007,14.672 37.007,19.051 C37.007,23.432 35.521,27.094 32.549,30.039 C29.396,33.141 25.668,34.691 21.367,34.691 C17.119,34.691 13.456,33.154 10.381,30.078 C7.305,27.002 5.768,23.327 5.768,19.051 C5.768,14.776 7.305,11.075 10.381,7.947 C13.378,4.922 17.041,3.411 21.367,3.411 C25.747,3.411 29.448,4.922 32.472,7.947 L32.472,7.947 Z M12.417,9.98 C9.86,12.562 8.582,15.586 8.582,19.055 C8.582,22.523 9.848,25.522 12.377,28.051 C14.908,30.581 17.919,31.846 21.414,31.846 C24.909,31.846 27.946,30.568 30.529,28.013 C32.98,25.639 34.206,22.654 34.206,19.055 C34.206,15.483 32.96,12.452 30.469,9.961 C27.978,7.471 24.96,6.226 21.414,6.226 C17.868,6.226 14.867,7.478 12.417,9.98 L12.417,9.98 Z M19.143,17.53 C18.753,16.678 18.169,16.252 17.388,16.252 C16.01,16.252 15.321,17.18 15.321,19.036 C15.321,20.892 16.01,21.818 17.388,21.818 C18.299,21.818 18.949,21.367 19.339,20.462 L21.25,21.478 C20.339,23.098 18.972,23.907 17.15,23.907 C15.745,23.907 14.62,23.477 13.774,22.615 C12.928,21.754 12.505,20.565 12.505,19.051 C12.505,17.564 12.941,16.383 13.813,15.508 C14.685,14.633 15.772,14.196 17.073,14.196 C19,14.196 20.377,14.955 21.212,16.471 L19.143,17.53 L19.143,17.53 Z M28.134,17.53 C27.743,16.678 27.169,16.252 26.414,16.252 C25.008,16.252 24.304,17.18 24.304,19.036 C24.304,20.892 25.008,21.818 26.414,21.818 C27.326,21.818 27.965,21.367 28.329,20.462 L30.282,21.478 C29.373,23.098 28.008,23.907 26.19,23.907 C24.786,23.907 23.664,23.477 22.818,22.615 C21.975,21.754 21.552,20.565 21.552,19.051 C21.552,17.564 21.981,16.383 22.839,15.508 C23.695,14.633 24.786,14.196 26.112,14.196 C28.035,14.196 29.412,14.955 30.243,16.471 L28.134,17.53 L28.134,17.53 Z" id="Fill-4" fill="#f5f6fa"></path><path d="M52.264,3.986 C58.194,3.986 63.002,8.793 63.002,14.724 C63.002,20.654 58.194,25.461 52.264,25.461 C46.332,25.461 41.524,20.654 41.524,14.724 C41.524,8.793 46.332,3.986 52.264,3.986" id="Fill-5"></path><path d="M55.372,11.617 C55.372,11.203 55.036,10.868 54.622,10.868 L49.879,10.868 C49.466,10.868 49.13,11.203 49.13,11.617 L49.13,16.359 L50.453,16.359 L50.453,21.976 L54.048,21.976 L54.048,16.359 L55.372,16.359 L55.372,11.617" id="Fill-6" fill="#f5f6fa"></path><path d="M52.251,6.999 C53.147,6.999 53.873,7.726 53.873,8.621 C53.873,9.517 53.147,10.243 52.251,10.243 C51.355,10.243 50.628,9.517 50.628,8.621 C50.628,7.726 51.355,6.999 52.251,6.999" id="Fill-7" fill="#f5f6fa"></path><path d="M52.236,2.893 C49.024,2.893 46.305,4.013 44.08,6.255 C41.796,8.574 40.655,11.318 40.655,14.487 C40.655,17.656 41.796,20.381 44.08,22.662 C46.363,24.941 49.082,26.082 52.236,26.082 C55.429,26.082 58.196,24.933 60.538,22.633 C62.744,20.449 63.847,17.734 63.847,14.487 C63.847,11.24 62.725,8.497 60.48,6.255 C58.235,4.013 55.488,2.893 52.236,2.893 L52.236,2.893 Z M52.266,4.978 C54.898,4.978 57.132,5.907 58.97,7.762 C60.829,9.598 61.758,11.84 61.758,14.487 C61.758,17.154 60.848,19.367 59.028,21.125 C57.112,23.019 54.858,23.966 52.266,23.966 C49.672,23.966 47.436,23.029 45.56,21.154 C43.683,19.28 42.744,17.058 42.744,14.487 C42.744,11.917 43.692,9.675 45.589,7.762 C47.409,5.907 49.634,4.978 52.266,4.978 L52.266,4.978 Z" id="Fill-8" fill="#f5f6fa"></path><path d="M115.08,14.48 C115.084,20.326 110.349,25.068 104.502,25.072 C98.656,25.076 93.914,20.342 93.91,14.495 L93.91,14.48 C93.906,8.636 98.642,3.894 104.486,3.889 C110.333,3.885 115.074,8.62 115.08,14.465 L115.08,14.48" id="Fill-15"></path><path d="M104.419,2.886 C101.207,2.886 98.487,4.007 96.263,6.248 C93.979,8.567 92.837,11.311 92.837,14.48 C92.837,17.65 93.979,20.375 96.263,22.655 C98.545,24.935 101.265,26.076 104.419,26.076 C107.611,26.076 110.379,24.926 112.721,22.627 C114.926,20.442 116.029,17.727 116.029,14.48 C116.029,11.234 114.908,8.49 112.662,6.248 C110.418,4.007 107.67,2.886 104.419,2.886 L104.419,2.886 Z M104.447,4.973 C107.08,4.973 109.314,5.9 111.153,7.756 C113.011,9.591 113.94,11.832 113.94,14.48 C113.94,17.147 113.03,19.36 111.211,21.119 C109.295,23.013 107.04,23.959 104.447,23.959 C101.855,23.959 99.619,23.022 97.742,21.147 C95.866,19.273 94.928,17.051 94.928,14.48 C94.928,11.91 95.875,9.668 97.771,7.756 C99.591,5.9 101.816,4.973 104.447,4.973 L104.447,4.973 Z" id="Fill-16" fill="#f5f6fa"></path><path d="M99.279,12.845 C99.741,9.927 101.795,8.367 104.369,8.367 C108.07,8.367 110.327,11.053 110.327,14.635 C110.327,18.13 107.926,20.845 104.31,20.845 C101.824,20.845 99.597,19.314 99.191,16.31 L102.113,16.31 C102.2,17.87 103.213,18.419 104.658,18.419 C106.307,18.419 107.377,16.888 107.377,14.549 C107.377,12.093 106.452,10.794 104.716,10.794 C103.443,10.794 102.345,11.256 102.113,12.845 L102.963,12.839 L100.663,15.139 L98.363,12.839 L99.279,12.845" id="Fill-17" fill="#f5f6fa"></path><path d="M89.13,14.481 C89.135,20.439 84.308,25.269 78.351,25.275 C72.393,25.279 67.559,20.454 67.555,14.496 L67.555,14.481 C67.55,8.523 72.377,3.691 78.334,3.686 C84.292,3.683 89.126,8.509 89.13,14.465 L89.13,14.481" id="Fill-18"></path><path d="M78.327,2.886 C81.578,2.886 84.326,4.007 86.57,6.248 C88.816,8.49 89.939,11.234 89.939,14.481 C89.939,17.727 88.835,20.442 86.63,22.627 C84.287,24.926 81.52,26.076 78.327,26.076 C75.174,26.076 72.454,24.935 70.172,22.655 C67.888,20.376 66.746,17.65 66.746,14.481 C66.746,11.311 67.888,8.567 70.172,6.248 C72.397,4.007 75.115,2.886 78.327,2.886 L78.327,2.886 Z M69.355,11.366 C69.009,12.344 68.836,13.382 68.836,14.481 C68.836,17.051 69.774,19.273 71.651,21.148 C73.528,23.022 75.764,23.959 78.356,23.959 C80.949,23.959 83.204,23.013 85.119,21.119 C85.76,20.499 86.289,19.823 86.703,19.091 L82.332,17.144 C82.037,18.615 80.726,19.608 79.141,19.725 L79.141,21.513 L77.809,21.513 L77.809,19.725 C76.509,19.71 75.251,19.177 74.289,18.336 L75.887,16.726 C76.656,17.45 77.425,17.775 78.475,17.775 C79.156,17.775 79.91,17.509 79.91,16.622 C79.91,16.309 79.788,16.09 79.597,15.926 L78.491,15.433 L77.114,14.82 C76.434,14.517 75.856,14.261 75.277,14.003 L69.355,11.366 L69.355,11.366 Z M78.356,4.973 C75.725,4.973 73.5,5.9 71.681,7.756 C71.185,8.255 70.755,8.777 70.389,9.322 L74.822,11.295 C75.223,10.066 76.391,9.32 77.809,9.237 L77.809,7.449 L79.141,7.449 L79.141,9.237 C80.058,9.281 81.062,9.533 82.055,10.3 L80.531,11.866 C79.969,11.468 79.259,11.187 78.549,11.187 C77.973,11.187 77.158,11.363 77.158,12.087 C77.158,12.198 77.195,12.295 77.263,12.381 L78.746,13.042 L79.749,13.489 C80.392,13.775 81.004,14.047 81.611,14.318 L87.554,16.963 C87.75,16.185 87.848,15.357 87.848,14.481 C87.848,11.832 86.919,9.591 85.062,7.756 C83.224,5.9 80.988,4.973 78.356,4.973 L78.356,4.973 Z" id="Fill-19" fill="#f5f6fa"></path></g></g></svg>