<svg width="501px" height="348px" viewBox="0 0 501 348" version="1.1" xmlns="http://www.w3.org/2000/svg" xmlns:xlink="http://www.w3.org/1999/xlink" preserveAspectRatio="xMinYMin meet"><title>Code &amp; Creativity</title><description></description><defs></defs><g id="Page-1" stroke="none" stroke-width="1" fill="none" fill-rule="evenodd"><path d="M263.379,7.696 C263.379,7.696 196.763,-5.611 125.742,3.753 C54.717,13.115 -4.227,39.455 1.131,128.459 C6.488,217.464 37.294,266.699 47.129,280.914 C56.964,295.129 96.469,347.508 141.901,347.02 C187.33,346.527 332.306,308.213 378.378,287.911 C435.797,262.601 479.914,230.159 493.879,200.967 C507.838,171.773 504.033,104.504 446.915,70.232 C389.801,35.963 310.674,13.585 263.379,7.696" fill="#2E8591"></path><path d="M118.792,161.501 C123.796,160.706 129.055,158.731 134.571,155.564 C140.069,152.242 144.259,148.493 147.144,144.315 C148.112,152.367 151.086,156.003 156.078,155.212 C158.538,154.822 160.614,153.14 162.313,150.154 C162.737,149.407 163.223,148.312 163.777,146.867 C164.328,145.423 164.942,143.671 165.622,141.613 C165.961,140.115 166.26,138.754 166.515,137.524 C166.768,136.298 166.979,135.203 167.15,134.241 C169.694,134.858 171.179,135.13 171.604,135.062 C173.332,134.789 174.871,133.878 176.233,132.371 C175.956,134.818 175.802,137.157 175.802,139.363 C175.802,142.672 176.354,145.384 177.456,147.501 C178.899,150.494 180.934,151.787 183.565,151.37 C185.604,151.045 187.638,148.814 189.673,144.675 C189.93,144.209 190.374,143.249 191.01,141.791 C191.648,140.331 192.431,138.343 193.366,135.817 C194.129,144.094 196.501,147.918 200.491,147.288 C202.65,146.945 205.538,141.155 209.158,129.948 C209.157,130.134 209.145,130.334 209.145,130.518 C209.145,134.335 209.993,137.808 211.689,140.93 C213.895,144.571 216.781,146.109 220.345,145.545 C222.89,145.141 225.137,143.552 227.088,140.782 C230.228,135.961 233.408,126.93 236.633,113.692 C237.906,108.401 238.544,105.458 238.544,104.862 C238.544,103.845 237.989,103.422 236.887,103.596 C236.548,103.651 235.742,106.195 234.47,111.236 C229.378,131.386 224.797,141.785 220.729,142.431 C219.199,142.67 217.755,142.008 216.398,140.442 C214.955,138.806 214.235,137.262 214.235,135.82 C216.355,132.174 218.136,128.628 219.582,125.173 C223.228,116.792 225.052,109.46 225.052,103.184 C225.052,101.398 224.29,99.995 222.76,98.963 C221.233,97.934 219.582,97.56 217.798,97.84 C214.743,98.321 212.41,103.319 210.8,112.821 C210.635,113.741 210.486,114.642 210.348,115.531 C209.02,120.814 207.643,125.712 206.217,130.219 C203.418,139.232 201.255,143.856 199.729,144.099 C197.947,144.042 196.972,141.015 196.802,135.019 C196.802,133.576 196.994,131.043 197.376,127.418 C197.756,123.797 198.284,119.131 198.964,113.423 C199.897,105.808 200.621,99.989 201.128,95.964 C201.636,91.937 201.934,89.621 202.019,89.013 C203.121,83.239 204.056,78.235 204.819,73.999 C205.583,69.763 206.217,66.292 206.728,63.579 C207.067,60.979 206.217,59.841 204.181,60.165 C203.079,60.339 202.357,60.497 202.019,60.633 C201.003,61.135 200.621,62.51 200.872,64.76 C199.77,73.166 198.814,80.444 198.01,86.593 C197.203,92.747 196.546,97.857 196.038,101.924 C195.865,102.204 195.697,102.36 195.528,102.386 C195.445,102.4 194.593,101.943 192.983,101.006 C191.457,99.976 190.141,99.547 189.037,99.721 C185.813,100.235 182.718,105.519 179.748,115.576 C178.753,119.007 177.948,122.274 177.329,125.379 C175.884,128.915 173.681,130.918 170.713,131.386 C169.779,131.535 168.719,131.239 167.53,130.491 C167.53,120.227 167.19,114.13 166.515,112.198 C165.836,110.357 164.266,108.697 161.804,107.218 C159.428,105.731 157.138,105.157 154.931,105.507 C152.64,105.869 151.199,107.543 150.607,110.519 C150.265,112.017 150.01,113.202 149.843,114.075 C149.67,114.952 149.498,115.686 149.501,116.167 C149.509,117.685 148.612,119.66 148.698,120.237 C148.753,120.643 148.791,120.941 148.81,121.145 C147.462,124.164 146.789,129.69 146.789,137.72 C146.789,138.557 146.805,139.36 146.832,140.137 C146.378,140.843 145.65,141.884 144.497,143.427 C140.035,149.397 126.682,156.305 117.264,157.797 C106.742,159.464 101.483,153.17 101.483,138.915 C101.483,126.275 103.9,112.997 108.739,99.078 C113.91,84.006 119.681,75.964 126.046,74.959 C129.099,74.474 132.067,74.727 134.954,75.711 C138.519,76.846 140.297,78.809 140.297,81.61 C140.297,84.154 139.576,88.343 138.135,94.166 C136.691,99.912 135.972,103.928 135.972,106.22 C135.972,107.491 136.267,108.718 136.861,109.896 C137.541,111.486 138.431,112.192 139.535,112.018 C141.146,111.762 142.589,108.143 143.862,101.151 C144.878,95.563 145.391,91.281 145.391,88.312 C145.391,83.393 144.752,79.885 143.481,77.797 C142.546,76.162 140.68,74.761 137.88,73.592 C133.467,71.66 128.929,71.063 124.264,71.802 C120.956,72.326 118.493,73.27 116.883,74.628 C110.348,79.905 104.876,89.892 100.465,104.59 C96.816,116.622 94.993,127.304 94.993,136.636 C94.993,144.696 96.858,151.061 100.591,155.73 C104.835,160.826 110.9,162.75 118.792,161.501 M218.307,102.979 C218.645,101.823 219.156,101.188 219.834,101.081 C221.021,100.892 221.616,102.243 221.616,105.126 C221.616,108.435 220.808,113.016 219.199,118.872 C217.415,125.602 215.55,129.717 213.598,131.213 C213.598,122.303 215.169,112.892 218.307,102.979 M190.948,105.275 C193.491,104.871 194.766,106.578 194.766,110.397 C194.766,111.247 194.721,112.206 194.637,113.281 C194.552,114.355 194.425,115.585 194.254,116.967 C194.086,118.695 193.958,120.09 193.873,121.166 C193.789,122.239 193.703,123.039 193.619,123.56 C193.195,125.665 192.644,127.873 191.965,130.185 C191.286,132.499 190.48,134.918 189.546,137.44 C187.085,144.108 184.922,147.59 183.057,147.885 C181.19,148.183 180.257,144.213 180.257,135.984 C180.257,132.085 181.231,126.455 183.183,119.103 C185.56,110.329 188.146,105.719 190.948,105.275 M153.023,122.607 C154.38,114.419 155.951,110.184 157.733,109.899 C160.445,109.472 161.804,110.739 161.804,113.709 C161.804,114.303 161.741,115.244 161.613,116.54 C161.486,117.833 161.424,118.776 161.424,119.368 C161.424,120.303 161.506,121.413 161.679,122.699 C161.847,123.989 162.1,125.495 162.443,127.224 C162.779,128.953 163.034,130.484 163.205,131.811 C163.375,133.141 163.46,134.275 163.46,135.21 C163.46,137.5 162.443,141.015 160.404,145.746 C158.877,149.384 157.648,151.274 156.715,151.422 C152.98,152.013 151.114,147.728 151.114,138.563 C151.114,135.001 151.752,129.682 153.023,122.607" fill="#1B5E5F"></path><path d="M313.116,129.326 C314.642,130.778 316,131.411 317.187,131.224 C317.697,131.144 318.354,130.847 319.16,130.337 C319.966,129.829 320.371,129.36 320.371,128.937 C317.909,128.227 316.126,127.32 315.024,126.223 C311.797,123.086 309.38,120.795 307.769,119.351 C309.042,118.218 311.629,114.667 315.535,108.705 C318.928,103.503 321.43,100.772 323.041,100.516 L331.821,99.126 C332.587,98.157 332.968,97.42 332.968,96.907 C332.458,95.887 328.896,95.816 322.278,96.69 L295.171,101.113 C293.729,97.951 292.608,95.412 291.797,93.503 C290.991,91.594 290.461,90.235 290.208,89.428 C293.601,85.071 296.187,81.779 297.974,79.542 C299.753,77.313 300.772,76.007 301.027,75.625 C305.352,69.511 307.518,64.5 307.518,60.599 C307.518,56.61 306.073,53.274 303.189,50.592 C300.219,47.84 296.786,46.769 292.882,47.389 C289.063,47.995 286.01,50.896 283.718,56.092 C281.851,60.208 280.918,64.472 280.918,68.882 C280.918,74.398 282.191,80.814 284.735,88.131 L272.899,103.747 C269.083,109.699 267.173,115.474 267.173,121.072 C267.173,125.995 268.827,129.764 272.135,132.379 C275.528,135.066 279.602,136.031 284.353,135.279 C290.207,134.351 297.165,129.984 305.224,122.175 L313.116,129.326 L313.116,129.326 L313.116,129.326 L313.116,129.326 Z M300.134,104.528 C301.067,104.293 302,104.103 302.936,103.954 C303.869,103.808 304.802,103.661 305.736,103.511 L313.117,102.343 C313.117,103.533 312.056,105.906 309.933,109.463 C307.727,113.042 306.244,114.885 305.48,115.005 C303.779,113.069 302.254,111.274 300.9,109.623 C299.541,107.971 298.395,106.415 297.464,104.951 L300.134,104.528 L300.134,104.528 L300.134,104.528 L300.134,104.528 Z M287.281,58.709 C289.231,53.398 291.776,50.492 294.919,49.991 C296.103,49.807 297.229,49.942 298.289,50.414 C299.35,50.882 300.281,51.54 301.09,52.39 C301.895,53.236 302.532,54.216 302.998,55.331 C303.466,56.447 303.699,57.595 303.699,58.781 C303.699,62.687 300.771,68.326 294.919,75.701 C291.607,79.958 289.444,82.547 288.429,83.472 C286.307,78.466 285.246,74.134 285.246,70.485 C285.246,66.416 285.924,62.492 287.281,58.709 L287.281,58.709 Z M295.682,125.975 C291.013,129.6 286.561,131.747 282.319,132.418 C279.435,132.875 276.762,132.241 274.301,130.509 C271.838,128.693 270.61,126.467 270.61,123.838 C270.61,111.705 275.954,101.271 286.645,92.537 C288.682,97.729 290.081,100.817 290.844,101.798 C287.365,103.285 284.906,104.183 283.465,104.495 C283.377,104.847 283.315,105.174 283.275,105.479 C283.23,105.782 283.21,106.148 283.21,106.571 C284.059,106.437 285.713,106.302 288.172,106.168 C290.294,106.086 291.945,105.952 293.134,105.763 C298.651,113.715 301.578,118.255 301.916,119.388 C301.915,120.578 299.838,122.771 295.682,125.975 L295.682,125.975 Z" fill="#1B5E5F"></path><path d="M251.158,181.377 C253.277,181.039 254.34,179.303 254.34,176.166 C254.34,173.025 252.895,171.683 250.012,172.143 C249.163,172.278 248.294,172.879 247.403,173.954 C246.514,175.03 246.066,175.991 246.066,176.837 C246.066,178.198 246.575,179.347 247.592,180.288 C248.614,181.229 249.798,181.59 251.158,181.377" fill="#1B5E5F"></path><path d="M278.518,195.623 C277.923,195.721 277.625,196.019 277.625,196.53 C277.625,196.273 277.923,197.461 278.518,200.078 L278.518,209.369 C278.518,212.676 277.499,218.101 275.463,225.633 C273.256,233.789 271.517,237.967 270.244,238.17 C267.699,238.568 266.426,233.512 266.426,222.99 C266.426,222.312 266.469,221.416 266.553,220.299 C266.639,219.184 266.762,217.891 266.937,216.42 C267.105,214.951 267.256,213.635 267.381,212.469 C267.509,211.303 267.571,210.385 267.571,209.701 C267.571,207.072 266.256,205.924 263.629,206.254 C262.945,206.359 262.523,206.557 262.355,206.838 C262.183,207.119 262.101,207.387 262.101,207.639 C262.101,207.893 262.183,208.35 262.355,209 L262.355,209.047 C262.178,209.514 262.008,210.068 261.848,210.735 C261.252,213.294 260.702,215.544 260.194,217.487 C259.684,219.436 259.216,221.122 258.794,222.546 C256.078,231.546 254.678,236.099 254.593,236.192 C252.896,240.706 251.456,243.053 250.266,243.241 C247.722,243.645 246.448,241.007 246.448,235.319 C246.448,229.891 247.255,223.186 248.868,215.21 C249.289,213.281 249.65,211.673 249.949,210.392 C250.245,209.119 250.478,208.13 250.647,207.421 C250.647,206.233 249.547,205.814 247.342,206.163 C246.237,206.335 245.389,206.77 244.792,207.458 C244.792,208.983 244.708,210.929 244.54,213.284 C244.441,214.647 244.311,216.167 244.156,217.805 C240.153,235.005 236.547,243.888 233.342,244.395 C231.304,244.717 230.116,242.319 229.778,237.194 C229.694,236.276 229.631,234.632 229.586,232.262 C229.545,229.895 229.524,226.801 229.524,222.983 C229.524,216.368 230.542,205.766 232.578,191.19 L238.687,190.35 C240.726,190.112 242.674,189.846 244.542,189.551 C246.408,189.254 248.187,188.973 249.888,188.703 C251.497,188.449 253.915,187.769 257.141,186.666 C261.039,185.367 263.162,184.48 263.504,184.002 L263.504,183.113 C259.175,183.627 255.548,184.097 252.621,184.517 C249.695,184.939 247.382,185.24 245.687,185.423 C242.292,185.878 239.596,186.239 237.603,186.513 C235.611,186.788 234.274,186.976 233.594,187.085 C233.934,185.503 234.233,184.056 234.485,182.743 C234.741,181.432 234.952,180.21 235.122,179.079 L235.122,176.405 C232.832,175.243 231.133,174.749 230.032,174.923 C229.351,175.03 228.886,175.402 228.632,176.034 L229.269,178.225 C229.098,180.459 228.97,182.366 228.886,183.948 C228.802,185.532 228.717,186.796 228.632,187.741 C223.966,188.651 220.104,189.411 217.052,190.022 C213.997,190.633 211.665,191.065 210.053,191.321 C209.033,191.483 208.525,191.862 208.525,192.456 C208.525,192.964 208.991,193.356 209.924,193.632 C211.114,193.954 212.006,194.407 212.595,194.991 L215.523,193.637 C222.651,192.594 226.934,192.041 228.377,191.983 C227.274,202.594 226.448,211.018 225.895,217.258 C225.827,218.025 225.764,218.757 225.704,219.459 C221.059,238.977 217.368,248.957 214.632,249.391 C213.19,249.62 212.128,248.303 211.451,245.44 C210.943,243.404 210.772,241.395 210.943,239.413 C211.707,230.3 213.147,222.479 215.269,215.948 L210.815,215.126 L208.524,210.907 C207.507,209.116 205.13,208.516 201.398,209.108 C199.7,209.378 197.621,214.118 195.162,223.333 C193.855,228.716 192.957,233.019 192.448,236.292 C188.53,249.341 184.938,256.131 181.674,256.649 C180.148,256.889 178.704,256.229 177.346,254.661 C175.905,253.024 175.184,251.485 175.184,250.042 C177.303,246.394 179.086,242.849 180.527,239.394 C184.176,231.013 186.002,223.681 186.002,217.402 C186.002,215.623 185.238,214.216 183.711,213.183 C182.183,212.155 180.527,211.78 178.748,212.062 C175.693,212.544 173.361,217.539 171.748,227.042 C171.424,228.854 171.155,230.602 170.932,232.295 C170.076,235.549 168.91,239.406 167.422,243.89 C164.367,253.281 162.118,258.091 160.677,258.322 C158.212,258.711 156.986,256.912 156.986,252.922 C156.986,251.483 157.068,249.709 157.241,247.602 C157.407,245.498 157.664,243.061 158.004,240.291 C158.342,237.437 158.596,234.959 158.767,232.85 C158.936,230.748 159.021,228.973 159.021,227.532 C159.021,225.071 157.195,223.198 153.549,221.907 C149.987,220.608 148.205,219.531 148.205,218.678 C148.205,218.344 148.225,217.83 148.268,217.145 C148.31,216.459 148.374,215.6 148.457,214.569 C148.544,213.708 148.605,212.956 148.649,212.311 C148.689,211.668 148.669,211.098 148.587,210.602 C148.5,207.987 147.611,206.813 145.913,207.081 C143.793,207.421 142.732,209.708 142.732,213.948 C142.732,214.884 143.071,216.313 143.75,218.239 C144.427,220.171 144.768,221.559 144.768,222.407 C144.768,224.031 144.467,226.141 143.869,228.732 C143.54,229.97 142.996,232.011 142.314,234.567 C141.743,236.704 141.06,239.2 140.247,241.803 C140.037,242.448 139.821,243.102 139.605,243.762 C139.385,244.407 139.13,244.99 138.897,245.616 C138.315,246.938 137.698,248.233 137.021,249.471 C136.334,250.701 135.625,251.912 134.812,253.014 C134.017,254.133 133.177,255.174 132.316,256.133 C131.436,257.074 130.531,257.926 129.627,258.676 C129.166,259.037 128.718,259.391 128.283,259.733 C127.827,260.044 127.385,260.342 126.964,260.629 C126.094,261.168 125.278,261.641 124.526,262.008 C123.766,262.354 123.132,262.723 122.558,262.918 C121.429,263.338 120.788,263.611 120.788,263.611 L120.796,263.639 C116.447,265.218 111.678,266.242 111.678,266.242 C101.157,267.908 95.897,261.613 95.897,247.359 C95.897,234.718 98.316,221.441 103.153,207.521 C108.324,192.451 114.095,184.412 120.459,183.402 C123.513,182.918 126.481,183.17 129.367,184.155 C132.93,185.289 134.713,187.252 134.713,190.054 C134.713,192.595 133.99,196.783 132.549,202.611 C131.104,208.357 130.385,212.371 130.385,214.662 C130.385,215.935 130.679,217.16 131.277,218.34 C131.956,219.93 132.845,220.637 133.948,220.463 C135.558,220.207 137.002,216.582 138.277,209.596 C139.294,204.006 139.804,199.723 139.804,196.754 C139.804,191.834 139.165,188.326 137.895,186.238 C136.958,184.607 135.094,183.207 132.294,182.035 C127.881,180.103 123.342,179.51 118.676,180.248 C115.37,180.773 112.906,181.715 111.295,183.07 C104.761,188.349 99.29,198.336 94.879,213.033 C91.228,225.066 89.407,235.746 89.407,245.078 C89.407,253.14 91.273,259.506 95.007,264.172 C99.248,269.27 105.314,271.193 113.204,269.943 C117.337,269.289 121.693,268.039 126.189,265.847 C126.236,265.828 126.278,265.811 126.325,265.792 C127.214,265.399 128.185,264.868 129.224,264.265 C129.731,263.939 130.258,263.601 130.803,263.249 C131.327,262.87 131.858,262.458 132.398,262.026 C133.452,261.141 134.5,260.139 135.512,259.034 C136.498,257.913 137.474,256.716 138.312,255.404 C139.185,254.118 139.932,252.733 140.638,251.342 C141.334,249.947 141.946,248.533 142.489,247.158 C142.747,246.408 143.036,245.646 143.251,244.924 C143.441,244.213 143.63,243.508 143.817,242.819 C144.5,240.059 145.044,237.503 145.486,235.305 C145.969,232.817 146.326,230.792 146.545,229.503 C147.225,226.554 147.567,224.46 147.567,223.234 C151.721,224.697 153.803,226.445 153.803,228.482 L153.549,238.703 C153.378,243.74 153.378,247.682 153.549,250.539 C153.631,254.428 154.058,256.949 154.822,258.101 C156.605,260.79 158.807,261.925 161.439,261.507 C163.595,261.165 166.483,255.384 170.098,244.193 C170.097,244.373 170.092,244.557 170.092,244.737 C170.092,248.554 170.941,252.029 172.638,255.153 C174.843,258.791 177.727,260.326 181.293,259.761 C183.84,259.359 186.087,257.771 188.036,255.003 C189.384,252.932 190.739,250.08 192.102,246.459 C192.673,254.686 195.007,258.482 199.109,257.831 C202.585,257.278 205.427,252.882 207.635,244.645 C209.67,250.516 212.258,253.202 215.396,252.704 C217.941,252.302 220.995,246.304 224.559,234.71 C224.772,234.02 224.977,233.35 225.175,232.691 C225.359,235.528 225.784,238.348 226.467,241.153 C227.91,246.692 230.073,249.235 232.959,248.777 C236.069,248.284 239.366,242.847 242.852,232.471 C242.792,233.663 242.759,234.735 242.759,235.647 C242.759,238.444 243.223,241.042 244.156,243.442 C245.43,246.296 247.378,247.512 250.011,247.096 C252.386,246.721 254.42,244.534 256.119,240.528 C256.71,239.077 258.113,234.7 260.318,227.389 C260.989,225.099 261.58,223.026 262.099,221.144 L262.099,221.889 C262.099,226.643 262.481,230.866 263.245,234.563 C264.516,240.641 266.683,243.438 269.735,242.954 C273.045,242.427 276.012,236.827 278.641,226.145 C280.848,217.227 281.953,210.391 281.953,205.637 C281.955,198.598 280.81,195.262 278.518,195.623 L278.518,195.623 Z M174.551,245.434 C174.551,236.524 176.117,227.115 179.258,217.198 C179.593,216.046 180.104,215.411 180.784,215.303 C181.971,215.115 182.566,216.465 182.566,219.348 C182.566,222.659 181.76,227.24 180.149,233.094 C178.367,239.824 176.498,243.936 174.551,245.434 L174.551,245.434 Z M207.636,232.051 C207.464,233.604 207.125,235.373 206.615,237.363 C206.108,239.353 205.512,241.508 204.836,243.816 C203.053,249.699 201.356,253.236 199.743,254.425 C198.554,254.613 197.581,253.96 196.818,252.468 C196.222,251.29 195.928,249.98 195.928,248.536 C195.928,240.899 196.604,234.388 197.963,228.999 C198.554,226.954 199.064,225.134 199.49,223.538 C199.913,221.944 200.294,220.654 200.634,219.665 C201.737,215.419 203.011,213.181 204.452,212.954 C206.233,212.669 207.295,214.456 207.636,218.306 L209.163,220.099 L207.636,232.051 L207.636,232.051 L207.636,232.051 L207.636,232.051 Z" fill="#1B5E5F"></path><path d="M295.951,164.863 C295.098,164.999 294.235,165.603 293.342,166.677 C292.451,167.754 292.007,168.715 292.007,169.562 C292.007,170.92 292.515,172.07 293.532,173.008 C294.55,173.953 295.739,174.317 297.097,174.102 C299.214,173.764 300.277,172.028 300.277,168.888 C300.277,165.751 298.834,164.407 295.951,164.863" fill="#1B5E5F"></path><path d="M384.417,248.914 C384.152,248.482 383.778,248.123 383.39,247.924 C382.617,247.53 381.912,247.436 381.202,247.623 C380.84,247.324 380.491,246.996 380.098,246.633 C379.951,246.492 379.806,246.346 379.662,246.201 C379.539,246.074 379.418,245.949 379.292,245.824 C379.06,245.599 378.825,245.383 378.586,245.164 L378.036,244.666 C377.682,244.344 377.325,244.023 376.973,243.697 C376.538,243.295 376.109,242.886 375.682,242.476 L374.517,241.386 C374.287,241.177 374.054,240.97 373.83,240.761 C373.711,240.65 373.595,240.531 373.48,240.417 C373.325,240.263 373.174,240.112 373.02,239.97 L371.452,238.542 C371.813,238.317 372.174,238.099 372.538,237.876 L378.194,234.349 C378.673,234.046 379.151,233.745 379.635,233.447 C379.936,233.261 380.24,233.08 380.548,232.898 C380.826,232.734 381.104,232.57 381.38,232.4 C381.882,232.089 382.387,231.769 382.886,231.449 L383.361,231.146 C383.798,230.867 383.983,230.388 383.877,229.832 C383.788,229.359 383.399,229.043 382.912,229.043 L382.572,229.094 C382.254,229.192 381.944,229.33 381.639,229.512 C381.239,229.758 380.843,230.014 380.447,230.268 L371.236,236.028 C371.214,236.042 371.186,236.059 371.161,236.075 L375.552,217.2 C375.749,216.356 375.946,215.509 376.156,214.665 C376.205,214.46 376.239,214.407 376.29,214.386 C376.633,214.322 376.854,214.107 377.019,213.948 L377.248,213.735 C377.53,213.579 377.855,213.276 377.964,212.698 C377.989,212.555 378.024,212.415 378.058,212.274 L378.092,212.124 C378.27,211.317 377.9,210.683 377.632,210.22 C377.132,209.359 376.268,209.091 375.663,208.966 C374.914,208.814 374.216,209.107 373.777,209.364 C372.965,209.839 372.479,210.643 372.449,211.559 C372.435,211.836 372.461,212.125 372.525,212.446 C372.695,213.239 373.222,213.755 373.643,214.134 C373.521,214.589 373.414,215.054 373.3,215.554 L369.014,234.038 C368.999,233.993 368.982,233.948 368.968,233.906 C368.906,233.733 368.843,233.563 368.789,233.389 C368.661,232.981 368.537,232.567 368.414,232.157 L368.111,231.156 C367.969,230.692 367.821,230.231 367.673,229.768 L367.438,229.045 C367.384,228.897 367.333,228.746 367.291,228.594 L366.727,226.51 C366.639,226.201 366.545,225.891 366.446,225.588 L366.267,225.047 C366.189,224.82 366.112,224.594 366.041,224.363 C365.972,224.14 365.91,223.914 365.85,223.691 L365.718,223.212 C365.637,222.913 365.553,222.614 365.462,222.319 L364.778,220.151 C364.721,219.965 364.658,219.782 364.551,219.491 L364.468,219.255 C364.383,219.013 364.298,218.771 364.187,218.53 C364.031,218.204 363.716,217.999 363.368,217.999 C362.956,217.999 362.604,218.29 362.516,218.7 C362.448,219.005 362.489,219.294 362.529,219.585 C362.551,219.771 362.631,219.911 362.678,219.983 L362.825,220.544 C362.888,220.786 362.955,221.028 363.022,221.271 C363.115,221.591 363.218,221.906 363.321,222.224 L363.472,222.699 C363.536,222.892 363.6,223.084 363.653,223.285 C363.696,223.447 363.735,223.605 363.772,223.767 C363.838,224.037 363.904,224.308 363.986,224.57 C364.177,225.168 364.381,225.763 364.581,226.355 L364.876,227.218 C364.965,227.486 365.047,227.753 365.12,228.019 L365.479,229.386 C365.554,229.659 365.635,229.931 365.715,230.197 L366.285,232.092 C366.34,232.283 366.392,232.479 366.453,232.676 C366.515,232.862 366.583,233.049 366.65,233.233 C366.721,233.434 366.795,233.633 366.86,233.838 C366.914,234.012 366.968,234.186 367.022,234.359 C366.748,234.105 366.472,233.851 366.197,233.601 L366.061,233.474 C365.856,233.286 365.657,233.099 365.453,232.917 L365.074,232.583 C364.9,232.435 364.727,232.284 364.562,232.126 C364.335,231.907 364.115,231.687 363.891,231.466 C363.635,231.206 363.379,230.948 363.114,230.696 C362.804,230.407 362.489,230.122 362.17,229.839 L361.502,229.235 C361.358,229.104 361.22,228.969 361.08,228.835 L360.549,228.317 C360.303,228.077 360.059,227.837 359.737,227.542 C359.851,226.978 359.82,226.48 359.641,225.929 C359.344,225.015 358.674,224.624 358.138,224.312 L357.995,224.23 C357.652,224.019 357.168,224.044 356.872,224.107 C356.81,224.119 356.754,224.138 356.694,224.138 C355.816,224.161 355.108,224.597 354.538,225.474 C354.066,226.204 353.999,227.023 354.34,227.841 C354.588,228.441 354.957,229.103 355.811,229.445 C356.275,229.631 356.742,229.718 357.234,229.718 L357.667,229.673 C357.996,229.9 358.306,230.183 358.726,230.571 C358.871,230.704 359.009,230.846 359.146,230.991 C359.289,231.137 359.432,231.284 359.587,231.427 C359.846,231.663 360.109,231.896 360.374,232.13 C360.634,232.359 360.89,232.585 361.145,232.816 C361.551,233.191 361.952,233.568 362.352,233.953 C362.503,234.096 362.65,234.242 362.791,234.391 L363.192,234.786 C363.456,235.044 363.728,235.294 364.001,235.546 L364.415,235.921 C364.562,236.052 364.708,236.183 364.848,236.312 L365.652,237.087 C365.604,237.095 365.563,237.101 365.516,237.108 C364.413,237.282 360.873,237.223 358.159,238.335 C356.969,238.86 348.971,240.692 348.123,241.04 C347.275,241.39 346.64,241.636 346.214,241.788 L345.962,236.227 C345.707,231.094 345.578,227.295 345.578,224.836 C345.494,217.723 345.536,212.033 345.707,207.762 C345.876,203.494 346.17,200.52 346.597,198.84 C348.379,192.194 349.269,187.899 349.269,185.947 C349.269,184.756 348.591,184.31 347.233,184.611 C345.199,185.019 344.053,186.304 343.798,188.463 C343.116,194.258 342.524,199.102 342.016,203.002 C341.508,206.898 341.126,209.93 340.869,212.092 C337.561,225.342 334.806,232.141 332.599,232.49 C330.392,232.839 329.289,229.578 329.289,222.707 C329.289,220.926 329.373,218.746 329.544,216.176 C329.714,213.604 329.967,210.596 330.309,207.147 L331.707,193.944 C331.875,192.731 331.24,192.239 329.797,192.465 C328.186,192.721 327.082,194.803 326.488,198.717 C326.422,199.73 326.355,200.742 326.29,201.754 C325.55,204.93 324.812,207.954 324.071,210.807 C323.224,214.08 322.333,217.149 321.396,220.012 C321.021,221.222 320.658,222.347 320.305,223.399 C318.349,228.508 316.507,231.223 314.782,231.495 C312.745,231.819 311.556,229.419 311.219,224.298 C311.135,223.378 311.072,221.734 311.028,219.364 C310.983,216.997 310.965,213.901 310.965,210.085 C310.965,203.466 311.984,192.868 314.023,178.292 L320.13,177.452 C322.166,177.214 324.115,176.948 325.984,176.653 C327.848,176.356 329.63,176.075 331.329,175.805 C332.938,175.551 335.356,174.871 338.584,173.764 C342.482,172.469 344.605,171.584 344.945,171.103 L344.945,170.211 C340.619,170.729 336.989,171.198 334.064,171.619 C331.139,172.041 328.827,172.34 327.13,172.525 C323.734,172.978 321.04,173.341 319.046,173.615 C317.053,173.888 315.717,174.078 315.038,174.183 C315.375,172.605 315.674,171.158 315.929,169.845 C316.184,168.532 316.395,167.312 316.564,166.178 L316.564,163.506 C314.274,162.342 312.579,161.849 311.478,162.024 C310.795,162.129 310.331,162.5 310.075,163.136 L310.713,165.325 C310.54,167.559 310.412,169.468 310.331,171.047 C310.243,172.632 310.158,173.898 310.075,174.845 C305.412,175.755 301.551,176.513 298.496,177.124 C295.44,177.733 293.106,178.169 291.495,178.421 C290.479,178.581 289.969,178.964 289.969,179.556 C289.969,180.064 290.435,180.46 291.368,180.736 C292.556,181.056 293.447,181.507 294.04,182.091 L296.97,180.736 C304.094,179.695 308.379,179.144 309.821,179.086 C308.717,189.695 307.891,198.119 307.339,204.359 C307.29,204.907 307.247,205.418 307.202,205.932 C306.828,207.488 306.471,208.922 306.133,210.21 C305.622,212.159 305.155,213.847 304.734,215.271 C302.017,224.269 300.615,228.82 300.534,228.916 C298.836,233.43 297.392,235.777 296.207,235.965 C293.662,236.369 292.389,233.727 292.389,228.041 C292.389,222.615 293.193,215.91 294.808,207.934 C295.231,206.002 295.59,204.397 295.888,203.116 C296.186,201.843 296.417,200.854 296.589,200.143 C296.589,198.957 295.485,198.538 293.281,198.887 C292.176,199.061 291.328,199.494 290.733,200.182 C290.733,201.707 290.649,203.653 290.481,206.008 C290.308,208.369 290.053,211.151 289.716,214.34 C289.377,217.533 289.125,220.287 288.952,222.606 C288.784,224.922 288.697,226.848 288.697,228.374 C288.697,231.171 289.165,233.77 290.097,236.171 C291.37,239.023 293.321,240.239 295.951,239.823 C298.323,239.448 300.359,237.259 302.059,233.255 C302.652,231.806 304.05,227.429 306.259,220.12 C306.371,219.737 306.477,219.372 306.584,219.001 C306.733,222.106 307.165,225.192 307.912,228.257 C308.888,232.003 310.192,234.373 311.827,235.377 C311.835,235.383 311.833,235.386 311.842,235.392 C311.857,235.401 311.87,235.408 311.885,235.416 C311.905,235.427 311.923,235.437 311.943,235.448 C313.162,236.177 314.065,236.257 315.896,235.678 C318.159,234.963 320.495,231.098 323.936,220.617 C324.277,219.632 324.62,218.615 324.964,217.535 C325.015,217.371 325.062,217.216 325.111,217.053 C324.927,220.016 324.835,222.522 324.835,224.559 C324.835,227.528 325.387,230.028 326.489,232.059 C327.845,234.643 329.882,235.721 332.599,235.289 C334.636,234.967 336.372,233.338 337.815,230.391 C338.579,228.661 339.237,227.156 339.791,225.879 C340.341,224.604 340.786,223.518 341.127,222.615 C342.398,227.504 343.035,234.484 343.035,243.562 C337.518,245.624 331.751,249.251 325.726,254.449 C318.092,261.174 314.273,267.633 314.273,273.824 C314.273,275.861 314.634,277.713 315.356,279.379 C316.076,281.051 317.074,282.44 318.343,283.557 C319.618,284.668 321.127,285.467 322.864,285.955 C324.602,286.443 326.489,286.527 328.528,286.203 C340.998,284.226 347.233,273.525 347.233,254.098 C347.233,253.588 347.213,252.893 347.169,252.008 C347.126,251.125 347.086,250.219 347.044,249.291 C347.001,248.365 346.956,247.459 346.916,246.576 C346.873,245.691 346.854,244.996 346.854,244.488 C350.671,242.607 360.238,240.166 361.595,239.953 C362.19,239.857 363.102,239.777 364.333,239.709 C364.666,239.69 365.032,239.676 365.42,239.665 C365.145,239.839 364.872,240.012 364.594,240.186 C364.355,240.336 364.109,240.481 363.865,240.625 C363.631,240.766 363.397,240.904 363.165,241.049 C362.887,241.221 362.611,241.403 362.337,241.582 C362.075,241.752 361.815,241.92 361.551,242.086 C361.316,242.234 361.077,242.375 360.836,242.516 C360.615,242.647 360.392,242.776 360.175,242.914 C359.806,243.141 359.441,243.375 359.072,243.609 L358.322,244.088 C358.104,244.223 357.884,244.354 357.664,244.484 L356.474,245.213 C356.084,245.457 355.691,245.703 355.299,245.942 C354.704,246.294 354.49,246.999 354.809,247.542 C355.131,248.095 355.852,248.356 356.604,247.839 C356.843,247.675 357.083,247.507 357.333,247.355 L358.088,246.9 C358.377,246.728 358.665,246.554 358.954,246.375 L360.034,245.686 C360.491,245.393 360.948,245.1 361.412,244.809 C361.781,244.579 362.149,244.356 362.522,244.131 C362.851,243.932 363.182,243.735 363.511,243.529 C363.864,243.308 364.22,243.082 364.574,242.853 L365.487,242.275 C366.109,241.886 366.73,241.498 367.374,241.109 C367.292,241.472 367.207,241.836 367.121,242.199 L362.428,262.392 C362.393,262.552 362.357,262.716 362.346,262.816 C362.235,262.882 362.114,262.939 361.992,262.994 C361.716,263.125 361.396,263.271 361.129,263.525 C360.709,263.914 360.15,264.539 360.196,265.459 C360.208,265.723 360.218,266.023 360.296,266.332 C360.512,267.164 361.069,267.814 361.955,268.268 C362.222,268.403 362.516,268.471 362.825,268.471 C363.206,268.471 363.55,268.371 363.855,268.283 L364.058,268.223 C364.5,268.1 364.865,267.795 365.097,267.557 C365.316,267.328 365.444,267.065 365.557,266.832 L365.657,266.639 C365.748,266.459 365.877,266.215 365.874,265.909 C365.866,265.19 365.755,264.153 364.829,263.405 C364.826,263.389 364.826,263.335 364.867,263.167 L369.599,242.81 C369.681,243.042 369.76,243.281 369.826,243.515 C369.88,243.706 369.926,243.902 369.974,244.097 C370.037,244.355 370.1,244.615 370.175,244.872 C370.244,245.106 370.322,245.337 370.401,245.565 C370.462,245.741 370.521,245.915 370.578,246.094 C370.746,246.629 370.913,247.168 371.075,247.707 L371.692,249.789 C371.762,250.039 371.831,250.289 371.905,250.533 C372.072,251.086 372.248,251.635 372.422,252.183 L372.668,252.927 C372.714,253.058 372.76,253.189 372.799,253.327 C372.847,253.497 372.891,253.669 372.935,253.843 C372.993,254.075 373.052,254.308 373.123,254.534 C373.256,254.972 373.394,255.406 373.532,255.839 L374.011,257.386 C374.117,257.734 374.223,258.081 374.331,258.429 C374.434,258.743 374.781,259.07 375.229,259.07 L375.235,259.07 C375.558,259.047 376.039,258.8 376.104,258.316 C376.134,258.097 376.165,257.767 376.117,257.429 C376.087,257.226 376.023,257.027 375.956,256.829 L375.521,255.419 C375.454,255.192 375.389,254.966 375.316,254.741 L375.139,254.208 C375.067,254.003 374.997,253.802 374.937,253.595 C374.873,253.39 374.815,253.183 374.758,252.974 L374.037,250.583 C373.972,250.358 373.906,250.132 373.836,249.907 L373.575,249.11 C373.45,248.745 373.328,248.378 373.218,248.01 C373.11,247.647 373.012,247.28 372.914,246.914 C372.83,246.602 372.747,246.287 372.658,245.976 C372.559,245.632 372.448,245.29 372.338,244.951 L371.87,243.441 C371.785,243.164 371.693,242.89 371.604,242.617 L372.93,243.879 C373.257,244.205 373.585,244.525 373.923,244.84 C374.188,245.088 374.462,245.328 374.735,245.565 C374.973,245.774 375.214,245.981 375.442,246.194 C375.809,246.532 376.17,246.872 376.53,247.214 L378.184,248.759 C378.458,249.015 378.73,249.271 379.045,249.573 C379.109,249.635 379.209,249.741 379.24,249.677 C378.976,250.519 379.238,251.21 379.462,251.656 C379.751,252.238 380.217,252.685 380.843,252.984 C381.411,253.259 382.01,253.296 382.79,253.08 C383.453,252.892 384.022,252.471 384.387,251.891 C384.986,250.947 384.996,249.863 384.417,248.914 L384.417,248.914 Z M343.42,255.467 C343.42,261.49 342.274,267.145 339.982,272.426 C337.097,279.078 332.897,282.84 327.382,283.713 C326.108,283.914 324.903,283.809 323.756,283.397 C322.61,282.983 321.612,282.336 320.766,281.454 C319.918,280.571 319.26,279.528 318.792,278.331 C318.327,277.13 318.094,275.851 318.094,274.495 C318.094,269.743 320.298,264.854 324.71,259.831 C329.716,254.031 335.951,249.522 343.42,246.304 L343.42,255.467 L343.42,255.467 L343.42,255.467 L343.42,255.467 Z" fill="#1B5E5F"></path><path d="M116.208,158.918 C121.211,158.123 126.47,156.148 131.986,152.981 C137.485,149.659 141.675,145.91 144.559,141.732 C145.528,149.783 148.502,153.42 153.493,152.629 C155.953,152.239 158.029,150.557 159.729,147.571 C160.153,146.824 160.639,145.729 161.193,144.284 C161.744,142.84 162.357,141.088 163.038,139.03 C163.376,137.532 163.675,136.171 163.93,134.941 C164.183,133.715 164.395,132.62 164.566,131.658 C167.109,132.275 168.594,132.547 169.019,132.479 C170.748,132.206 172.287,131.295 173.649,129.788 C173.371,132.235 173.217,134.574 173.217,136.78 C173.217,140.089 173.77,142.801 174.872,144.918 C176.315,147.911 178.349,149.204 180.981,148.787 C183.02,148.462 185.054,146.231 187.088,142.092 C187.346,141.626 187.79,140.666 188.426,139.208 C189.063,137.748 189.846,135.76 190.782,133.234 C191.545,141.511 193.917,145.335 197.906,144.705 C200.066,144.362 202.953,138.572 206.574,127.365 C206.573,127.551 206.561,127.75 206.561,127.935 C206.561,131.752 207.408,135.225 209.105,138.347 C211.31,141.988 214.196,143.526 217.76,142.962 C220.305,142.558 222.552,140.969 224.503,138.199 C227.643,133.378 230.824,124.347 234.048,111.109 C235.322,105.818 235.959,102.875 235.959,102.279 C235.959,101.262 235.405,100.839 234.303,101.013 C233.963,101.068 233.158,103.612 231.886,108.653 C226.794,128.803 222.213,139.202 218.144,139.848 C216.615,140.087 215.17,139.425 213.814,137.859 C212.37,136.223 211.651,134.679 211.651,133.237 C213.77,129.591 215.551,126.045 216.998,122.59 C220.643,114.209 222.468,106.877 222.468,100.601 C222.468,98.815 221.705,97.412 220.176,96.38 C218.649,95.351 216.998,94.977 215.213,95.257 C212.159,95.738 209.825,100.736 208.215,110.238 C208.051,111.158 207.902,112.059 207.763,112.948 C206.435,118.232 205.059,123.129 203.633,127.636 C200.833,136.649 198.67,141.273 197.144,141.516 C195.363,141.459 194.387,138.432 194.217,132.436 C194.217,130.993 194.41,128.46 194.791,124.835 C195.172,121.214 195.699,116.548 196.38,110.84 C197.312,103.225 198.036,97.406 198.544,93.381 C199.052,89.354 199.35,87.038 199.435,86.43 C200.537,80.656 201.472,75.652 202.234,71.416 C202.998,67.18 203.633,63.709 204.144,60.996 C204.483,58.396 203.633,57.258 201.597,57.582 C200.495,57.756 199.773,57.914 199.435,58.05 C198.419,58.552 198.036,59.927 198.288,62.177 C197.186,70.583 196.23,77.861 195.425,84.01 C194.618,90.164 193.962,95.274 193.454,99.341 C193.281,99.621 193.112,99.777 192.944,99.803 C192.861,99.817 192.009,99.36 190.399,98.423 C188.873,97.393 187.556,96.964 186.452,97.138 C183.228,97.652 180.133,102.936 177.164,112.993 C176.169,116.424 175.363,119.691 174.744,122.796 C173.299,126.332 171.096,128.334 168.128,128.803 C167.194,128.952 166.134,128.656 164.946,127.908 C164.946,117.644 164.606,111.547 163.93,109.615 C163.251,107.774 161.681,106.114 159.219,104.635 C156.844,103.148 154.553,102.574 152.346,102.924 C150.056,103.286 148.614,104.96 148.023,107.936 C147.81,108.865 147.636,109.66 147.491,110.349 L147.49,110.349 C147.49,110.349 144.709,122.011 144.555,126.414 L144.555,126.431 C144.323,128.903 144.205,131.8 144.205,135.137 C144.205,135.974 144.22,136.776 144.247,137.554 C143.794,138.26 143.066,139.301 141.913,140.844 C137.451,146.814 124.098,153.722 114.679,155.214 C104.158,156.881 98.899,150.587 98.899,136.332 C98.899,123.692 101.316,110.414 106.155,96.495 C111.326,81.423 117.097,73.381 123.462,72.376 C126.515,71.891 129.483,72.144 132.369,73.128 C135.935,74.263 137.712,76.226 137.712,79.027 C137.712,81.571 136.992,85.76 135.55,91.583 C134.107,97.329 133.388,101.345 133.388,103.637 C133.388,104.908 133.683,106.135 134.277,107.313 C134.956,108.903 135.847,109.609 136.95,109.435 C138.562,109.179 140.004,105.56 141.278,98.568 C142.294,92.98 142.806,88.698 142.806,85.729 C142.806,80.81 142.167,77.302 140.897,75.214 C139.961,73.579 138.095,72.178 135.295,71.009 C130.883,69.077 126.345,68.48 121.679,69.219 C118.371,69.743 115.908,70.687 114.298,72.045 C107.763,77.322 102.292,87.309 97.88,102.007 C94.232,114.039 92.409,124.721 92.409,134.053 C92.409,142.113 94.274,148.478 98.007,153.147 C102.25,158.243 108.316,160.166 116.208,158.918 M215.724,100.396 C216.062,99.24 216.573,98.605 217.25,98.498 C218.437,98.309 219.033,99.66 219.033,102.543 C219.033,105.852 218.224,110.433 216.616,116.289 C214.832,123.019 212.967,127.134 211.015,128.63 C211.015,119.72 212.585,110.308 215.724,100.396 M188.363,102.692 C190.907,102.288 192.182,103.995 192.182,107.814 C192.182,108.664 192.137,109.623 192.052,110.698 C191.967,111.772 191.84,113.002 191.67,114.384 C191.501,116.112 191.373,117.507 191.288,118.583 C191.205,119.656 191.118,120.456 191.035,120.977 C190.61,123.082 190.06,125.29 189.38,127.602 C188.701,129.916 187.896,132.335 186.961,134.858 C184.5,141.525 182.337,145.007 180.473,145.302 C178.606,145.6 177.673,141.63 177.673,133.401 C177.673,129.502 178.647,123.872 180.598,116.52 C182.976,107.745 185.562,103.136 188.363,102.692 M155.149,107.316 C157.861,106.889 159.219,108.156 159.219,111.126 C159.219,111.72 159.157,112.661 159.029,113.957 C158.902,115.25 158.839,116.193 158.839,116.785 C158.839,117.72 158.921,118.83 159.094,120.116 C159.263,121.406 159.516,122.912 159.858,124.641 C160.195,126.37 160.45,127.901 160.621,129.228 C160.791,130.558 160.876,131.692 160.876,132.627 C160.876,134.917 159.858,138.432 157.819,143.163 C156.293,146.801 155.063,148.691 154.13,148.839 C150.396,149.43 148.529,145.145 148.529,135.98 C148.529,132.418 149.168,127.098 150.439,120.024 C151.795,111.836 153.367,107.601 155.149,107.316" fill="#FFFFFF"></path><path d="M310.532,126.742 C312.058,128.194 313.416,128.827 314.603,128.64 C315.113,128.56 315.77,128.263 316.576,127.753 C317.382,127.245 317.787,126.776 317.787,126.353 C315.326,125.643 313.542,124.736 312.44,123.639 C309.213,120.502 306.796,118.211 305.185,116.767 C306.458,115.634 309.045,112.083 312.951,106.121 C316.344,100.919 318.846,98.188 320.457,97.932 L329.237,96.542 C330.003,95.573 330.384,94.836 330.384,94.323 C329.874,93.303 326.312,93.232 319.694,94.106 L292.587,98.529 C291.145,95.367 290.024,92.828 289.213,90.919 C288.407,89.01 287.877,87.651 287.624,86.844 C291.017,82.487 293.603,79.195 295.39,76.958 C297.169,74.729 298.188,73.423 298.443,73.041 C302.768,66.927 304.934,61.916 304.934,58.015 C304.934,54.026 303.489,50.69 300.605,48.008 C297.635,45.256 294.202,44.185 290.298,44.805 C286.479,45.411 283.426,48.312 281.134,53.508 C279.267,57.624 278.334,61.888 278.334,66.298 C278.334,71.814 279.607,78.23 282.151,85.547 L270.315,101.163 C266.499,107.115 264.589,112.89 264.589,118.488 C264.589,123.411 266.244,127.18 269.551,129.795 C272.944,132.482 277.018,133.447 281.769,132.695 C287.623,131.767 294.581,127.4 302.64,119.591 L310.532,126.742 L310.532,126.742 L310.532,126.742 L310.532,126.742 Z M297.55,101.944 C298.483,101.709 299.416,101.519 300.352,101.37 C301.286,101.224 302.218,101.077 303.152,100.927 L310.533,99.759 C310.533,100.949 309.472,103.322 307.349,106.879 C305.143,110.458 303.661,112.301 302.896,112.421 C301.195,110.485 299.67,108.69 298.316,107.039 C296.957,105.387 295.811,103.831 294.88,102.367 L297.55,101.944 L297.55,101.944 L297.55,101.944 L297.55,101.944 Z M284.697,56.126 C286.647,50.815 289.192,47.909 292.335,47.408 C293.519,47.224 294.645,47.359 295.705,47.831 C296.766,48.299 297.697,48.957 298.506,49.807 C299.311,50.653 299.948,51.633 300.414,52.748 C300.882,53.864 301.115,55.012 301.115,56.198 C301.115,60.104 298.187,65.743 292.335,73.118 C289.023,77.375 286.86,79.964 285.845,80.889 C283.723,75.883 282.662,71.551 282.662,67.902 C282.662,63.832 283.34,59.908 284.697,56.126 L284.697,56.126 Z M293.098,123.391 C288.429,127.016 283.977,129.163 279.735,129.834 C276.851,130.291 274.178,129.657 271.717,127.925 C269.254,126.109 268.026,123.883 268.026,121.254 C268.026,109.121 273.371,98.687 284.061,89.953 C286.098,95.145 287.497,98.233 288.26,99.214 C284.781,100.701 282.322,101.599 280.881,101.911 C280.793,102.263 280.731,102.59 280.691,102.895 C280.646,103.198 280.626,103.564 280.626,103.987 C281.475,103.853 283.129,103.718 285.588,103.584 C287.71,103.502 289.361,103.368 290.55,103.179 C296.067,111.131 298.995,115.671 299.332,116.804 C299.331,117.994 297.254,120.188 293.098,123.391 L293.098,123.391 Z" fill="#FFFFFF"></path><path d="M248.574,178.793 C250.693,178.456 251.756,176.72 251.756,173.582 C251.756,170.442 250.31,169.1 247.429,169.559 C246.58,169.693 245.71,170.295 244.82,171.37 C243.93,172.446 243.482,173.407 243.482,174.253 C243.482,175.613 243.991,176.763 245.009,177.704 C246.031,178.646 247.214,179.007 248.574,178.793" fill="#FFFFFF"></path><path d="M275.934,193.04 C275.339,193.138 275.041,193.436 275.041,193.945 C275.041,193.689 275.339,194.877 275.934,197.495 L275.934,206.785 C275.934,210.093 274.915,215.518 272.879,223.05 C270.672,231.206 268.933,235.384 267.66,235.586 C265.115,235.985 263.842,230.928 263.842,220.406 C263.842,219.729 263.885,218.832 263.969,217.715 C264.054,216.6 264.178,215.307 264.353,213.837 C264.521,212.367 264.672,211.051 264.797,209.886 C264.925,208.72 264.987,207.801 264.987,207.117 C264.987,204.488 263.672,203.341 261.045,203.671 C260.361,203.776 259.939,203.974 259.771,204.255 C259.599,204.536 259.517,204.803 259.517,205.056 C259.517,205.31 259.599,205.767 259.771,206.416 L259.771,206.463 C259.594,206.93 259.424,207.484 259.264,208.151 C258.668,210.71 258.118,212.961 257.61,214.905 C257.1,216.853 256.632,218.539 256.21,219.963 C253.494,228.963 252.094,233.515 252.009,233.609 C250.311,238.122 248.872,240.47 247.682,240.658 C245.138,241.061 243.864,238.423 243.864,232.736 C243.864,227.308 244.671,220.603 246.284,212.627 C246.705,210.696 247.066,209.09 247.365,207.808 C247.661,206.535 247.894,205.546 248.064,204.837 C248.064,203.649 246.963,203.23 244.758,203.58 C243.653,203.752 242.805,204.187 242.208,204.875 C242.208,206.4 242.124,208.346 241.956,210.701 C241.857,212.064 241.727,213.583 241.572,215.222 C237.569,232.423 233.963,241.305 230.758,241.813 C228.72,242.134 227.532,239.736 227.194,234.612 C227.11,233.693 227.047,232.05 227.002,229.68 C226.961,227.313 226.94,224.218 226.94,220.4 C226.94,213.785 227.958,203.184 229.994,188.608 L236.103,187.768 C238.142,187.531 240.09,187.263 241.958,186.968 C243.824,186.672 245.603,186.391 247.304,186.121 C248.912,185.866 251.331,185.186 254.557,184.083 C258.455,182.785 260.578,181.898 260.92,181.419 L260.92,180.53 C256.591,181.045 252.964,181.514 250.037,181.934 C247.111,182.357 244.798,182.658 243.103,182.841 C239.708,183.295 237.012,183.656 235.019,183.931 C233.027,184.206 231.69,184.393 231.01,184.502 C231.35,182.921 231.649,181.474 231.901,180.161 C232.157,178.849 232.368,177.628 232.538,176.496 L232.538,173.823 C230.248,172.66 228.549,172.167 227.448,172.34 C226.767,172.448 226.302,172.82 226.048,173.452 L226.685,175.642 C226.514,177.876 226.386,179.784 226.302,181.366 C226.218,182.95 226.133,184.214 226.048,185.159 C221.382,186.07 217.52,186.829 214.468,187.439 C211.413,188.051 209.081,188.483 207.469,188.738 C206.449,188.9 205.941,189.28 205.941,189.873 C205.941,190.382 206.407,190.773 207.34,191.049 C208.53,191.372 209.422,191.825 210.011,192.409 L212.939,191.055 C220.067,190.011 224.35,189.459 225.794,189.4 C224.691,200.011 223.865,208.435 223.312,214.675 C223.244,215.442 223.181,216.174 223.121,216.876 C218.476,236.394 214.785,246.375 212.049,246.809 C210.607,247.037 209.545,245.72 208.868,242.858 C208.36,240.82 208.189,238.812 208.36,236.831 C209.124,227.717 210.564,219.896 212.686,213.366 L208.232,212.544 L205.941,208.325 C204.924,206.533 202.547,205.933 198.815,206.526 C197.117,206.796 195.038,211.536 192.579,220.75 C191.272,226.133 190.374,230.436 189.865,233.709 C185.947,246.759 182.355,253.548 179.091,254.066 C177.565,254.306 176.121,253.646 174.763,252.078 C173.322,250.441 172.601,248.902 172.601,247.459 C174.72,243.812 176.503,240.266 177.944,236.812 C181.593,228.431 183.419,221.099 183.419,214.821 C183.419,213.04 182.655,211.634 181.128,210.6 C179.6,209.571 177.944,209.196 176.165,209.48 C173.11,209.962 170.778,214.956 169.165,224.46 C168.841,226.272 168.572,228.018 168.349,229.711 C167.493,232.966 166.327,236.822 164.839,241.307 C161.784,250.699 159.535,255.509 158.094,255.74 C155.629,256.129 154.403,254.33 154.403,250.34 C154.403,248.901 154.485,247.126 154.658,245.019 C154.824,242.915 155.081,240.479 155.421,237.708 C155.759,234.854 156.013,232.376 156.184,230.268 C156.353,228.166 156.438,226.39 156.438,224.949 C156.438,222.488 154.612,220.616 150.966,219.325 C147.404,218.025 145.622,216.947 145.622,216.096 C145.622,215.761 145.642,215.248 145.685,214.562 C145.727,213.877 145.791,213.018 145.874,211.987 C145.961,211.125 146.022,210.373 146.066,209.729 C146.106,209.086 146.086,208.515 146.004,208.02 C145.917,205.406 145.028,204.231 143.33,204.499 C141.21,204.838 140.149,207.125 140.149,211.366 C140.149,212.302 140.488,213.731 141.167,215.657 C141.844,217.589 142.185,218.976 142.185,219.824 C142.185,221.447 141.884,223.559 141.286,226.151 C140.956,227.389 140.413,229.43 139.731,231.984 C139.16,234.121 138.477,236.617 137.664,239.221 C137.454,239.865 137.238,240.519 137.022,241.18 C136.802,241.824 136.547,242.407 136.314,243.033 C135.732,244.355 135.115,245.651 134.438,246.888 C133.751,248.118 133.042,249.33 132.229,250.431 C131.434,251.55 130.594,252.591 129.733,253.551 C128.853,254.492 127.948,255.344 127.044,256.093 C126.583,256.455 126.135,256.808 125.7,257.15 C125.244,257.461 124.802,257.76 124.381,258.047 C123.511,258.586 122.695,259.059 121.943,259.425 C121.183,259.771 120.549,260.14 119.975,260.336 C118.846,260.756 118.205,261.028 118.205,261.028 L118.213,261.056 C113.864,262.635 109.095,263.659 109.095,263.659 C98.574,265.325 93.314,259.03 93.314,244.776 C93.314,232.136 95.733,218.858 100.57,204.939 C105.741,189.868 111.512,181.829 117.876,180.819 C120.93,180.336 123.898,180.587 126.784,181.571 C130.347,182.706 132.13,184.67 132.13,187.471 C132.13,190.013 131.407,194.2 129.966,200.03 C128.521,205.774 127.802,209.788 127.802,212.079 C127.802,213.352 128.096,214.578 128.694,215.758 C129.373,217.348 130.262,218.054 131.365,217.88 C132.975,217.624 134.419,214 135.694,207.013 C136.711,201.423 137.221,197.14 137.221,194.172 C137.221,189.251 136.582,185.744 135.312,183.656 C134.375,182.025 132.511,180.624 129.711,179.452 C125.298,177.521 120.759,176.928 116.093,177.665 C112.787,178.19 110.323,179.132 108.712,180.489 C102.178,185.766 96.707,195.754 92.296,210.451 C88.645,222.483 86.824,233.164 86.824,242.496 C86.824,250.558 88.69,256.923 92.424,261.589 C96.665,266.688 102.731,268.61 110.621,267.361 C114.754,266.706 119.11,265.456 123.607,263.264 C123.653,263.245 123.695,263.228 123.742,263.209 C124.631,262.816 125.602,262.286 126.641,261.683 C127.148,261.357 127.675,261.019 128.22,260.667 C128.744,260.287 129.275,259.875 129.815,259.444 C130.869,258.558 131.917,257.556 132.929,256.451 C133.915,255.331 134.891,254.134 135.729,252.82 C136.602,251.535 137.349,250.15 138.055,248.76 C138.751,247.364 139.363,245.95 139.906,244.576 C140.164,243.825 140.453,243.063 140.668,242.342 C140.858,241.63 141.047,240.926 141.234,240.236 C141.917,237.477 142.461,234.921 142.903,232.722 C143.386,230.233 143.743,228.209 143.962,226.919 C144.642,223.971 144.984,221.878 144.984,220.653 C149.138,222.114 151.22,223.863 151.22,225.9 L150.966,236.121 C150.795,241.157 150.795,245.099 150.966,247.957 C151.048,251.846 151.475,254.366 152.239,255.519 C154.022,258.207 156.224,259.342 158.856,258.925 C161.013,258.582 163.904,252.793 167.522,241.588 C167.521,241.773 167.509,241.971 167.509,242.153 C167.509,245.97 168.358,249.445 170.055,252.568 C172.26,256.208 175.144,257.743 178.71,257.178 C181.257,256.775 183.504,255.187 185.453,252.42 C186.801,250.349 188.156,247.496 189.519,243.875 C190.09,252.102 192.424,255.898 196.526,255.248 C200.002,254.695 202.844,250.299 205.052,242.061 C207.087,247.932 209.675,250.619 212.813,250.12 C215.358,249.718 218.412,243.72 221.976,232.127 C222.189,231.437 222.394,230.766 222.592,230.108 C222.776,232.945 223.201,235.765 223.884,238.569 C225.327,244.11 227.49,246.651 230.376,246.192 C233.486,245.7 236.783,240.264 240.269,229.887 C240.209,231.08 240.176,232.152 240.176,233.063 C240.176,235.86 240.64,238.459 241.573,240.858 C242.847,243.712 244.795,244.928 247.428,244.512 C249.803,244.137 251.837,241.95 253.536,237.944 C254.127,236.493 255.53,232.116 257.735,224.806 C258.406,222.516 258.997,220.442 259.516,218.561 L259.516,219.306 C259.516,224.059 259.898,228.283 260.662,231.979 C261.933,238.058 264.1,240.855 267.152,240.37 C270.462,239.844 273.428,234.243 276.058,223.561 C278.265,214.643 279.37,207.808 279.37,203.054 C279.371,196.015 278.226,192.679 275.934,193.04 L275.934,193.04 Z M171.967,242.85 C171.967,233.941 173.533,224.531 176.674,214.615 C177.009,213.463 177.52,212.828 178.2,212.72 C179.387,212.531 179.982,213.882 179.982,216.764 C179.982,220.075 179.176,224.656 177.565,230.511 C175.783,237.241 173.914,241.353 171.967,242.85 L171.967,242.85 Z M205.052,229.467 C204.88,231.021 204.541,232.789 204.031,234.78 C203.524,236.77 202.928,238.924 202.252,241.233 C200.469,247.115 198.772,250.652 197.159,251.841 C195.97,252.029 194.997,251.376 194.234,249.884 C193.638,248.707 193.344,247.397 193.344,245.952 C193.344,238.316 194.02,231.804 195.379,226.416 C195.97,224.371 196.48,222.55 196.906,220.954 C197.329,219.362 197.71,218.069 198.05,217.081 C199.153,212.835 200.427,210.597 201.868,210.37 C203.649,210.086 204.711,211.873 205.052,215.722 L206.579,217.515 L205.052,229.467 L205.052,229.467 L205.052,229.467 L205.052,229.467 Z" fill="#FFFFFF"></path><path d="M293.367,162.279 C292.513,162.415 291.651,163.019 290.758,164.093 C289.867,165.17 289.423,166.131 289.423,166.978 C289.423,168.336 289.93,169.487 290.948,170.424 C291.966,171.37 293.155,171.732 294.513,171.517 C296.63,171.18 297.693,169.444 297.693,166.304 C297.693,163.167 296.25,161.823 293.367,162.279" fill="#FFFFFF"></path><path d="M381.833,246.33 C381.568,245.899 381.194,245.539 380.806,245.34 C380.033,244.945 379.328,244.853 378.618,245.04 C378.256,244.741 377.907,244.413 377.514,244.05 C377.367,243.908 377.222,243.763 377.078,243.618 C376.955,243.49 376.834,243.365 376.708,243.241 C376.476,243.016 376.241,242.799 376.002,242.58 L375.452,242.082 C375.098,241.76 374.741,241.439 374.389,241.113 C373.954,240.711 373.525,240.302 373.098,239.893 L371.933,238.802 C371.703,238.594 371.47,238.387 371.246,238.178 C371.127,238.066 371.011,237.948 370.896,237.833 C370.741,237.68 370.59,237.528 370.436,237.386 L368.868,235.958 C369.229,235.734 369.59,235.516 369.954,235.292 L375.61,231.766 C376.089,231.462 376.567,231.162 377.051,230.863 C377.352,230.677 377.656,230.496 377.964,230.315 C378.242,230.15 378.52,229.986 378.796,229.816 C379.298,229.505 379.803,229.185 380.302,228.866 L380.777,228.562 C381.214,228.284 381.399,227.804 381.293,227.249 C381.204,226.775 380.815,226.46 380.328,226.46 L379.988,226.511 C379.67,226.608 379.36,226.746 379.055,226.929 C378.655,227.174 378.259,227.43 377.863,227.685 L368.652,233.444 C368.63,233.459 368.602,233.475 368.577,233.492 L372.968,214.616 C373.165,213.772 373.362,212.925 373.572,212.082 C373.621,211.876 373.655,211.824 373.706,211.802 C374.049,211.738 374.27,211.524 374.435,211.365 L374.664,211.151 C374.946,210.995 375.271,210.692 375.38,210.114 C375.405,209.971 375.44,209.832 375.474,209.69 L375.508,209.54 C375.686,208.734 375.316,208.1 375.048,207.637 C374.548,206.775 373.684,206.508 373.079,206.383 C372.33,206.23 371.632,206.523 371.193,206.78 C370.381,207.255 369.895,208.059 369.865,208.976 C369.851,209.253 369.877,209.542 369.941,209.862 C370.111,210.655 370.638,211.172 371.059,211.55 C370.937,212.006 370.83,212.471 370.716,212.971 L366.43,231.454 C366.415,231.41 366.398,231.365 366.384,231.321 C366.322,231.15 366.259,230.98 366.205,230.806 C366.077,230.397 365.953,229.984 365.83,229.573 L365.527,228.571 C365.385,228.108 365.237,227.647 365.089,227.184 L364.854,226.462 C364.8,226.313 364.749,226.162 364.707,226.01 L364.143,223.927 C364.055,223.617 363.961,223.307 363.862,223.005 L363.683,222.464 C363.605,222.236 363.528,222.01 363.457,221.78 C363.388,221.557 363.326,221.331 363.266,221.107 L363.134,220.629 C363.053,220.329 362.969,220.031 362.878,219.735 L362.194,217.569 C362.137,217.381 362.074,217.198 361.967,216.908 L361.884,216.672 C361.799,216.429 361.714,216.188 361.603,215.947 C361.447,215.62 361.132,215.416 360.784,215.416 C360.372,215.416 360.02,215.706 359.932,216.117 C359.864,216.421 359.905,216.71 359.945,217.001 C359.967,217.187 360.047,217.327 360.094,217.399 L360.241,217.96 C360.304,218.202 360.371,218.444 360.438,218.687 C360.531,219.007 360.634,219.323 360.737,219.64 L360.888,220.115 C360.952,220.309 361.016,220.501 361.069,220.702 C361.112,220.863 361.151,221.022 361.188,221.184 C361.254,221.454 361.32,221.725 361.402,221.986 C361.593,222.585 361.797,223.18 361.997,223.771 L362.292,224.635 C362.381,224.904 362.463,225.169 362.536,225.436 L362.895,226.803 C362.97,227.075 363.051,227.347 363.131,227.614 L363.701,229.509 C363.756,229.7 363.808,229.895 363.869,230.093 C363.931,230.28 363.999,230.465 364.066,230.65 C364.137,230.851 364.211,231.05 364.276,231.254 C364.33,231.428 364.384,231.603 364.438,231.776 C364.164,231.522 363.888,231.268 363.613,231.017 L363.477,230.89 C363.272,230.702 363.073,230.515 362.869,230.334 L362.493,230 C362.319,229.853 362.146,229.702 361.981,229.544 C361.754,229.325 361.534,229.104 361.31,228.883 C361.054,228.624 360.798,228.366 360.533,228.114 C360.223,227.824 359.908,227.54 359.589,227.257 L358.921,226.654 C358.777,226.522 358.639,226.386 358.499,226.252 L357.968,225.734 C357.722,225.495 357.478,225.254 357.156,224.96 C357.27,224.395 357.239,223.897 357.06,223.346 C356.763,222.432 356.093,222.041 355.557,221.729 L355.414,221.647 C355.071,221.437 354.587,221.462 354.291,221.525 C354.229,221.537 354.173,221.555 354.113,221.555 C353.235,221.578 352.527,222.015 351.957,222.892 C351.485,223.621 351.418,224.441 351.759,225.258 C352.007,225.859 352.376,226.52 353.23,226.862 C353.694,227.048 354.161,227.136 354.653,227.136 L355.086,227.09 C355.415,227.318 355.725,227.601 356.145,227.989 C356.29,228.122 356.428,228.264 356.565,228.408 C356.708,228.555 356.851,228.701 357.006,228.845 C357.265,229.081 357.528,229.314 357.793,229.547 C358.053,229.776 358.309,230.003 358.564,230.234 C358.97,230.608 359.371,230.985 359.771,231.371 C359.922,231.513 360.069,231.66 360.21,231.808 L360.611,232.203 C360.875,232.461 361.147,232.711 361.42,232.964 L361.834,233.338 C361.981,233.469 362.127,233.6 362.267,233.73 L363.07,234.504 C363.023,234.512 362.982,234.518 362.935,234.525 C361.832,234.699 358.292,234.64 355.578,235.752 C354.388,236.277 346.39,238.109 345.542,238.458 C344.694,238.807 344.059,239.054 343.633,239.206 L343.381,233.644 C343.126,228.512 342.997,224.713 342.997,222.254 C342.913,215.14 342.955,209.45 343.126,205.179 C343.295,200.912 343.589,197.937 344.016,196.257 C345.798,189.611 346.688,185.316 346.688,183.364 C346.688,182.174 346.01,181.728 344.652,182.03 C342.618,182.436 341.472,183.722 341.217,185.881 C340.535,191.676 339.943,196.519 339.435,200.419 C338.927,204.315 338.545,207.348 338.288,209.51 C334.98,222.759 332.225,229.559 330.018,229.908 C327.812,230.257 326.708,226.995 326.708,220.124 C326.708,218.343 326.792,216.164 326.963,213.594 C327.133,211.022 327.386,208.014 327.728,204.565 L329.126,191.362 C329.294,190.148 328.659,189.656 327.216,189.883 C325.605,190.138 324.501,192.221 323.907,196.135 C323.841,197.147 323.774,198.159 323.709,199.172 C322.969,202.348 322.231,205.372 321.49,208.224 C320.643,211.498 319.752,214.567 318.815,217.429 C318.44,218.64 318.077,219.766 317.723,220.819 C315.768,225.926 313.926,228.64 312.201,228.913 C310.164,229.236 308.975,226.836 308.638,221.716 C308.554,220.795 308.491,219.152 308.447,216.781 C308.402,214.415 308.384,211.319 308.384,207.502 C308.384,200.884 309.403,190.286 311.442,175.71 L317.549,174.87 C319.585,174.632 321.534,174.365 323.403,174.07 C325.267,173.774 327.049,173.492 328.748,173.222 C330.357,172.969 332.775,172.288 336.003,171.182 C339.901,169.886 342.024,169.002 342.364,168.521 L342.364,167.629 C338.038,168.147 334.408,168.616 331.483,169.036 C328.558,169.459 326.246,169.758 324.549,169.943 C321.153,170.396 318.459,170.759 316.465,171.033 C314.472,171.306 313.136,171.496 312.457,171.601 C312.794,170.022 313.093,168.575 313.348,167.263 C313.603,165.949 313.814,164.73 313.983,163.596 L313.983,160.923 C311.693,159.76 309.998,159.267 308.897,159.441 C308.214,159.547 307.75,159.918 307.494,160.553 L308.132,162.743 C307.959,164.977 307.831,166.886 307.75,168.465 C307.662,170.049 307.577,171.315 307.494,172.262 C302.831,173.172 298.97,173.93 295.915,174.541 C292.859,175.151 290.525,175.586 288.914,175.839 C287.898,175.999 287.388,176.382 287.388,176.973 C287.388,177.481 287.854,177.877 288.787,178.153 C289.975,178.473 290.866,178.925 291.459,179.509 L294.389,178.155 C301.513,177.112 305.798,176.562 307.24,176.503 C306.136,187.112 305.31,195.537 304.758,201.776 C304.709,202.325 304.666,202.836 304.621,203.351 C304.247,204.906 303.89,206.34 303.552,207.628 C303.041,209.577 302.574,211.264 302.153,212.688 C299.436,221.686 298.034,226.237 297.953,226.333 C296.255,230.847 294.811,233.195 293.626,233.382 C291.081,233.787 289.808,231.144 289.808,225.459 C289.808,220.032 290.612,213.328 292.227,205.352 C292.65,203.419 293.009,201.815 293.307,200.533 C293.605,199.26 293.836,198.271 294.008,197.56 C294.008,196.374 292.904,195.955 290.7,196.305 C289.595,196.479 288.747,196.912 288.152,197.599 C288.152,199.125 288.068,201.072 287.9,203.426 C287.727,205.787 287.472,208.568 287.135,211.757 C286.796,214.95 286.544,217.705 286.371,220.023 C286.203,222.34 286.116,224.265 286.116,225.792 C286.116,228.589 286.584,231.188 287.516,233.588 C288.789,236.441 290.74,237.657 293.37,237.24 C295.742,236.866 297.778,234.677 299.478,230.672 C300.071,229.223 301.469,224.846 303.678,217.537 C303.79,217.154 303.896,216.789 304.003,216.419 C304.152,219.524 304.584,222.609 305.331,225.674 C306.307,229.423 307.612,231.793 309.248,232.797 C309.255,232.801 309.253,232.804 309.261,232.809 C309.274,232.817 309.285,232.822 309.297,232.83 C309.321,232.845 309.346,232.858 309.37,232.872 C310.585,233.596 311.489,233.673 313.314,233.097 C315.576,232.383 317.911,228.521 321.351,218.048 C321.692,217.06 322.037,216.039 322.382,214.955 C322.433,214.791 322.48,214.636 322.529,214.474 C322.345,217.435 322.253,219.942 322.253,221.978 C322.253,224.948 322.805,227.448 323.907,229.478 C325.263,232.063 327.3,233.14 330.017,232.709 C332.054,232.386 333.79,230.757 335.233,227.811 C335.997,226.081 336.655,224.574 337.209,223.298 C337.759,222.024 338.204,220.937 338.545,220.034 C339.816,224.923 340.453,231.904 340.453,240.981 C334.936,243.044 329.169,246.67 323.144,251.868 C315.51,258.594 311.691,265.052 311.691,271.244 C311.691,273.282 312.052,275.133 312.774,276.799 C313.494,278.47 314.492,279.86 315.761,280.976 C317.036,282.088 318.545,282.886 320.282,283.374 C322.02,283.862 323.907,283.946 325.946,283.623 C338.416,281.646 344.651,270.944 344.651,251.517 C344.651,251.008 344.631,250.313 344.587,249.428 C344.544,248.545 344.504,247.639 344.462,246.711 C344.419,245.785 344.374,244.879 344.334,243.996 C344.291,243.111 344.272,242.415 344.272,241.907 C348.089,240.027 357.656,237.586 359.013,237.372 C359.608,237.276 360.52,237.197 361.751,237.129 C362.084,237.11 362.45,237.096 362.838,237.085 C362.563,237.259 362.29,237.432 362.012,237.606 C361.773,237.756 361.527,237.901 361.283,238.045 C361.049,238.185 360.815,238.322 360.583,238.468 C360.305,238.641 360.029,238.822 359.755,239.001 C359.493,239.171 359.233,239.339 358.969,239.505 C358.734,239.653 358.495,239.795 358.254,239.935 C358.033,240.067 357.81,240.196 357.593,240.333 C357.224,240.561 356.859,240.794 356.49,241.028 L355.74,241.507 C355.522,241.641 355.302,241.772 355.082,241.903 L353.892,242.632 C353.502,242.876 353.109,243.123 352.717,243.361 C352.122,243.714 351.908,244.419 352.227,244.962 C352.549,245.515 353.27,245.775 354.022,245.259 C354.261,245.094 354.501,244.927 354.751,244.775 L355.506,244.319 C355.795,244.147 356.083,243.974 356.372,243.794 L357.452,243.105 C357.909,242.813 358.366,242.52 358.83,242.229 C359.199,241.999 359.567,241.775 359.94,241.55 C360.269,241.352 360.6,241.154 360.929,240.949 C361.282,240.727 361.638,240.501 361.992,240.273 L362.905,239.694 C363.527,239.305 364.148,238.917 364.792,238.529 C364.71,238.892 364.625,239.256 364.539,239.618 L359.846,259.811 C359.811,259.972 359.775,260.135 359.764,260.235 C359.653,260.302 359.532,260.358 359.41,260.413 C359.134,260.544 358.814,260.691 358.547,260.944 C358.127,261.333 357.568,261.959 357.614,262.879 C357.626,263.143 357.636,263.443 357.714,263.751 C357.93,264.583 358.487,265.233 359.373,265.687 C359.64,265.823 359.934,265.891 360.243,265.891 C360.624,265.891 360.968,265.791 361.273,265.701 L361.476,265.642 C361.918,265.52 362.283,265.215 362.515,264.977 C362.734,264.748 362.862,264.484 362.975,264.252 L363.075,264.059 C363.166,263.879 363.295,263.635 363.292,263.328 C363.284,262.609 363.173,261.572 362.247,260.825 C362.244,260.808 362.244,260.754 362.285,260.587 L367.017,240.23 C367.099,240.462 367.178,240.7 367.244,240.935 C367.298,241.126 367.344,241.322 367.392,241.517 C367.455,241.775 367.518,242.034 367.593,242.292 C367.662,242.526 367.74,242.756 367.819,242.985 C367.88,243.16 367.939,243.335 367.996,243.513 C368.164,244.049 368.331,244.588 368.493,245.126 L369.11,247.209 C369.18,247.458 369.249,247.708 369.323,247.952 C369.49,248.505 369.666,249.055 369.84,249.603 L370.086,250.346 C370.132,250.477 370.178,250.609 370.217,250.746 C370.265,250.916 370.309,251.089 370.353,251.262 C370.411,251.494 370.47,251.727 370.541,251.953 C370.674,252.391 370.812,252.824 370.95,253.259 L371.429,254.805 C371.535,255.154 371.641,255.5 371.749,255.848 C371.852,256.163 372.199,256.489 372.647,256.489 L372.653,256.489 C372.976,256.467 373.457,256.22 373.522,255.735 C373.552,255.517 373.583,255.187 373.535,254.848 C373.505,254.645 373.441,254.447 373.374,254.249 L372.939,252.838 C372.872,252.611 372.807,252.385 372.734,252.161 L372.557,251.627 C372.485,251.423 372.415,251.221 372.355,251.015 C372.291,250.81 372.233,250.603 372.176,250.393 L371.455,248.003 C371.39,247.777 371.324,247.552 371.254,247.327 L370.993,246.53 C370.868,246.164 370.746,245.798 370.636,245.429 C370.528,245.066 370.43,244.699 370.332,244.333 C370.248,244.021 370.165,243.707 370.076,243.396 C369.977,243.051 369.866,242.71 369.756,242.371 L369.288,240.861 C369.203,240.584 369.111,240.31 369.022,240.036 L370.348,241.298 C370.675,241.624 371.003,241.945 371.341,242.26 C371.606,242.507 371.88,242.747 372.153,242.984 C372.391,243.193 372.632,243.4 372.86,243.613 C373.227,243.951 373.588,244.291 373.948,244.633 L375.602,246.178 C375.876,246.434 376.148,246.69 376.463,246.992 C376.527,247.054 376.627,247.16 376.658,247.096 C376.394,247.937 376.656,248.628 376.88,249.074 C377.169,249.656 377.635,250.103 378.261,250.402 C378.829,250.677 379.428,250.714 380.208,250.499 C380.871,250.311 381.44,249.889 381.805,249.31 C382.402,248.364 382.412,247.28 381.833,246.33 L381.833,246.33 Z M340.836,252.883 C340.836,258.907 339.69,264.561 337.398,269.843 C334.513,276.494 330.313,280.257 324.798,281.13 C323.524,281.331 322.319,281.226 321.172,280.813 C320.026,280.399 319.028,279.752 318.182,278.87 C317.334,277.987 316.676,276.944 316.208,275.747 C315.743,274.547 315.51,273.268 315.51,271.912 C315.51,267.16 317.714,262.27 322.126,257.247 C327.132,251.446 333.367,246.938 340.836,243.72 L340.836,252.883 L340.836,252.883 L340.836,252.883 L340.836,252.883 Z" fill="#FFFFFF"></path><path d="M395.622,155.998 C395.622,155.998 390.75,118.517 365.048,112.679 L365.048,112.676 C391.634,105.224 395.622,70.685 395.622,70.685 C395.622,70.685 401.825,106.996 426.197,112.676 L426.197,112.679 C401.825,115.858 395.622,155.998 395.622,155.998" fill="#6BBCB9"></path><path d="M456.773,193.814 C456.773,193.814 451.899,156.335 426.197,150.497 L426.197,150.494 C452.785,143.042 456.773,108.502 456.773,108.502 C456.773,108.502 462.978,144.814 487.35,150.494 L487.35,150.497 C462.979,153.676 456.773,193.814 456.773,193.814" fill="#6BBCB9"></path><path d="M443.037,104.254 C443.037,104.254 438.164,66.774 412.462,60.935 L412.462,60.932 C439.05,53.48 443.037,18.941 443.037,18.941 C443.037,18.941 449.241,55.252 473.613,60.932 L473.613,60.935 C449.241,64.115 443.037,104.254 443.037,104.254" fill="#6BBCB9"></path></g></svg>