<svg width="602px" height="418px" viewBox="0 0 602 418" version="1.1" xmlns="http://www.w3.org/2000/svg" xmlns:xlink="http://www.w3.org/1999/xlink" xmlns:sketch="http://www.bohemiancoding.com/sketch/ns" preserveAspectRatio="xMinYMin meet">
    <title>Untitled 1</title>
    <description>Created with Sketch (http://www.bohemiancoding.com/sketch)</description>
    <defs></defs>
    <g id="Page-1" stroke="none" stroke-width="1" fill="none" fill-rule="evenodd" sketch:type="MSPage">
        <path d="M315.906287,8.78138256 C315.906287,8.78138256 235.76357,-7.26645898 150.321395,4.02624322 C64.8744077,15.3165335 -6.03847095,47.0817808 0.407498175,154.417926 C6.85226424,261.755278 43.913579,321.131206 55.7456258,338.274068 C67.5776725,355.41693 115.104363,418.584428 169.761562,417.995915 C224.415151,417.401372 398.829264,371.195841 454.256418,346.71224 C523.334638,316.189141 576.409819,277.065066 593.210483,241.860392 C610.003929,206.653307 605.426304,125.528917 536.710204,84.1979166 C467.998916,42.8705339 372.804777,15.8833393 315.906287,8.78138256" id="Shape" fill="#6ABBB8" sketch:type="MSShapeGroup" transform="translate(300.700000, 209.000000) scale(-1, 1) translate(-300.700000, -209.000000) "></path>
        <path d="M512.577498,151.073171 C512.577498,151.073171 509.186514,125.420284 491.297538,121.424618 L491.297538,121.422565 C509.801791,116.322239 512.577498,92.6829268 512.577498,92.6829268 C512.577498,92.6829268 516.894879,117.535038 533.858154,121.422565 L533.858154,121.424618 C516.894879,123.600401 512.577498,151.073171 512.577498,151.073171" id="Shape" fill="#FFFFFF" sketch:type="MSShapeGroup"></path>
        <path d="M555.138114,177.02439 C555.138114,177.02439 551.745959,151.372572 533.858154,147.376859 L533.858154,147.374806 C552.362588,142.27442 555.138114,118.634146 555.138114,118.634146 C555.138114,118.634146 559.456604,143.487233 576.418769,147.374806 L576.418769,147.376859 C559.4573,149.552668 555.138114,177.02439 555.138114,177.02439" id="Shape" fill="#FFFFFF" sketch:type="MSShapeGroup"></path>
        <path d="M544.960575,114.926829 C544.960575,114.926829 541.569005,89.2746269 523.680615,85.2782766 L523.680615,85.2762233 C542.185654,80.1758975 544.960575,56.5365854 544.960575,56.5365854 C544.960575,56.5365854 549.27851,81.3886964 566.241231,85.2762233 L566.241231,85.2782766 C549.27851,87.4547441 544.960575,114.926829 544.960575,114.926829" id="Shape" fill="#FFFFFF" sketch:type="MSShapeGroup"></path>
        <path d="M57.3640656,217.804878 C57.3640656,217.804878 55.0051198,199.888576 42.5606154,197.097952 L42.5606154,197.096518 C55.4331387,193.534386 57.3640656,177.02439 57.3640656,177.02439 C57.3640656,177.02439 60.3674607,194.38142 72.168,197.096518 L72.168,197.097952 C60.3674607,198.617547 57.3640656,217.804878 57.3640656,217.804878" id="Shape" fill="#FFFFFF" sketch:type="MSShapeGroup" transform="translate(57.364308, 197.414634) scale(-1, 1) translate(-57.364308, -197.414634) "></path>
        <path d="M27.756681,235.414634 C27.756681,235.414634 25.3969212,217.499078 12.9532308,214.708422 L12.9532308,214.706988 C25.8258804,211.144814 27.756681,194.634146 27.756681,194.634146 C27.756681,194.634146 30.760848,211.991858 42.5606154,214.706988 L42.5606154,214.708422 C30.7613321,216.228034 27.756681,235.414634 27.756681,235.414634" id="Shape" fill="#FFFFFF" sketch:type="MSShapeGroup" transform="translate(27.756923, 215.024390) scale(-1, 1) translate(-27.756923, -215.024390) "></path>
        <path d="M35.1585271,192.780488 C35.1585271,192.780488 32.7991743,174.864664 20.3550769,172.073562 L20.3550769,172.072128 C33.2281476,168.509996 35.1585271,152 35.1585271,152 C35.1585271,152 38.1623082,169.35703 49.9624615,172.072128 L49.9624615,172.073562 C38.1623082,173.593635 35.1585271,192.780488 35.1585271,192.780488" id="Shape" fill="#FFFFFF" sketch:type="MSShapeGroup" transform="translate(35.158769, 172.390244) scale(-1, 1) translate(-35.158769, -172.390244) "></path>
    </g>
</svg>